<?xml version="1.0" standalone="no"?>
<!DOCTYPE svg PUBLIC "-//W3C//DTD SVG 1.1//EN" "http://www.w3.org/Graphics/SVG/1.1/DTD/svg11.dtd" >
<svg xmlns="http://www.w3.org/2000/svg" xmlns:xlink="http://www.w3.org/1999/xlink" version="1.1">
<metadata>
Created by FontForge 20170731 at Tue Jan 18 12:16:09 2022
 By Aleksey,,,
Copyright (c) 2015 Swiss Typefaces. All rights reserved.
</metadata>
<defs>
<font id="SuisseIntl-Regular" horiz-adv-x="1388" >
  <font-face 
    font-family="Suisse Int'l"
    font-weight="400"
    font-stretch="normal"
    units-per-em="2048"
    panose-1="2 11 5 4 0 0 0 0 0 0"
    ascent="1638"
    descent="-410"
    x-height="1102"
    cap-height="1485"
    bbox="-410 -489 2791 1915"
    underline-thickness="143"
    underline-position="-367"
    unicode-range="U+0020-FB02"
  />
<missing-glyph horiz-adv-x="1024" 
d="M0 0v1485h1024v-1485h-1024zM489 741l-450 684v-1366zM532 741l453 -682v1366zM512 709l-444 -670h886zM68 1446l444 -672l442 672h-886z" />
    <glyph glyph-name=".notdef" horiz-adv-x="1024" 
d="M0 0v1485h1024v-1485h-1024zM489 741l-450 684v-1366zM532 741l453 -682v1366zM512 709l-444 -670h886zM68 1446l444 -672l442 672h-886z" />
    <glyph glyph-name=".null" horiz-adv-x="0" 
 />
    <glyph glyph-name="nonmarkingreturn" horiz-adv-x="682" 
 />
    <glyph glyph-name="space" unicode=" " horiz-adv-x="485" 
 />
    <glyph glyph-name="exclam" unicode="!" horiz-adv-x="501" 
d="M309 434h-116l-41 602v449h198v-449zM369 0h-236v236h236v-236z" />
    <glyph glyph-name="quotedbl" unicode="&#x22;" horiz-adv-x="632" 
d="M369 1485h209l-41 -492h-127zM55 1485h209l-41 -492h-127z" />
    <glyph glyph-name="numbersign" unicode="#" horiz-adv-x="1363" 
d="M133 1102h291l53 383h152l-54 -383h320l53 383h152l-53 -383h274l-21 -146h-274l-49 -356h276l-20 -145h-277l-61 -455h-152l62 455h-320l-61 -455h-152l62 455h-289l21 145h288l49 356h-290zM555 956l-49 -356h319l49 356h-319z" />
    <glyph glyph-name="dollar" unicode="$" horiz-adv-x="1202" 
d="M539 1661h112v-150q212 -17 332 -139t119 -325h-193q-2 76 -23.5 134.5t-58 94t-80.5 55t-96 25.5v-508l31 -8q55 -15 96.5 -28.5t91.5 -34.5t86 -43.5t72 -55.5t58.5 -71t36.5 -89t14 -110q0 -100 -38.5 -181t-106 -133.5t-154 -82.5t-187.5 -36v-174h-112v174
q-213 17 -344 155t-127 341h192q4 -153 84 -240t195 -100v555l-45 12q-177 47 -282.5 153.5t-105.5 270.5q0 85 36 156.5t97.5 118.5t137.5 76t162 38v150zM944 379q0 51 -14 90.5t-37 67t-62 50t-80 37.5t-100 31v-526q125 8 209 72.5t84 177.5zM299 1124q0 -92 58 -151
t180 -94l2 -2v481q-101 -8 -170.5 -67t-69.5 -167z" />
    <glyph glyph-name="percent" unicode="%" horiz-adv-x="2043" 
d="M410 635q-163 0 -248.5 117.5t-85.5 314.5t85.5 314.5t248.5 117.5t250.5 -118t87.5 -314t-87.5 -314t-250.5 -118zM410 748q90 0 136 82t46 237t-46 238.5t-136 83.5q-86 0 -132.5 -84t-46.5 -238t46.5 -236.5t132.5 -82.5zM614 0h-206l1024 1485h206zM1638 -14
q-162 0 -247.5 117.5t-85.5 314.5t85.5 314.5t247.5 117.5q163 0 250.5 -118t87.5 -314t-87.5 -314t-250.5 -118zM1638 98q90 0 136.5 82.5t46.5 237.5t-46.5 238t-136.5 83q-86 0 -132 -83.5t-46 -237.5t46 -237t132 -83z" />
    <glyph glyph-name="ampersand" unicode="&#x26;" horiz-adv-x="1439" 
d="M551 -27q-223 0 -358.5 124t-135.5 311q0 167 99 281t276 173q-81 95 -122.5 174.5t-41.5 161.5q0 141 112.5 228t287.5 87q56 0 108.5 -10t103 -34t87.5 -59.5t59.5 -91t22.5 -124.5q0 -260 -308 -385l301 -320q61 140 72 316h193q-22 -259 -133 -453l331 -352h-268
l-180 193q-207 -220 -506 -220zM551 135q234 0 387 182l-397 426q-285 -101 -285 -327q0 -125 86 -203t209 -78zM467 1212q0 -120 160 -280l4 -6q110 40 174.5 109t64.5 157q0 86 -54.5 126t-143.5 40q-85 0 -145 -37.5t-60 -108.5z" />
    <glyph glyph-name="quotesingle" unicode="'" horiz-adv-x="319" 
d="M55 1485h209l-41 -492h-127z" />
    <glyph glyph-name="parenleft" unicode="(" horiz-adv-x="501" 
d="M66 563q0 148 25.5 291.5t69.5 260.5t89.5 206t97.5 164h154q-111 -178 -177.5 -411.5t-66.5 -510.5q0 -527 244 -921h-154q-52 75 -97.5 164t-89.5 205.5t-69.5 260t-25.5 291.5z" />
    <glyph glyph-name="parenright" unicode=")" horiz-adv-x="501" 
d="M436 563q0 -148 -25.5 -291.5t-69.5 -260t-89.5 -205.5t-97.5 -164h-154q244 394 244 921q0 275 -66.5 510t-177.5 412h154q52 -75 97.5 -164t89.5 -206t69.5 -260.5t25.5 -291.5z" />
    <glyph glyph-name="asterisk" unicode="*" horiz-adv-x="720" 
d="M420 1485v-244l231 88l47 -115l-235 -81l141 -199l-94 -72l-152 207l-139 -207l-108 70l143 201l-231 81l40 115l232 -88v244h125z" />
    <glyph glyph-name="plus" unicode="+" 
d="M788 0h-186v463h-463v176h463v451h186v-451h463v-176h-463v-463z" />
    <glyph glyph-name="comma" unicode="," horiz-adv-x="501" 
d="M133 0v236h236v-252l-125 -269h-119l108 285h-100z" />
    <glyph glyph-name="hyphen" unicode="-" horiz-adv-x="829" 
d="M739 473h-651v176h651v-176z" />
    <glyph glyph-name="period" unicode="." horiz-adv-x="501" 
d="M369 0h-236v236h236v-236z" />
    <glyph glyph-name="slash" unicode="/" horiz-adv-x="772" 
d="M186 0h-186l584 1485h188z" />
    <glyph glyph-name="zero" unicode="0" horiz-adv-x="1353" 
d="M1055 743q0 306 -99 459.5t-280 153.5q-182 0 -280.5 -153.5t-98.5 -459.5q0 -308 98.5 -461t280.5 -153t280.5 153t98.5 461zM1253 743q0 -363 -144.5 -566.5t-432.5 -203.5q-194 0 -325 96t-192 266t-61 408t61 407.5t192 265t325 95.5q146 0 256.5 -53.5t180.5 -154.5
t105 -241.5t35 -318.5z" />
    <glyph glyph-name="one" unicode="1" horiz-adv-x="753" 
d="M555 0h-186v1161h-344v127q86 2 142.5 10.5t107 30t86.5 59t67 97.5h127v-1485z" />
    <glyph glyph-name="two" unicode="2" horiz-adv-x="1208" 
d="M618 1511q211 0 341.5 -102.5t130.5 -286.5q0 -100 -42.5 -203t-109 -192t-173 -189.5t-208.5 -181.5t-242 -182h815v-174h-1069v168q212 156 354 273.5t256 235.5t168 221t54 200q0 119 -73.5 188.5t-205.5 69.5q-63 0 -117 -18t-99.5 -56t-73 -104.5t-29.5 -155.5h-193
q-4 221 137 355t379 134z" />
    <glyph glyph-name="three" unicode="3" horiz-adv-x="1202" 
d="M578 129q151 0 243 75.5t92 211.5q0 62 -22 111t-60 80.5t-93 52.5t-117 29.5t-136 8.5h-30v170h24q200 0 297.5 59t97.5 187q0 114 -82 178t-206 64q-145 0 -228.5 -78.5t-95.5 -210.5h-192q18 201 155 322.5t365 121.5q100 0 184 -21t152 -64.5t106.5 -117.5t38.5 -173
q0 -116 -63 -206.5t-179 -137.5q283 -92 283 -373q0 -87 -28.5 -160.5t-78.5 -125.5t-118 -88t-146.5 -53.5t-165.5 -17.5q-128 0 -227 37t-161 103t-96.5 147t-43.5 178h193q18 -143 102 -226t236 -83z" />
    <glyph glyph-name="four" unicode="4" horiz-adv-x="1277" 
d="M772 1229l-530 -686h530v686zM1233 543v-176h-272v-367h-189v367h-737v176l735 942h191v-942h272z" />
    <glyph glyph-name="five" unicode="5" horiz-adv-x="1243" 
d="M618 129q140 0 236 96.5t96 261.5q0 89 -29 158.5t-77.5 111t-106.5 62.5t-121 21q-106 0 -181.5 -50t-104.5 -114l-187 10l97 799h852v-174h-701l-51 -422q118 112 319 112q98 0 186 -34.5t155.5 -98t107 -162t39.5 -217.5q0 -123 -43.5 -223t-117.5 -163t-168.5 -96.5
t-199.5 -33.5q-100 0 -183.5 24.5t-142.5 67t-102.5 101t-67.5 124.5t-32 140h193q24 -147 104.5 -224t230.5 -77z" />
    <glyph glyph-name="six" unicode="6" horiz-adv-x="1259" 
d="M313 475q0 -156 88.5 -251t235.5 -95q142 0 234 97t92 249q0 153 -91 252.5t-233 99.5q-145 0 -235.5 -99t-90.5 -253zM655 1356q-169 0 -262.5 -154.5t-101.5 -419.5q55 94 153 150.5t238 56.5q208 0 343.5 -141t135.5 -363q0 -139 -63.5 -255t-184 -186.5t-274.5 -70.5
q-274 0 -407.5 183.5t-133.5 533.5q0 130 18.5 246t62 223t108.5 184t165 122.5t226 45.5q105 0 189 -31t138 -84.5t86.5 -117t45.5 -137.5h-203q-19 101 -92 158t-187 57z" />
    <glyph glyph-name="seven" unicode="7" horiz-adv-x="1050" 
d="M23 1311v174h1028v-174q-280 -227 -441.5 -561t-187.5 -750h-225q24 399 188 731t449 580h-811z" />
    <glyph glyph-name="eight" unicode="8" horiz-adv-x="1282" 
d="M641 1511q224 0 360 -106t136 -272q0 -100 -50.5 -192t-154.5 -150q131 -53 190.5 -155t59.5 -218q0 -139 -72.5 -241t-194 -153t-274.5 -51q-154 0 -276 51t-194.5 153t-72.5 241q0 53 12.5 104.5t40 103t78.5 95t121 70.5q-104 58 -154.5 150t-50.5 192q0 166 136 272
t360 106zM641 713q-158 0 -251 -81.5t-93 -213.5q0 -131 92.5 -210t251.5 -79q158 0 251 79t93 210q0 132 -93.5 213.5t-250.5 81.5zM948 1110q0 111 -84 178.5t-223 67.5q-140 0 -224.5 -67.5t-84.5 -178.5q0 -114 85 -187t224 -73q138 0 222.5 73t84.5 187z" />
    <glyph glyph-name="nine" unicode="9" horiz-adv-x="1249" 
d="M932 1010q0 155 -87.5 250.5t-234.5 95.5q-144 0 -234.5 -96.5t-90.5 -249.5t90.5 -252t232.5 -99q145 0 234.5 98.5t89.5 252.5zM590 129q168 0 263 154.5t103 418.5q-55 -94 -154 -150t-239 -56q-207 0 -342 140.5t-135 364.5q0 138 63.5 253.5t184 186t274.5 70.5
q541 0 541 -716q0 -130 -19 -246.5t-63 -223t-109.5 -184t-165 -123t-223.5 -45.5q-105 0 -189 31t-137.5 84.5t-86 117.5t-45.5 138h202q19 -101 91 -158t186 -57z" />
    <glyph glyph-name="colon" unicode=":" horiz-adv-x="501" 
d="M369 866h-236v236h236v-236zM369 0h-236v236h236v-236z" />
    <glyph glyph-name="semicolon" unicode=";" horiz-adv-x="501" 
d="M133 0v236h236v-252l-125 -269h-119l108 285h-100zM369 866h-236v236h236v-236z" />
    <glyph glyph-name="less" unicode="&#x3c;" 
d="M160 629l1050 465v-201l-817 -344l817 -338v-199l-1050 457v160z" />
    <glyph glyph-name="equal" unicode="=" 
d="M1208 680h-1026v178h1026v-178zM1208 266h-1026v176h1026v-176z" />
    <glyph glyph-name="greater" unicode="&#x3e;" 
d="M1231 629v-160l-1051 -457v199l817 338l-817 344v201z" />
    <glyph glyph-name="question" unicode="?" horiz-adv-x="1021" 
d="M528 1511q89 0 170 -22t147.5 -64.5t106 -113t39.5 -160.5q0 -247 -276 -422q-104 -67 -138 -109t-34 -122v-64h-191v70q0 52 10.5 94t28.5 74t52 65t70 59.5t93 63.5q91 58 141 124.5t50 158.5q0 97 -76.5 155t-196.5 58q-82 0 -144 -26.5t-96 -70t-51.5 -90.5
t-19.5 -98h-186q0 197 141 318.5t360 121.5zM569 0h-235v236h235v-236z" />
    <glyph glyph-name="at" unicode="@" horiz-adv-x="1738" 
d="M1257 313q-85 0 -145 50t-72 139q-92 -183 -311 -183q-130 0 -216.5 93t-86.5 274q0 90 29.5 175t82 152t133 107.5t175.5 40.5q85 0 145 -41t90 -114l17 120h145l-59 -446q-31 -219 86 -219q83 0 138.5 98t55.5 264q0 249 -155 383.5t-414 134.5q-186 0 -332 -82.5
t-225.5 -226.5t-79.5 -323q0 -256 150 -419t407 -163q222 0 397 88l58 -141q-213 -101 -455 -101q-159 0 -294 56.5t-228.5 154.5t-146 235.5t-52.5 295.5q0 162 62 305t168.5 245t256 161t318.5 59q151 0 280 -40t229 -118t157 -205t57 -291q0 -121 -30.5 -221t-82 -164
t-116.5 -98.5t-136 -34.5zM848 1008q-111 0 -177.5 -95t-66.5 -229q0 -215 170 -215q117 0 184.5 98t67.5 240q0 97 -46 149t-132 52z" />
    <glyph glyph-name="A" unicode="A" horiz-adv-x="1351" 
d="M0 0l551 1485h242l559 -1485h-226l-116 322h-682l-115 -322h-213zM666 1274l-275 -774h553z" />
    <glyph glyph-name="B" unicode="B" horiz-adv-x="1376" 
d="M176 0v1485h535q88 0 161 -9.5t141.5 -35t115.5 -65.5t75.5 -105.5t28.5 -151.5q0 -107 -43.5 -195t-120.5 -132q225 -94 225 -353q0 -92 -27 -166t-75 -124.5t-115.5 -84t-145.5 -48.5t-169 -15h-586zM385 684v-508h379q315 0 315 260q0 130 -78 189t-249 59h-367z
M385 1309v-459h358q279 0 279 240q0 111 -74.5 165t-204.5 54h-358z" />
    <glyph glyph-name="C" unicode="C" horiz-adv-x="1486" 
d="M1219 473h202q-48 -240 -221.5 -370t-421.5 -130q-157 0 -284.5 57t-212.5 159.5t-131 244.5t-46 311q0 228 85 401.5t242 269t364 95.5q234 0 401.5 -132.5t216.5 -366.5h-203q-34 145 -144.5 234t-281.5 89q-204 0 -335.5 -155.5t-131.5 -434.5q0 -277 131.5 -436
t342.5 -159q174 0 282.5 87t145.5 236z" />
    <glyph glyph-name="D" unicode="D" horiz-adv-x="1495" 
d="M1178 743q0 105 -18 189.5t-47.5 143t-76 101.5t-95.5 68t-113.5 40t-122.5 19.5t-130 4.5h-190v-1133h190q72 0 130 4.5t122.5 19.5t113.5 40t95.5 68t76 101.5t47.5 143t18 190.5zM176 1485h406q146 0 265 -23t222 -76.5t173 -137.5t109.5 -212t39.5 -293
q0 -166 -39.5 -294t-109.5 -212t-173 -138t-222 -76.5t-265 -22.5h-406v1485z" />
    <glyph glyph-name="E" unicode="E" horiz-adv-x="1255" 
d="M176 0v1485h1008v-180h-799v-451h752v-180h-752v-494h799v-180h-1008z" />
    <glyph glyph-name="F" unicode="F" horiz-adv-x="1146" 
d="M176 0v1485h965v-180h-756v-451h713v-180h-713v-674h-209z" />
    <glyph glyph-name="G" unicode="G" horiz-adv-x="1576" 
d="M795 1511q233 0 401 -122.5t213 -335.5h-203q-39 131 -144 206.5t-278 75.5q-204 0 -335.5 -155.5t-131.5 -434.5q0 -277 129.5 -436t337.5 -159q63 0 121.5 10.5t117.5 38.5t102.5 70.5t70.5 111.5t27 158v39h-394v180h590v-758h-164l-10 186q-133 -213 -469 -213
q-209 0 -362.5 99.5t-231.5 273t-78 399.5q0 228 85 401.5t242 269t364 95.5z" />
    <glyph glyph-name="H" unicode="H" horiz-adv-x="1550" 
d="M1165 1485h209v-1485h-209v674h-780v-674h-209v1485h209v-631h780v631z" />
    <glyph glyph-name="I" unicode="I" horiz-adv-x="561" 
d="M385 1485v-1485h-209v1485h209z" />
    <glyph glyph-name="J" unicode="J" horiz-adv-x="1130" 
d="M745 473v1012h209v-1014q0 -244 -121.5 -371t-345.5 -127q-223 0 -343.5 122.5t-120.5 363.5h194q0 -148 77.5 -232t192.5 -84q39 0 73.5 8t69.5 30.5t59.5 58.5t40 95.5t15.5 137.5z" />
    <glyph glyph-name="K" unicode="K" horiz-adv-x="1363" 
d="M385 1485v-748l670 748h260l-555 -606l618 -879h-250l-510 725l-233 -258v-467h-209v1485h209z" />
    <glyph glyph-name="L" unicode="L" horiz-adv-x="1169" 
d="M385 1485v-1305h784v-180h-993v1485h209z" />
    <glyph glyph-name="M" unicode="M" horiz-adv-x="1810" 
d="M1016 0h-221l-410 1294v-1294h-209v1485h350l379 -1237l379 1237h350v-1485h-209v1294z" />
    <glyph glyph-name="N" unicode="N" horiz-adv-x="1546" 
d="M1370 0h-305l-680 1268v-1268h-209v1485h307l678 -1264v1264h209v-1485z" />
    <glyph glyph-name="O" unicode="O" horiz-adv-x="1601" 
d="M317 743q0 -140 37.5 -253.5t103 -187t153 -113t190.5 -39.5q210 0 346.5 157.5t136.5 435.5t-136.5 435t-346.5 157q-103 0 -190.5 -39t-153 -112.5t-103 -187t-37.5 -253.5zM1497 743q0 -224 -84.5 -398t-243.5 -273t-368 -99t-368.5 99t-244 273t-84.5 398
q0 167 49.5 309t139 243.5t220.5 158.5t288 57q209 0 368 -98.5t243.5 -272t84.5 -397.5z" />
    <glyph glyph-name="P" unicode="P" horiz-adv-x="1302" 
d="M176 1485h465q115 0 203.5 -11.5t169 -41.5t132 -79.5t81.5 -129t30 -187.5t-30 -188t-81.5 -129.5t-132 -79t-168.5 -40.5t-204 -11h-256v-588h-209v1485zM657 1309h-272v-539h272q62 0 105.5 3t91.5 11.5t79.5 27t58.5 47t39.5 73t12.5 104.5q0 51 -10.5 91.5t-28 68.5
t-45.5 49t-58.5 33t-72.5 19t-81.5 9.5t-90.5 2.5z" />
    <glyph glyph-name="Q" unicode="Q" horiz-adv-x="1601" 
d="M1497 743q0 -328 -176 -538l176 -176l-127 -127l-182 182q-164 -111 -387 -111q-209 0 -368.5 99t-244 273t-84.5 398q0 167 49.5 309t139 243.5t220.5 158.5t288 57q209 0 368 -98.5t243.5 -272t84.5 -397.5zM317 743q0 -140 37.5 -253.5t103 -187t153 -113t190.5 -39.5
q135 0 250 71l-138 137l127 129l138 -139q106 153 106 395q0 278 -136.5 435t-346.5 157q-103 0 -190.5 -39t-153 -112.5t-103 -187t-37.5 -253.5z" />
    <glyph glyph-name="R" unicode="R" horiz-adv-x="1390" 
d="M1081 0l-321 627q-39 -2 -113 -2h-262v-625h-209v1485h471q81 0 148 -5t132 -17.5t115 -33.5t93.5 -54t71.5 -77.5t43.5 -105t15.5 -135.5q0 -170 -75.5 -264.5t-219.5 -133.5l344 -659h-234zM664 1309h-279v-508h279q52 0 90.5 2t81.5 8t73 17t58.5 30t45.5 45t27.5 64
t10.5 86q0 67 -20 114.5t-52 74.5t-85 42.5t-104.5 20t-125.5 4.5z" />
    <glyph glyph-name="S" unicode="S" horiz-adv-x="1312" 
d="M115 1106q0 102 49.5 182.5t129.5 127.5t171.5 71t185.5 24q103 0 193.5 -23.5t166 -71.5t128.5 -127t75 -183h-202q-23 80 -85 134t-133.5 74.5t-150.5 20.5q-48 0 -98.5 -11t-101 -34.5t-83 -68t-32.5 -103.5q0 -173 241 -227l172 -39q56 -12 100 -24t98 -31.5
t94.5 -42t81.5 -56t67 -72.5t42.5 -92.5t16.5 -115.5q0 -105 -46.5 -191t-125.5 -140.5t-180 -84t-213 -29.5q-259 0 -419.5 131.5t-190.5 356.5h204q29 -154 133 -232.5t277 -78.5q163 0 254.5 68.5t91.5 180.5q0 57 -22.5 101t-68 74t-99 50t-129.5 38l-185 38
q-65 14 -121.5 35.5t-110 56t-91.5 78t-61 104.5t-23 132z" />
    <glyph glyph-name="T" unicode="T" horiz-adv-x="1175" 
d="M483 0v1305h-483v180h1176v-180h-484v-1305h-209z" />
    <glyph glyph-name="U" unicode="U" horiz-adv-x="1497" 
d="M154 1485h208v-903q0 -223 88.5 -325.5t294.5 -102.5q208 0 299 111.5t91 338.5v881h208v-864q0 -332 -140 -490t-458 -158q-157 0 -266.5 33.5t-183 108.5t-107.5 195t-34 294v881z" />
    <glyph glyph-name="V" unicode="V" horiz-adv-x="1306" 
d="M23 1485h229l412 -1270l403 1270h219l-504 -1485h-250z" />
    <glyph glyph-name="W" unicode="W" horiz-adv-x="1888" 
d="M1069 1485l293 -1247l274 1247h219l-370 -1485h-254l-287 1221l-280 -1221h-254l-377 1485h229l287 -1247l274 1247h246z" />
    <glyph glyph-name="X" unicode="X" horiz-adv-x="1343" 
d="M0 0l551 764l-514 721h248l391 -549l395 549h236l-514 -713l550 -772h-245l-430 600l-432 -600h-236z" />
    <glyph glyph-name="Y" unicode="Y" horiz-adv-x="1277" 
d="M0 1485h229l406 -725l414 725h229l-545 -910v-575h-209v580z" />
    <glyph glyph-name="Z" unicode="Z" horiz-adv-x="1296" 
d="M1204 1485v-180l-872 -1125h905v-180h-1153v180l874 1125h-806v180h1052z" />
    <glyph glyph-name="bracketleft" unicode="[" horiz-adv-x="647" 
d="M166 1485h461v-158h-281v-1528h281v-157h-461v1843z" />
    <glyph glyph-name="backslash" unicode="\" horiz-adv-x="772" 
d="M186 1485l586 -1485h-188l-584 1485h186z" />
    <glyph glyph-name="bracketright" unicode="]" horiz-adv-x="647" 
d="M20 1485h461v-1843h-461v157h281v1528h-281v158z" />
    <glyph glyph-name="asciicircum" unicode="^" horiz-adv-x="903" 
d="M526 1485l420 -793h-201l-299 559l-292 -559h-199l412 793h159z" />
    <glyph glyph-name="underscore" unicode="_" horiz-adv-x="937" 
d="M872 -178h-806v176h806v-176z" />
    <glyph glyph-name="grave" unicode="`" horiz-adv-x="514" 
d="M311 1247l-266 238h238l186 -238h-158z" />
    <glyph glyph-name="a" unicode="a" horiz-adv-x="1144" 
d="M842 461v69q-109 -11 -188.5 -22.5t-151.5 -30.5t-116.5 -43t-70.5 -59t-26 -80q0 -79 57 -126.5t156 -47.5q55 0 102.5 10t92 35t76 63t50.5 97t19 135zM461 -27q-162 0 -270.5 85.5t-108.5 232.5q0 64 23 115.5t70.5 90t109 67t150 50t180 36.5t212.5 28v27
q0 268 -249 268q-116 0 -181 -57.5t-71 -161.5h-193q6 86 46 157.5t101.5 117t137.5 70.5t157 25q231 0 336 -109t103 -345l-2 -254q-3 -276 28 -416h-188q-12 81 -14 152q-53 -89 -143 -134t-234 -45z" />
    <glyph glyph-name="b" unicode="b" horiz-adv-x="1230" 
d="M326 547q0 -105 26.5 -186.5t72 -130t102 -73t120.5 -24.5q145 0 230.5 108t85.5 306t-85.5 306t-230.5 108q-64 0 -120.5 -24.5t-102 -73t-72 -130t-26.5 -186.5zM147 1485h187v-557q112 192 360 192q96 0 181 -39.5t149.5 -111.5t102.5 -181.5t38 -240.5
q0 -134 -38 -244t-102.5 -181.5t-149.5 -110t-181 -38.5q-248 0 -360 193v-166h-187v1485z" />
    <glyph glyph-name="c" unicode="c" horiz-adv-x="1140" 
d="M604 1120q97 0 181 -34t141 -89.5t93 -123.5t46 -140h-188q-20 99 -98.5 161t-186.5 62q-63 0 -119 -25t-101 -73.5t-71.5 -127.5t-26.5 -179q0 -198 93 -306t225 -108q113 0 192 64.5t101 156.5h192q-30 -161 -166.5 -273t-324.5 -112q-235 0 -374.5 160.5t-139.5 415.5
q0 250 145 410.5t387 160.5z" />
    <glyph glyph-name="d" unicode="d" horiz-adv-x="1236" 
d="M903 928v557h187v-1485h-187v166q-112 -193 -360 -193q-96 0 -181 38.5t-149.5 110t-102.5 181.5t-38 244q0 131 38 240.5t102.5 181.5t149.5 111.5t181 39.5q248 0 360 -192zM911 547q0 105 -26.5 186.5t-72 130t-102 73t-120.5 24.5q-145 0 -230.5 -108t-85.5 -306
t85.5 -306t230.5 -108q64 0 120.5 24.5t102 73t72 130t26.5 186.5z" />
    <glyph glyph-name="e" unicode="e" horiz-adv-x="1189" 
d="M1120 489h-848q2 -86 32.5 -155t79.5 -111t107.5 -64t120.5 -22q223 0 301 182h193q-39 -149 -170 -247.5t-324 -98.5q-169 0 -293 76.5t-185.5 205.5t-61.5 294q0 171 71 302t191.5 200t271.5 69q165 0 287 -85t180.5 -228t46.5 -318zM606 961q-63 0 -119 -18
t-102 -54.5t-75.5 -98t-35.5 -141.5h650q-2 59 -24.5 114.5t-61.5 100t-99.5 71t-132.5 26.5z" />
    <glyph glyph-name="f" unicode="f" horiz-adv-x="641" 
d="M195 1102v80q0 73 7 120t25 85t52 58t85 30t128 10h96v-156h-92q-73 0 -94 -25t-21 -112v-90h207v-150h-207v-952h-186v952h-154v150h154z" />
    <glyph glyph-name="g" unicode="g" horiz-adv-x="1222" 
d="M889 928v174h186v-955q0 -157 -26 -243t-78 -144q-60 -69 -159 -107t-222 -38q-193 0 -310 85t-143 253h199q19 -82 77.5 -128t178.5 -46q149 0 225 82q24 26 37 48.5t24 72t11 122.5v105q-111 -191 -350 -191q-92 0 -176 37t-149 105t-103.5 174t-38.5 235
q0 128 38.5 234t103.5 174t149 105.5t176 37.5q238 0 350 -192zM897 569q0 101 -25 178.5t-69 123t-98.5 68t-118.5 22.5q-140 0 -226 -103t-86 -289q0 -187 86 -290t226 -103q134 0 222.5 98t88.5 295z" />
    <glyph glyph-name="h" unicode="h" horiz-adv-x="1183" 
d="M334 1485v-549q111 184 356 184q363 0 363 -424v-696h-187v641q0 57 -4.5 99t-19 85.5t-40.5 70.5t-70.5 44.5t-106.5 17.5q-138 0 -214.5 -91.5t-76.5 -268.5v-598h-187v1485h187z" />
    <glyph glyph-name="i" unicode="i" horiz-adv-x="481" 
d="M147 1102h187v-1102h-187v1102zM147 1485h187v-225h-187v225z" />
    <glyph glyph-name="j" unicode="j" horiz-adv-x="481" 
d="M147 -59v1161h187v-1157q0 -90 -10.5 -144.5t-40 -92t-79 -52t-130.5 -14.5h-94v155h53q71 0 92.5 28t21.5 116zM147 1485h187v-225h-187v225z" />
    <glyph glyph-name="k" unicode="k" horiz-adv-x="1034" 
d="M147 1485h187v-879l444 496h230l-420 -457l477 -645h-227l-375 508l-129 -139v-369h-187v1485z" />
    <glyph glyph-name="l" unicode="l" horiz-adv-x="481" 
d="M334 1485v-1485h-187v1485h187z" />
    <glyph glyph-name="m" unicode="m" horiz-adv-x="1841" 
d="M334 598v-598h-187v1102h187v-166q111 184 332 184q240 0 317 -194q125 194 371 194q184 0 270 -112.5t86 -311.5v-696h-186v641q0 56 -5 99t-20 85.5t-40 70.5t-68.5 45t-102.5 17q-124 0 -195 -92t-71 -268v-598h-186v641q0 56 -5 99t-20 85.5t-40 70.5t-68.5 45
t-102.5 17q-124 0 -195 -92t-71 -268z" />
    <glyph glyph-name="n" unicode="n" horiz-adv-x="1183" 
d="M334 1102v-166q111 184 356 184q363 0 363 -424v-696h-187v641q0 57 -4.5 99t-19 85.5t-40.5 70.5t-70.5 44.5t-106.5 17.5q-138 0 -214.5 -91.5t-76.5 -268.5v-598h-187v1102h187z" />
    <glyph glyph-name="o" unicode="o" horiz-adv-x="1208" 
d="M274 547q0 -107 27 -188t74.5 -128.5t105 -70.5t123.5 -23q65 0 123.5 25t105 73.5t74 129t27.5 182.5q0 107 -27 188t-74.5 128t-105 70t-123.5 23q-67 0 -124 -22.5t-104.5 -68.5t-74.5 -127.5t-27 -190.5zM604 1120q79 0 153.5 -21t143 -66.5t120 -111t82 -162
t30.5 -212.5t-30.5 -212.5t-82 -162.5t-120 -111.5t-143 -66.5t-153.5 -21q-99 0 -191 34.5t-168.5 102t-122.5 180.5t-46 257q0 116 30.5 212.5t81.5 162t119.5 111t143 66.5t153.5 21z" />
    <glyph glyph-name="p" unicode="p" horiz-adv-x="1236" 
d="M147 1102h187v-174q112 192 360 192q96 0 181 -39.5t149.5 -111.5t102.5 -181.5t38 -240.5q0 -134 -38 -244t-102.5 -181.5t-149.5 -110t-181 -38.5q-248 0 -360 193v-524h-187v1460zM326 547q0 -105 26.5 -186.5t72 -130t102 -73t120.5 -24.5q145 0 230.5 108t85.5 306
t-85.5 306t-230.5 108q-64 0 -120.5 -24.5t-102 -73t-72 -130t-26.5 -186.5z" />
    <glyph glyph-name="q" unicode="q" horiz-adv-x="1236" 
d="M903 928v174h187v-1460h-187v524q-112 -193 -360 -193q-96 0 -181 38.5t-149.5 110t-102.5 181.5t-38 244q0 131 38 240.5t102.5 181.5t149.5 111.5t181 39.5q248 0 360 -192zM911 547q0 105 -26.5 186.5t-72 130t-102 73t-120.5 24.5q-145 0 -230.5 -108t-85.5 -306
t85.5 -306t230.5 -108q64 0 120.5 24.5t102 73t72 130t26.5 186.5z" />
    <glyph glyph-name="r" unicode="r" horiz-adv-x="727" 
d="M696 1106v-199q-52 8 -104 8q-132 0 -195 -78.5t-63 -258.5v-578h-187v1102h183v-193q41 93 121 143.5t190 55.5q32 0 55 -2z" />
    <glyph glyph-name="s" unicode="s" horiz-adv-x="1075" 
d="M973 780h-195q-43 183 -260 183q-92 0 -161.5 -36t-69.5 -104q0 -63 41.5 -97t126.5 -52l155 -31q65 -12 117 -28t102 -42.5t83.5 -61t54 -85t20.5 -111.5q0 -160 -126.5 -251t-321.5 -91q-104 0 -191 32.5t-145 87t-93 122t-44 141.5h196q49 -225 281 -225q110 0 183 44
t73 120q0 41 -17.5 72.5t-51 52t-69 33.5t-86.5 24l-163 33q-51 11 -91 24.5t-83.5 37.5t-72.5 55.5t-48 79.5t-19 108q0 95 59.5 165.5t159 106t222.5 35.5q181 0 294 -91t140 -251z" />
    <glyph glyph-name="t" unicode="t" horiz-adv-x="665" 
d="M201 1102v276h186v-276h209v-150h-209v-653q0 -90 19 -116.5t96 -26.5h94v-156h-135q-83 0 -130.5 10.5t-78 42t-41 83t-10.5 140.5v676h-174v150h174z" />
    <glyph glyph-name="u" unicode="u" horiz-adv-x="1163" 
d="M829 0v158q-112 -185 -346 -185q-93 0 -161.5 30.5t-110 87.5t-61 133t-19.5 173v705h186v-649q0 -57 4.5 -99t18.5 -85.5t38.5 -71t67.5 -45t103 -17.5q135 0 207.5 91.5t72.5 269.5v606h187v-1102h-187z" />
    <glyph glyph-name="v" unicode="v" horiz-adv-x="997" 
d="M207 1102l299 -844l299 844h192l-415 -1102h-166l-416 1102h207z" />
    <glyph glyph-name="w" unicode="w" horiz-adv-x="1474" 
d="M422 287l219 815h193l219 -815l211 815h200l-317 -1102h-170l-244 887l-235 -887h-170l-318 1102h201z" />
    <glyph glyph-name="x" unicode="x" horiz-adv-x="1064" 
d="M1012 1102l-375 -527l412 -575h-224l-299 420l-297 -420h-213l406 567l-381 535h223l268 -379l271 379h209z" />
    <glyph glyph-name="y" unicode="y" horiz-adv-x="954" 
d="M760 1102h194l-393 -1149q-22 -65 -39.5 -106.5t-41 -79.5t-49 -59t-62.5 -37.5t-82.5 -22.5t-108.5 -6h-96v155h76q43 0 67 2t52.5 11.5t45.5 29t34 53t32 84.5l8 23l-397 1102h207l280 -850z" />
    <glyph glyph-name="z" unicode="z" horiz-adv-x="999" 
d="M68 0v162l637 778h-596v162h813v-162l-635 -778h647v-162h-866z" />
    <glyph glyph-name="braceleft" unicode="{" horiz-adv-x="593" 
d="M573 -358h-96q-96 0 -153.5 14.5t-90.5 52t-44 91.5t-11 145v334q0 52 -5 86t-20.5 64.5t-47.5 45t-82 14.5v150q50 0 82 14.5t47.5 45t20.5 64.5t5 87v332q0 91 11 145t44 91.5t90.5 52t153.5 14.5h96v-158h-92q-72 0 -93 -27.5t-21 -115.5v-338q0 -134 -42 -195.5
t-130 -83.5v-6q88 -22 130 -83t42 -195v-340q0 -88 21 -116t93 -28h92v-157z" />
    <glyph glyph-name="bar" unicode="|" horiz-adv-x="522" 
d="M176 1485h170v-1669h-170v1669z" />
    <glyph glyph-name="braceright" unicode="}" horiz-adv-x="593" 
d="M20 -358v157h93q72 0 93 28t21 116v340q0 134 42 195t130 83v6q-88 22 -130 83.5t-42 195.5v338q0 88 -21 115.5t-93 27.5h-93v158h97q96 0 153.5 -14.5t90.5 -52t44 -91.5t11 -145v-332q0 -53 5 -87t20.5 -64.5t47.5 -45t82 -14.5v-150q-50 0 -82 -14.5t-47.5 -45
t-20.5 -64.5t-5 -86v-334q0 -91 -11 -145t-44 -91.5t-90.5 -52t-153.5 -14.5h-97z" />
    <glyph glyph-name="asciitilde" unicode="~" 
d="M926 586q57 0 96 37.5t45 103.5h174q-11 -137 -94.5 -220t-220.5 -83q-56 0 -123.5 21.5t-119.5 48t-113.5 48t-106.5 21.5q-59 0 -98 -36.5t-43 -102.5h-175q8 137 92.5 220t223.5 83q66 0 137 -22t121 -48.5t107 -48.5t98 -22z" />
    <glyph glyph-name="uni00A0" unicode="&#xa0;" horiz-adv-x="485" 
 />
    <glyph glyph-name="exclamdown" unicode="&#xa1;" horiz-adv-x="501" 
d="M350 68v-426h-198v426l41 600h116zM369 866h-236v236h236v-236z" />
    <glyph glyph-name="cent" unicode="&#xa2;" horiz-adv-x="1118" 
d="M530 1286h95v-166q93 -4 171.5 -39t130 -91t84 -121.5t42.5 -135.5h-189q-19 92 -81.5 151.5t-157.5 69.5v-815q99 10 163 71t84 148h193q-25 -151 -145 -258.5t-295 -124.5v-174h-95v174q-215 17 -336.5 174.5t-121.5 399.5q0 153 53 274.5t157.5 199t247.5 93.5v170z
M274 551q0 -181 70.5 -285t185.5 -125v809q-115 -20 -185.5 -120.5t-70.5 -278.5z" />
    <glyph glyph-name="sterling" unicode="&#xa3;" horiz-adv-x="1169" 
d="M610 1354q-51 0 -98.5 -11.5t-90.5 -36.5t-69 -71t-26 -107q0 -51 19 -111.5t35.5 -95.5t55.5 -110h395v-133h-335q28 -86 28 -152q0 -198 -217 -329l2 -4q76 26 140 26q54 0 171 -40t193 -40q112 0 246 56l55 -162q-46 -27 -127 -47.5t-158 -20.5q-78 0 -211.5 41
t-216.5 41q-69 0 -149.5 -21t-149.5 -61l-61 150q40 18 83 47t92 76t80.5 115t31.5 143q0 90 -37 182h-248v133h186q-36 74 -51.5 108t-33 97.5t-17.5 120.5q0 98 43 172.5t115 117t156 63.5t177 21q234 0 367.5 -131.5t128.5 -347.5h-192q-2 89 -27 153t-68.5 100t-97 52.5
t-119.5 16.5z" />
    <glyph glyph-name="currency" unicode="&#xa4;" horiz-adv-x="1302" 
d="M162 709q0 158 90 284l-141 144l100 100l139 -139q130 100 295 100q172 0 301 -104l146 143l100 -100l-148 -148q91 -132 91 -280q0 -153 -91 -281l148 -145l-100 -101l-146 144q-135 -101 -301 -101q-164 0 -293 99l-141 -142l-100 101l141 143q-90 126 -90 283z
M332 709q0 -140 88.5 -235t222.5 -95q142 0 235 95t93 235q0 144 -93 241t-235 97q-134 0 -222.5 -97.5t-88.5 -240.5z" />
    <glyph glyph-name="yen" unicode="&#xa5;" horiz-adv-x="1234" 
d="M1053 227h-351v-227h-188v227h-334v131h334v156h-334v131h283l-473 840h219l405 -768l414 768h217l-489 -840h297v-131h-351v-156h351v-131z" />
    <glyph glyph-name="brokenbar" unicode="&#xa6;" horiz-adv-x="464" 
d="M147 1485h170v-625h-170v625zM147 440h170v-624h-170v624z" />
    <glyph glyph-name="section" unicode="&#xa7;" horiz-adv-x="1187" 
d="M590 -223q101 0 161 38.5t60 110.5q0 65 -40 110.5t-157 110.5l-266 142q-132 72 -202 156.5t-70 199.5q0 103 75 181.5t191 117.5q-166 108 -166 279q0 71 34.5 127.5t91.5 90.5t127 52t146 18q183 0 295 -88t136 -239h-195q-16 88 -81 130t-163 42q-92 0 -146 -34
t-54 -91q0 -55 36 -96.5t129 -90.5l281 -151q151 -77 226 -156t75 -198q0 -109 -69 -196t-185 -136q71 -53 106 -111.5t35 -140.5q0 -157 -119.5 -245.5t-295.5 -88.5q-196 0 -315 101t-132 280h193q18 -110 79 -167.5t179 -57.5zM717 741l-228 121q-93 -29 -161 -82
t-68 -123q0 -62 37 -108.5t125 -93.5l280 -152l21 -12q205 90 205 215q0 70 -48 121.5t-163 113.5z" />
    <glyph glyph-name="dieresis" unicode="&#xa8;" horiz-adv-x="747" 
d="M45 1282v203h186v-203h-186zM514 1485h188v-203h-188v203z" />
    <glyph glyph-name="copyright" unicode="&#xa9;" horiz-adv-x="1689" 
d="M78 739q0 169 60.5 314t163.5 245t244.5 156.5t299.5 56.5t298.5 -56.5t243.5 -156.5t163.5 -245t60.5 -314q0 -222 -103 -398.5t-277.5 -272t-385.5 -95.5q-158 0 -299.5 56.5t-244.5 155.5t-163.5 243t-60.5 311zM229 739q0 -184 82.5 -328.5t222.5 -222t312 -77.5
q130 0 243.5 45.5t195 126.5t128.5 199t47 257q0 187 -80.5 332.5t-220 224t-313.5 78.5q-128 0 -241.5 -46t-196.5 -128t-131 -201.5t-48 -259.5zM844 465q74 0 129.5 36t77.5 117l155 -40q-35 -107 -127.5 -175.5t-234.5 -68.5q-187 0 -286 111.5t-99 314.5q0 200 103 310
t288 110q141 0 230 -71.5t120 -188.5l-153 -43q-20 84 -74.5 129t-128.5 45q-98 0 -157.5 -73.5t-59.5 -217.5t59.5 -219.5t157.5 -75.5z" />
    <glyph glyph-name="ordfeminine" unicode="&#xaa;" horiz-adv-x="706" 
d="M494 983q-27 -51 -85.5 -75.5t-121.5 -24.5q-107 0 -167.5 49.5t-60.5 130.5q0 59 32.5 101t94 65.5t128.5 35.5t159 19v27q0 119 -131 119q-48 0 -81.5 -27t-37.5 -80h-145q6 95 80.5 155t195.5 60q269 0 269 -264q-5 -118 -5 -182q4 -131 13 -195h-135q-2 39 -2 86z
M307 995q87 0 126.5 43t39.5 115v25q-154 -18 -206 -38.5t-52 -70.5q0 -34 27 -54t65 -20z" />
    <glyph glyph-name="guillemotleft" unicode="&#xab;" horiz-adv-x="1052" 
d="M346 90l-326 469l326 467h201l-307 -467l307 -469h-201zM807 90l-326 469l326 467h201l-308 -467l308 -469h-201z" />
    <glyph glyph-name="logicalnot" unicode="&#xac;" 
d="M999 705h-880v176h1069v-680h-189v504z" />
    <glyph glyph-name="uni00AD" unicode="&#xad;" horiz-adv-x="829" 
d="M739 473h-651v176h651v-176z" />
    <glyph glyph-name="registered" unicode="&#xae;" horiz-adv-x="1689" 
d="M78 739q0 169 60.5 314t163.5 245t244.5 156.5t299.5 56.5t298.5 -56.5t243.5 -156.5t163.5 -245t60.5 -314q0 -222 -103 -398.5t-277.5 -272t-385.5 -95.5q-158 0 -299.5 56.5t-244.5 155.5t-163.5 243t-60.5 311zM229 739q0 -184 82.5 -328.5t222.5 -222t312 -77.5
q130 0 243.5 45.5t195 126.5t128.5 199t47 257q0 187 -80.5 332.5t-220 224t-313.5 78.5q-128 0 -241.5 -46t-196.5 -128t-131 -201.5t-48 -259.5zM1036 360l-166 312h-36h-119v-312h-168v818h250q77 0 133 -6t105.5 -22.5t80.5 -45t48.5 -73.5t17.5 -107q0 -150 -148 -217
l189 -347h-187zM1014 922q0 69 -48.5 95.5t-142.5 26.5h-108v-243h119q95 0 137.5 30t42.5 91z" />
    <glyph glyph-name="overscore" unicode="&#xaf;" horiz-adv-x="704" 
d="M659 1300h-614v154h614v-154z" />
    <glyph glyph-name="degree" unicode="&#xb0;" horiz-adv-x="690" 
d="M45 1210q0 126 87.5 213.5t211.5 87.5q127 0 215 -87.5t88 -213.5q0 -125 -88 -213t-215 -88q-123 0 -211 88.5t-88 212.5zM195 1210q0 -67 42 -114t107 -47q67 0 111.5 47t44.5 114q0 68 -44.5 115t-111.5 47q-65 0 -107 -46.5t-42 -115.5z" />
    <glyph glyph-name="plusminus" unicode="&#xb1;" 
d="M600 772v318h188v-318h441v-176h-441v-320h-188v320h-440v176h440zM1229 0h-1069v176h1069v-176z" />
    <glyph glyph-name="twosuperior" unicode="&#xb2;" horiz-adv-x="712" 
d="M362 1747q121 0 199 -59t78 -162q0 -120 -103.5 -240t-310.5 -260h432v-129h-612v121q232 183 335 293t103 205q0 59 -34 89.5t-93 30.5q-63 0 -104.5 -43t-40.5 -131h-150q-2 129 80 207t221 78z" />
    <glyph glyph-name="threesuperior" unicode="&#xb3;" horiz-adv-x="739" 
d="M365 995q71 0 116 37t45 101q0 75 -49 107t-145 32h-49v121h41q184 0 184 125q0 58 -40 88t-99 30q-72 0 -113.5 -41t-52.5 -116h-144q11 124 95 196t225 72q53 0 101.5 -13t89.5 -39t65 -70t24 -101q0 -60 -32 -109t-84 -76q66 -29 101.5 -83t35.5 -119
q0 -123 -91 -188.5t-227 -65.5q-138 0 -221.5 79.5t-91.5 198.5h144q12 -72 54.5 -119t117.5 -47z" />
    <glyph glyph-name="acute" unicode="&#xb4;" horiz-adv-x="514" 
d="M469 1485l-268 -238h-156l184 238h240z" />
    <glyph glyph-name="mu" unicode="&#xb5;" horiz-adv-x="1175" 
d="M305 -358h-184q22 113 22 323v1137h187v-647q0 -175 56 -246.5t181 -71.5q130 0 201.5 90t71.5 262v613h186v-1102h-186v152q-47 -79 -117 -129t-148 -50q-157 0 -245 123v-114q0 -215 -25 -340z" />
    <glyph glyph-name="mu" unicode="&#x3bc;" horiz-adv-x="1175" 
d="M305 -358h-184q22 113 22 323v1137h187v-647q0 -175 56 -246.5t181 -71.5q130 0 201.5 90t71.5 262v613h186v-1102h-186v152q-47 -79 -117 -129t-148 -50q-157 0 -245 123v-114q0 -215 -25 -340z" />
    <glyph glyph-name="paragraph" unicode="&#xb6;" horiz-adv-x="1067" 
d="M0 1100q0 186 123.5 285.5t370.5 99.5h426v-1667h-156v1523h-248v-1523h-156v919q-70 9 -132.5 35t-114.5 69t-82.5 109.5t-30.5 149.5z" />
    <glyph glyph-name="middot" unicode="&#xb7;" horiz-adv-x="501" 
d="M369 434h-236v236h236v-236z" />
    <glyph glyph-name="cedilla" unicode="&#xb8;" horiz-adv-x="501" 
d="M45 -360l33 81q61 -28 119 -28q51 0 88 15.5t37 49.5q0 29 -26 45.5t-65 16.5q-46 0 -77 -19l-62 35l105 170h108l-65 -104q30 6 61 6q73 0 114.5 -37.5t41.5 -101.5q0 -75 -67.5 -121.5t-153.5 -46.5q-111 0 -191 39z" />
    <glyph glyph-name="onesuperior" unicode="&#xb9;" horiz-adv-x="475" 
d="M360 897h-151v631h-182v102q99 2 145.5 20.5t75.5 82.5h112v-836z" />
    <glyph glyph-name="ordmasculine" unicode="&#xba;" horiz-adv-x="727" 
d="M365 1001q71 0 112 52t41 153t-41 154t-112 53q-68 0 -110 -55t-42 -152q0 -100 41.5 -152.5t110.5 -52.5zM365 883q-61 0 -115 20t-97 58.5t-68.5 101.5t-25.5 143q0 158 89 242t217 84t216.5 -84t88.5 -242q0 -106 -44 -181t-111.5 -108.5t-149.5 -33.5z" />
    <glyph glyph-name="guillemotright" unicode="&#xbb;" horiz-adv-x="1052" 
d="M571 559l-325 -469h-201l309 469l-309 467h201zM1032 559l-325 -469h-201l309 469l-309 467h201z" />
    <glyph glyph-name="onequarter" unicode="&#xbc;" horiz-adv-x="1658" 
d="M360 649h-151v631h-182v102q99 2 145.5 20.5t75.5 82.5h112v-836zM272 0h-206l1024 1485h206zM1331 643l-250 -326h250v326zM1626 317v-124h-143v-193h-152v193h-411v118l413 525h150v-519h143z" />
    <glyph glyph-name="onehalf" unicode="&#xbd;" horiz-adv-x="1597" 
d="M360 649h-151v631h-182v102q99 2 145.5 20.5t75.5 82.5h112v-836zM272 0h-206l1024 1485h206zM1249 850q121 0 199 -59t78 -162q0 -120 -103.5 -240t-310.5 -260h432v-129h-612v121q233 184 335.5 293t102.5 204q0 59 -34.5 90t-92.5 31q-63 0 -104.5 -43t-40.5 -131
h-150q-2 129 80 207t221 78z" />
    <glyph glyph-name="threequarters" unicode="&#xbe;" horiz-adv-x="1923" 
d="M365 748q71 0 116 36.5t45 100.5q0 75 -49 107t-145 32h-49v121h41q184 0 184 125q0 58 -40 88.5t-99 30.5q-143 0 -166 -158h-144q11 124 95 196t225 72q53 0 101.5 -13t89.5 -39t65 -70t24 -101q0 -60 -31.5 -108.5t-84.5 -75.5q66 -28 101.5 -83t35.5 -120
q0 -123 -91 -188.5t-227 -65.5q-138 0 -221.5 79.5t-91.5 198.5h144q11 -72 54 -118.5t118 -46.5zM537 0h-207l1024 1485h207zM1595 643l-249 -326h249v326zM1890 317v-124h-143v-193h-152v193h-411v118l413 525h150v-519h143z" />
    <glyph glyph-name="questiondown" unicode="&#xbf;" horiz-adv-x="1021" 
d="M487 -387q-70 0 -135.5 13t-125 42t-103.5 70t-70 101.5t-26 133.5q0 57 17.5 109.5t39 88t65.5 80t68.5 64.5t77.5 62q11 8 43 31t43 32t32.5 30.5t30 37.5t16 41.5t7.5 54.5v64h190v-70q0 -35 -6.5 -66t-15 -55t-26.5 -48.5t-31.5 -40t-39.5 -37.5t-41 -32.5t-46 -32.5
t-45 -32q-31 -24 -40 -31.5t-35.5 -30t-36 -34.5t-27.5 -35.5t-25 -42.5t-13 -45.5t-6 -54.5q0 -95 75 -149t200 -54q64 0 116 18t84.5 46t55 65.5t32 73.5t11.5 73h186q0 -196 -140.5 -318t-355.5 -122zM676 866h-236v236h236v-236z" />
    <glyph glyph-name="Agrave" unicode="&#xc0;" horiz-adv-x="1351" 
d="M0 0l551 1485h242l559 -1485h-226l-116 322h-682l-115 -322h-213zM666 1274l-275 -774h553zM584 1583l-303 232h264l225 -232h-186z" />
    <glyph glyph-name="Aacute" unicode="&#xc1;" horiz-adv-x="1351" 
d="M0 0l551 1485h242l559 -1485h-226l-116 322h-682l-115 -322h-213zM666 1274l-275 -774h553zM1073 1815l-305 -232h-184l225 232h264z" />
    <glyph glyph-name="Acircumflex" unicode="&#xc2;" horiz-adv-x="1351" 
d="M0 0l551 1485h242l559 -1485h-226l-116 322h-682l-115 -322h-213zM666 1274l-275 -774h553zM764 1815l270 -232h-219l-139 115l-139 -115h-220l277 232h170z" />
    <glyph glyph-name="Atilde" unicode="&#xc3;" horiz-adv-x="1351" 
d="M0 0l551 1485h242l559 -1485h-226l-116 322h-682l-115 -322h-213zM666 1274l-275 -774h553zM811 1720q84 0 96 92h146q-22 -120 -85.5 -175.5t-152.5 -55.5q-53 0 -104.5 24t-95 48t-78.5 24q-84 0 -93 -90h-145q20 115 82.5 172.5t153.5 57.5q42 0 82.5 -15t67 -33.5
t61 -33.5t65.5 -15z" />
    <glyph glyph-name="Adieresis" unicode="&#xc4;" horiz-adv-x="1351" 
d="M0 0l551 1485h242l559 -1485h-226l-116 322h-682l-115 -322h-213zM666 1274l-275 -774h553zM348 1800h187v-203h-187v203zM817 1800h189v-203h-189v203z" />
    <glyph glyph-name="Aring" unicode="&#xc5;" horiz-adv-x="1351" 
d="M0 0l551 1485h242l559 -1485h-226l-116 322h-682l-115 -322h-213zM666 1274l-275 -774h553zM676 1915q79 0 132.5 -48.5t53.5 -125.5q0 -75 -53.5 -124.5t-132.5 -49.5q-78 0 -131 49.5t-53 124.5q0 76 53.5 125t130.5 49zM676 1829q-36 0 -62 -25t-26 -63
q0 -37 26 -61.5t62 -24.5t62 24.5t26 61.5q0 38 -26 63t-62 25z" />
    <glyph glyph-name="AE" unicode="&#xc6;" horiz-adv-x="2150" 
d="M1081 1485h1008v-180h-797v-451h750v-180h-750v-494h797v-180h-1008v317h-624l-228 -317h-229zM1081 1186l-493 -686h493v686z" />
    <glyph glyph-name="Ccedilla" unicode="&#xc7;" horiz-adv-x="1486" 
d="M1219 473h202q-48 -240 -221.5 -370t-421.5 -130q-157 0 -284.5 57t-212.5 159.5t-131 244.5t-46 311q0 228 85 401.5t242 269t364 95.5q234 0 401.5 -132.5t216.5 -366.5h-203q-34 145 -144.5 234t-281.5 89q-204 0 -335.5 -155.5t-131.5 -434.5q0 -277 131.5 -436
t342.5 -159q174 0 282.5 87t145.5 236zM557 -360l33 81q61 -28 119 -28q51 0 88 15.5t37 49.5q0 29 -26 45.5t-65 16.5q-46 0 -77 -19l-62 35l105 170h108l-65 -104q30 6 61 6q73 0 114.5 -37.5t41.5 -101.5q0 -75 -67.5 -121.5t-153.5 -46.5q-111 0 -191 39z" />
    <glyph glyph-name="Egrave" unicode="&#xc8;" horiz-adv-x="1255" 
d="M176 0v1485h1008v-180h-799v-451h752v-180h-752v-494h799v-180h-1008zM629 1583l-303 232h264l225 -232h-186z" />
    <glyph glyph-name="Eacute" unicode="&#xc9;" horiz-adv-x="1255" 
d="M176 0v1485h1008v-180h-799v-451h752v-180h-752v-494h799v-180h-1008zM1077 1815l-305 -232h-184l225 232h264z" />
    <glyph glyph-name="Ecircumflex" unicode="&#xca;" horiz-adv-x="1255" 
d="M176 0v1485h1008v-180h-799v-451h752v-180h-752v-494h799v-180h-1008zM782 1815l271 -232h-219l-140 115l-139 -115h-219l276 232h170z" />
    <glyph glyph-name="Edieresis" unicode="&#xcb;" horiz-adv-x="1255" 
d="M176 0v1485h1008v-180h-799v-451h752v-180h-752v-494h799v-180h-1008zM352 1800h187v-203h-187v203zM821 1800h189v-203h-189v203z" />
    <glyph glyph-name="Igrave" unicode="&#xcc;" horiz-adv-x="561" 
d="M385 1485v-1485h-209v1485h209zM190 1583l-303 232h265l225 -232h-187z" />
    <glyph glyph-name="Iacute" unicode="&#xcd;" horiz-adv-x="561" 
d="M385 1485v-1485h-209v1485h209zM678 1815l-305 -232h-185l226 232h264z" />
    <glyph glyph-name="Icircumflex" unicode="&#xce;" horiz-adv-x="561" 
d="M385 1485v-1485h-209v1485h209zM371 1815l270 -232h-219l-139 115l-140 -115h-219l277 232h170z" />
    <glyph glyph-name="Idieresis" unicode="&#xcf;" horiz-adv-x="561" 
d="M385 1485v-1485h-209v1485h209zM-45 1800h186v-203h-186v203zM424 1800h188v-203h-188v203z" />
    <glyph glyph-name="Eth" unicode="&#xd0;" horiz-adv-x="1492" 
d="M176 1485h406q146 0 265 -23t222 -76.5t173 -137.5t109.5 -212t39.5 -293q0 -166 -39.5 -294t-109.5 -212t-173 -138t-222 -76.5t-265 -22.5h-406v662h-131v184h131v639zM1178 743q0 105 -18 189.5t-47.5 143t-76 101.5t-95.5 68t-113.5 40t-122.5 19.5t-130 4.5h-190
v-463h326v-184h-326v-486h190q72 0 130 4.5t122.5 19.5t113.5 40t95.5 68t76 101.5t47.5 143t18 190.5z" />
    <glyph glyph-name="Ntilde" unicode="&#xd1;" horiz-adv-x="1546" 
d="M1370 0h-305l-680 1268v-1268h-209v1485h307l678 -1264v1264h209v-1485zM948 1720q84 0 96 92h146q-22 -120 -85.5 -175.5t-152.5 -55.5q-53 0 -104.5 24t-95 48t-78.5 24q-83 0 -92 -90h-146q20 115 82.5 172.5t153.5 57.5q42 0 82.5 -15t67 -33.5t61 -33.5t65.5 -15z
" />
    <glyph glyph-name="Ograve" unicode="&#xd2;" horiz-adv-x="1601" 
d="M317 743q0 -140 37.5 -253.5t103 -187t153 -113t190.5 -39.5q210 0 346.5 157.5t136.5 435.5t-136.5 435t-346.5 157q-103 0 -190.5 -39t-153 -112.5t-103 -187t-37.5 -253.5zM1497 743q0 -224 -84.5 -398t-243.5 -273t-368 -99t-368.5 99t-244 273t-84.5 398
q0 167 49.5 309t139 243.5t220.5 158.5t288 57q209 0 368 -98.5t243.5 -272t84.5 -397.5zM709 1583l-303 232h264l225 -232h-186z" />
    <glyph glyph-name="Oacute" unicode="&#xd3;" horiz-adv-x="1601" 
d="M317 743q0 -140 37.5 -253.5t103 -187t153 -113t190.5 -39.5q210 0 346.5 157.5t136.5 435.5t-136.5 435t-346.5 157q-103 0 -190.5 -39t-153 -112.5t-103 -187t-37.5 -253.5zM1497 743q0 -224 -84.5 -398t-243.5 -273t-368 -99t-368.5 99t-244 273t-84.5 398
q0 167 49.5 309t139 243.5t220.5 158.5t288 57q209 0 368 -98.5t243.5 -272t84.5 -397.5zM1198 1815l-305 -232h-184l225 232h264z" />
    <glyph glyph-name="Ocircumflex" unicode="&#xd4;" horiz-adv-x="1601" 
d="M317 743q0 -140 37.5 -253.5t103 -187t153 -113t190.5 -39.5q210 0 346.5 157.5t136.5 435.5t-136.5 435t-346.5 157q-103 0 -190.5 -39t-153 -112.5t-103 -187t-37.5 -253.5zM1497 743q0 -224 -84.5 -398t-243.5 -273t-368 -99t-368.5 99t-244 273t-84.5 398
q0 167 49.5 309t139 243.5t220.5 158.5t288 57q209 0 368 -98.5t243.5 -272t84.5 -397.5zM889 1815l270 -232h-219l-139 115l-139 -115h-220l277 232h170z" />
    <glyph glyph-name="Otilde" unicode="&#xd5;" horiz-adv-x="1601" 
d="M317 743q0 -140 37.5 -253.5t103 -187t153 -113t190.5 -39.5q210 0 346.5 157.5t136.5 435.5t-136.5 435t-346.5 157q-103 0 -190.5 -39t-153 -112.5t-103 -187t-37.5 -253.5zM1497 743q0 -224 -84.5 -398t-243.5 -273t-368 -99t-368.5 99t-244 273t-84.5 398
q0 167 49.5 309t139 243.5t220.5 158.5t288 57q209 0 368 -98.5t243.5 -272t84.5 -397.5zM936 1720q84 0 96 92h146q-22 -120 -85.5 -175.5t-152.5 -55.5q-53 0 -104.5 24t-95 48t-78.5 24q-84 0 -93 -90h-145q20 115 82 172.5t153 57.5q42 0 82.5 -15t67.5 -33.5
t61.5 -33.5t65.5 -15z" />
    <glyph glyph-name="Odieresis" unicode="&#xd6;" horiz-adv-x="1601" 
d="M317 743q0 -140 37.5 -253.5t103 -187t153 -113t190.5 -39.5q210 0 346.5 157.5t136.5 435.5t-136.5 435t-346.5 157q-103 0 -190.5 -39t-153 -112.5t-103 -187t-37.5 -253.5zM1497 743q0 -224 -84.5 -398t-243.5 -273t-368 -99t-368.5 99t-244 273t-84.5 398
q0 167 49.5 309t139 243.5t220.5 158.5t288 57q209 0 368 -98.5t243.5 -272t84.5 -397.5zM473 1800h186v-203h-186v203zM942 1800h188v-203h-188v203z" />
    <glyph glyph-name="multiply" unicode="&#xd7;" 
d="M1176 195l-132 -134l-356 355l-342 -340l-133 131l344 342l-344 346l133 131l342 -342l344 340l133 -131l-344 -344z" />
    <glyph glyph-name="Oslash" unicode="&#xd8;" horiz-adv-x="1599" 
d="M1497 743q0 -224 -84.5 -398t-243.5 -273t-368 -99q-274 0 -451 160l-137 -162l-82 74l141 166q-168 211 -168 532q0 167 49.5 309t139 243.5t220.5 158.5t288 57q264 0 448 -157l119 141l82 -72l-125 -147q172 -202 172 -533zM1284 743q0 222 -94 375l-713 -837
q125 -131 324 -131q210 0 346.5 157.5t136.5 435.5zM317 743q0 -219 91 -372l714 835q-132 129 -321 129q-103 0 -190.5 -39t-153 -112.5t-103 -187t-37.5 -253.5z" />
    <glyph glyph-name="Ugrave" unicode="&#xd9;" horiz-adv-x="1497" 
d="M154 1485h208v-903q0 -223 88.5 -325.5t294.5 -102.5q208 0 299 111.5t91 338.5v881h208v-864q0 -332 -140 -490t-458 -158q-157 0 -266.5 33.5t-183 108.5t-107.5 195t-34 294v881zM655 1583l-303 232h264l226 -232h-187z" />
    <glyph glyph-name="Uacute" unicode="&#xda;" horiz-adv-x="1497" 
d="M154 1485h208v-903q0 -223 88.5 -325.5t294.5 -102.5q208 0 299 111.5t91 338.5v881h208v-864q0 -332 -140 -490t-458 -158q-157 0 -266.5 33.5t-183 108.5t-107.5 195t-34 294v881zM1124 1815l-305 -232h-184l225 232h264z" />
    <glyph glyph-name="Ucircumflex" unicode="&#xdb;" horiz-adv-x="1497" 
d="M154 1485h208v-903q0 -223 88.5 -325.5t294.5 -102.5q208 0 299 111.5t91 338.5v881h208v-864q0 -332 -140 -490t-458 -158q-157 0 -266.5 33.5t-183 108.5t-107.5 195t-34 294v881zM836 1815l270 -232h-219l-139 115l-140 -115h-219l277 232h170z" />
    <glyph glyph-name="Udieresis" unicode="&#xdc;" horiz-adv-x="1497" 
d="M154 1485h208v-903q0 -223 88.5 -325.5t294.5 -102.5q208 0 299 111.5t91 338.5v881h208v-864q0 -332 -140 -490t-458 -158q-157 0 -266.5 33.5t-183 108.5t-107.5 195t-34 294v881zM420 1800h186v-203h-186v203zM889 1800h188v-203h-188v203z" />
    <glyph glyph-name="Yacute" unicode="&#xdd;" horiz-adv-x="1277" 
d="M0 1485h229l406 -725l414 725h229l-545 -910v-575h-209v580zM995 1815l-305 -232h-184l225 232h264z" />
    <glyph glyph-name="Thorn" unicode="&#xde;" horiz-adv-x="1269" 
d="M385 1227h223q114 0 203 -12.5t169 -44t132 -82.5t82.5 -132.5t30.5 -189.5t-30.5 -188.5t-82.5 -131.5t-132 -82.5t-169 -44t-203 -12.5h-223v-307h-209v1485h209v-258zM623 1042h-238v-550h238q73 0 126 5.5t105.5 22t85 46t52.5 80t20 120.5q0 71 -20 122t-52.5 80.5
t-85 46.5t-105 22t-126.5 5z" />
    <glyph glyph-name="germandbls" unicode="&#xdf;" horiz-adv-x="1296" 
d="M334 0h-187v1006q0 249 113 362q130 141 412 141q202 0 332.5 -96t130.5 -256q0 -231 -224 -321q142 -35 226 -132.5t84 -265.5q0 -101 -30.5 -181t-81.5 -132.5t-122 -87t-148.5 -49.5t-164.5 -15q-105 0 -223 23l41 176q95 -31 190 -31q68 0 126 15t107 47.5t77 92
t28 140.5q0 297 -416 297h-6v170h4q165 0 254.5 60.5t89.5 171.5q0 99 -76.5 160t-199.5 61q-199 0 -273 -101q-63 -76 -63 -249v-1006z" />
    <glyph glyph-name="agrave" unicode="&#xe0;" horiz-adv-x="1144" 
d="M842 461v69q-109 -11 -188.5 -22.5t-151.5 -30.5t-116.5 -43t-70.5 -59t-26 -80q0 -79 57 -126.5t156 -47.5q55 0 102.5 10t92 35t76 63t50.5 97t19 135zM461 -27q-162 0 -270.5 85.5t-108.5 232.5q0 64 23 115.5t70.5 90t109 67t150 50t180 36.5t212.5 28v27
q0 268 -249 268q-116 0 -181 -57.5t-71 -161.5h-193q6 86 46 157.5t101.5 117t137.5 70.5t157 25q231 0 336 -109t103 -345l-2 -254q-3 -276 28 -416h-188q-12 81 -14 152q-53 -89 -143 -134t-234 -45zM504 1247l-266 238h237l187 -238h-158z" />
    <glyph glyph-name="aacute" unicode="&#xe1;" horiz-adv-x="1144" 
d="M842 461v69q-109 -11 -188.5 -22.5t-151.5 -30.5t-116.5 -43t-70.5 -59t-26 -80q0 -79 57 -126.5t156 -47.5q55 0 102.5 10t92 35t76 63t50.5 97t19 135zM461 -27q-162 0 -270.5 85.5t-108.5 232.5q0 64 23 115.5t70.5 90t109 67t150 50t180 36.5t212.5 28v27
q0 268 -249 268q-116 0 -181 -57.5t-71 -161.5h-193q6 86 46 157.5t101.5 117t137.5 70.5t157 25q231 0 336 -109t103 -345l-2 -254q-3 -276 28 -416h-188q-12 81 -14 152q-53 -89 -143 -134t-234 -45zM907 1485l-268 -238h-156l185 238h239z" />
    <glyph glyph-name="acircumflex" unicode="&#xe2;" horiz-adv-x="1144" 
d="M842 461v69q-109 -11 -188.5 -22.5t-151.5 -30.5t-116.5 -43t-70.5 -59t-26 -80q0 -79 57 -126.5t156 -47.5q55 0 102.5 10t92 35t76 63t50.5 97t19 135zM461 -27q-162 0 -270.5 85.5t-108.5 232.5q0 64 23 115.5t70.5 90t109 67t150 50t180 36.5t212.5 28v27
q0 268 -249 268q-116 0 -181 -57.5t-71 -161.5h-193q6 86 46 157.5t101.5 117t137.5 70.5t157 25q231 0 336 -109t103 -345l-2 -254q-3 -276 28 -416h-188q-12 81 -14 152q-53 -89 -143 -134t-234 -45zM676 1485l264 -238h-197l-161 111l-162 -111h-197l271 238h182z" />
    <glyph glyph-name="atilde" unicode="&#xe3;" horiz-adv-x="1144" 
d="M842 461v69q-109 -11 -188.5 -22.5t-151.5 -30.5t-116.5 -43t-70.5 -59t-26 -80q0 -79 57 -126.5t156 -47.5q55 0 102.5 10t92 35t76 63t50.5 97t19 135zM461 -27q-162 0 -270.5 85.5t-108.5 232.5q0 64 23 115.5t70.5 90t109 67t150 50t180 36.5t212.5 28v27
q0 268 -249 268q-116 0 -181 -57.5t-71 -161.5h-193q6 86 46 157.5t101.5 117t137.5 70.5t157 25q231 0 336 -109t103 -345l-2 -254q-3 -276 28 -416h-188q-12 81 -14 152q-53 -89 -143 -134t-234 -45zM696 1393q85 0 97 92h145q-22 -120 -85.5 -176t-152.5 -56
q-42 0 -84 15.5t-70 34t-62 34t-62 15.5q-83 0 -92 -90h-146q20 115 82.5 172t153.5 57q53 0 102 -24.5t92.5 -49t81.5 -24.5z" />
    <glyph glyph-name="adieresis" unicode="&#xe4;" horiz-adv-x="1144" 
d="M842 461v69q-109 -11 -188.5 -22.5t-151.5 -30.5t-116.5 -43t-70.5 -59t-26 -80q0 -79 57 -126.5t156 -47.5q55 0 102.5 10t92 35t76 63t50.5 97t19 135zM461 -27q-162 0 -270.5 85.5t-108.5 232.5q0 64 23 115.5t70.5 90t109 67t150 50t180 36.5t212.5 28v27
q0 268 -249 268q-116 0 -181 -57.5t-71 -161.5h-193q6 86 46 157.5t101.5 117t137.5 70.5t157 25q231 0 336 -109t103 -345l-2 -254q-3 -276 28 -416h-188q-12 81 -14 152q-53 -89 -143 -134t-234 -45zM233 1282v203h187v-203h-187zM702 1485h189v-203h-189v203z" />
    <glyph glyph-name="aring" unicode="&#xe5;" horiz-adv-x="1144" 
d="M842 461v69q-109 -11 -188.5 -22.5t-151.5 -30.5t-116.5 -43t-70.5 -59t-26 -80q0 -79 57 -126.5t156 -47.5q55 0 102.5 10t92 35t76 63t50.5 97t19 135zM461 -27q-162 0 -270.5 85.5t-108.5 232.5q0 64 23 115.5t70.5 90t109 67t150 50t180 36.5t212.5 28v27
q0 268 -249 268q-116 0 -181 -57.5t-71 -161.5h-193q6 86 46 157.5t101.5 117t137.5 70.5t157 25q231 0 336 -109t103 -345l-2 -254q-3 -276 28 -416h-188q-12 81 -14 152q-53 -89 -143 -134t-234 -45zM582 1577q79 0 132.5 -48.5t53.5 -125.5q0 -75 -53.5 -124.5
t-132.5 -49.5q-78 0 -131.5 49.5t-53.5 124.5q0 76 54 125t131 49zM582 1491q-36 0 -62 -25t-26 -63q0 -36 26 -61t62 -25t62 25t26 61q0 38 -26 63t-62 25z" />
    <glyph glyph-name="ae" unicode="&#xe6;" horiz-adv-x="1945" 
d="M461 -27q-162 0 -270.5 85.5t-108.5 232.5q0 64 23 115.5t70.5 90t109 67t150 50t180 36.5t212.5 28v27q0 268 -249 268q-116 0 -181 -57.5t-71 -161.5h-193q6 86 46 157.5t101.5 117t137.5 70.5t157 25q294 0 388 -190q148 186 399 186q165 0 287 -85t180.5 -228
t46.5 -318h-848q2 -86 32.5 -155t79.5 -111t107.5 -64t120.5 -22q223 0 301 182h193q-39 -149 -170 -247.5t-324 -98.5q-296 0 -440 230q-68 -118 -192 -174t-275 -56zM842 461v63v6q-109 -11 -188.5 -22.5t-151.5 -30.5t-116.5 -43t-70.5 -59t-26 -80q0 -79 57 -126.5
t156 -47.5q55 0 102.5 10t92 35t76 63t50.5 97t19 135zM1362 961q-63 0 -119 -18t-102 -54.5t-75.5 -98t-35.5 -141.5h649q-3 80 -39.5 150t-109.5 116t-168 46z" />
    <glyph glyph-name="ccedilla" unicode="&#xe7;" horiz-adv-x="1140" 
d="M604 1120q97 0 181 -34t141 -89.5t93 -123.5t46 -140h-188q-20 99 -98.5 161t-186.5 62q-63 0 -119 -25t-101 -73.5t-71.5 -127.5t-26.5 -179q0 -198 93 -306t225 -108q113 0 192 64.5t101 156.5h192q-30 -161 -166.5 -273t-324.5 -112q-235 0 -374.5 160.5t-139.5 415.5
q0 250 145 410.5t387 160.5zM350 -360l33 81q61 -28 119 -28q51 0 88 15.5t37 49.5q0 30 -25.5 46t-64.5 16q-47 0 -78 -19l-62 35l105 170h108l-65 -104q30 6 61 6q73 0 114.5 -37.5t41.5 -101.5q0 -75 -67.5 -121.5t-153.5 -46.5q-111 0 -191 39z" />
    <glyph glyph-name="egrave" unicode="&#xe8;" horiz-adv-x="1189" 
d="M1120 489h-848q2 -86 32.5 -155t79.5 -111t107.5 -64t120.5 -22q223 0 301 182h193q-39 -149 -170 -247.5t-324 -98.5q-169 0 -293 76.5t-185.5 205.5t-61.5 294q0 171 71 302t191.5 200t271.5 69q165 0 287 -85t180.5 -228t46.5 -318zM606 961q-63 0 -119 -18
t-102 -54.5t-75.5 -98t-35.5 -141.5h650q-2 59 -24.5 114.5t-61.5 100t-99.5 71t-132.5 26.5zM512 1247l-266 238h237l187 -238h-158z" />
    <glyph glyph-name="eacute" unicode="&#xe9;" horiz-adv-x="1189" 
d="M1120 489h-848q2 -86 32.5 -155t79.5 -111t107.5 -64t120.5 -22q223 0 301 182h193q-39 -149 -170 -247.5t-324 -98.5q-169 0 -293 76.5t-185.5 205.5t-61.5 294q0 171 71 302t191.5 200t271.5 69q165 0 287 -85t180.5 -228t46.5 -318zM606 961q-63 0 -119 -18
t-102 -54.5t-75.5 -98t-35.5 -141.5h650q-2 59 -24.5 114.5t-61.5 100t-99.5 71t-132.5 26.5zM936 1485l-268 -238h-156l184 238h240z" />
    <glyph glyph-name="ecircumflex" unicode="&#xea;" horiz-adv-x="1189" 
d="M1120 489h-848q2 -86 32.5 -155t79.5 -111t107.5 -64t120.5 -22q223 0 301 182h193q-39 -149 -170 -247.5t-324 -98.5q-169 0 -293 76.5t-185.5 205.5t-61.5 294q0 171 71 302t191.5 200t271.5 69q165 0 287 -85t180.5 -228t46.5 -318zM606 961q-63 0 -119 -18
t-102 -54.5t-75.5 -98t-35.5 -141.5h650q-2 59 -24.5 114.5t-61.5 100t-99.5 71t-132.5 26.5zM684 1485l264 -238h-196l-162 111l-162 -111h-197l271 238h182z" />
    <glyph glyph-name="edieresis" unicode="&#xeb;" horiz-adv-x="1189" 
d="M1120 489h-848q2 -86 32.5 -155t79.5 -111t107.5 -64t120.5 -22q223 0 301 182h193q-39 -149 -170 -247.5t-324 -98.5q-169 0 -293 76.5t-185.5 205.5t-61.5 294q0 171 71 302t191.5 200t271.5 69q165 0 287 -85t180.5 -228t46.5 -318zM606 961q-63 0 -119 -18
t-102 -54.5t-75.5 -98t-35.5 -141.5h650q-2 59 -24.5 114.5t-61.5 100t-99.5 71t-132.5 26.5zM262 1282v203h187v-203h-187zM731 1485h189v-203h-189v203z" />
    <glyph glyph-name="igrave" unicode="&#xec;" horiz-adv-x="481" 
d="M147 1102h187v-1102h-187v1102zM164 1247l-266 238h237l187 -238h-158z" />
    <glyph glyph-name="iacute" unicode="&#xed;" horiz-adv-x="481" 
d="M147 1102h187v-1102h-187v1102zM586 1485l-269 -238h-155l184 238h240z" />
    <glyph glyph-name="icircumflex" unicode="&#xee;" horiz-adv-x="481" 
d="M147 1102h187v-1102h-187v1102zM336 1485l264 -238h-197l-161 111l-162 -111h-197l271 238h182z" />
    <glyph glyph-name="idieresis" unicode="&#xef;" horiz-adv-x="481" 
d="M147 1102h187v-1102h-187v1102zM-86 1282v203h186v-203h-186zM383 1485h188v-203h-188v203z" />
    <glyph glyph-name="eth" unicode="&#xf0;" horiz-adv-x="1173" 
d="M657 1444l144 88l94 -53l-156 -97q348 -290 348 -735q0 -329 -140 -501.5t-376 -172.5q-231 0 -365 155t-134 421q0 260 133.5 415.5t341.5 155.5q196 0 315 -162l2 3q-89 197 -280 327l-152 -92l-92 49l160 98q-55 32 -162 82l135 123q104 -51 184 -104zM573 133
q139 0 225.5 106.5t86.5 309.5q0 200 -88 306t-224 106q-145 0 -222 -109.5t-77 -302.5q0 -196 76 -306t223 -110z" />
    <glyph glyph-name="ntilde" unicode="&#xf1;" horiz-adv-x="1183" 
d="M334 1102v-166q111 184 356 184q363 0 363 -424v-696h-187v641q0 57 -4.5 99t-19 85.5t-40.5 70.5t-70.5 44.5t-106.5 17.5q-138 0 -214.5 -91.5t-76.5 -268.5v-598h-187v1102h187zM756 1393q84 0 96 92h145q-22 -121 -85.5 -176.5t-151.5 -55.5q-42 0 -84 15.5t-70 34
t-62.5 34t-62.5 15.5q-83 0 -92 -90h-145q20 115 82 172t153 57q42 0 82.5 -15.5t67.5 -33.5t61.5 -33.5t65.5 -15.5z" />
    <glyph glyph-name="ograve" unicode="&#xf2;" horiz-adv-x="1208" 
d="M274 547q0 -107 27 -188t74.5 -128.5t105 -70.5t123.5 -23q65 0 123.5 25t105 73.5t74 129t27.5 182.5q0 107 -27 188t-74.5 128t-105 70t-123.5 23q-67 0 -124 -22.5t-104.5 -68.5t-74.5 -127.5t-27 -190.5zM604 1120q79 0 153.5 -21t143 -66.5t120 -111t82 -162
t30.5 -212.5t-30.5 -212.5t-82 -162.5t-120 -111.5t-143 -66.5t-153.5 -21q-99 0 -191 34.5t-168.5 102t-122.5 180.5t-46 257q0 116 30.5 212.5t81.5 162t119.5 111t143 66.5t153.5 21zM520 1247l-266 238h238l186 -238h-158z" />
    <glyph glyph-name="oacute" unicode="&#xf3;" horiz-adv-x="1208" 
d="M274 547q0 -107 27 -188t74.5 -128.5t105 -70.5t123.5 -23q65 0 123.5 25t105 73.5t74 129t27.5 182.5q0 107 -27 188t-74.5 128t-105 70t-123.5 23q-67 0 -124 -22.5t-104.5 -68.5t-74.5 -127.5t-27 -190.5zM604 1120q79 0 153.5 -21t143 -66.5t120 -111t82 -162
t30.5 -212.5t-30.5 -212.5t-82 -162.5t-120 -111.5t-143 -66.5t-153.5 -21q-99 0 -191 34.5t-168.5 102t-122.5 180.5t-46 257q0 116 30.5 212.5t81.5 162t119.5 111t143 66.5t153.5 21zM944 1485l-268 -238h-156l185 238h239z" />
    <glyph glyph-name="ocircumflex" unicode="&#xf4;" horiz-adv-x="1208" 
d="M274 547q0 -107 27 -188t74.5 -128.5t105 -70.5t123.5 -23q65 0 123.5 25t105 73.5t74 129t27.5 182.5q0 107 -27 188t-74.5 128t-105 70t-123.5 23q-67 0 -124 -22.5t-104.5 -68.5t-74.5 -127.5t-27 -190.5zM604 1120q79 0 153.5 -21t143 -66.5t120 -111t82 -162
t30.5 -212.5t-30.5 -212.5t-82 -162.5t-120 -111.5t-143 -66.5t-153.5 -21q-99 0 -191 34.5t-168.5 102t-122.5 180.5t-46 257q0 116 30.5 212.5t81.5 162t119.5 111t143 66.5t153.5 21zM692 1485l264 -238h-196l-162 111l-162 -111h-196l270 238h182z" />
    <glyph glyph-name="otilde" unicode="&#xf5;" horiz-adv-x="1208" 
d="M274 547q0 -107 27 -188t74.5 -128.5t105 -70.5t123.5 -23q65 0 123.5 25t105 73.5t74 129t27.5 182.5q0 107 -27 188t-74.5 128t-105 70t-123.5 23q-67 0 -124 -22.5t-104.5 -68.5t-74.5 -127.5t-27 -190.5zM604 1120q79 0 153.5 -21t143 -66.5t120 -111t82 -162
t30.5 -212.5t-30.5 -212.5t-82 -162.5t-120 -111.5t-143 -66.5t-153.5 -21q-99 0 -191 34.5t-168.5 102t-122.5 180.5t-46 257q0 116 30.5 212.5t81.5 162t119.5 111t143 66.5t153.5 21zM733 1393q84 0 96 92h146q-22 -120 -85.5 -176t-152.5 -56q-42 0 -84 15.5t-70 34
t-62 34t-62 15.5q-83 0 -92 -90h-146q20 115 82.5 172t153.5 57q53 0 102 -24.5t92.5 -49t81.5 -24.5z" />
    <glyph glyph-name="odieresis" unicode="&#xf6;" horiz-adv-x="1208" 
d="M274 547q0 -107 27 -188t74.5 -128.5t105 -70.5t123.5 -23q65 0 123.5 25t105 73.5t74 129t27.5 182.5q0 107 -27 188t-74.5 128t-105 70t-123.5 23q-67 0 -124 -22.5t-104.5 -68.5t-74.5 -127.5t-27 -190.5zM604 1120q79 0 153.5 -21t143 -66.5t120 -111t82 -162
t30.5 -212.5t-30.5 -212.5t-82 -162.5t-120 -111.5t-143 -66.5t-153.5 -21q-99 0 -191 34.5t-168.5 102t-122.5 180.5t-46 257q0 116 30.5 212.5t81.5 162t119.5 111t143 66.5t153.5 21zM270 1282v203h187v-203h-187zM739 1485h189v-203h-189v203z" />
    <glyph glyph-name="divide" unicode="&#xf7;" 
d="M582 66v235h235v-235h-235zM582 778v236h235v-236h-235zM1229 440h-1069v176h1069v-176z" />
    <glyph glyph-name="oslash" unicode="&#xf8;" horiz-adv-x="1208" 
d="M604 1120q186 0 326 -108l78 88l84 -72l-82 -94q123 -153 123 -387q0 -116 -30.5 -212.5t-82 -162.5t-120 -111.5t-143 -66.5t-153.5 -21q-191 0 -334 113l-98 -113l-80 74l103 117q-119 148 -119 383q0 116 30.5 212.5t81.5 162t119.5 111t143 66.5t153.5 21zM934 547
q0 137 -51 241l-496 -569q91 -82 217 -82q65 0 123.5 25t105 73.5t74 129t27.5 182.5zM274 547q0 -145 48 -236l493 566q-85 79 -211 79q-67 0 -124 -22.5t-104.5 -68.5t-74.5 -127.5t-27 -190.5z" />
    <glyph glyph-name="ugrave" unicode="&#xf9;" horiz-adv-x="1163" 
d="M829 0v158q-112 -185 -346 -185q-93 0 -161.5 30.5t-110 87.5t-61 133t-19.5 173v705h186v-649q0 -57 4.5 -99t18.5 -85.5t38.5 -71t67.5 -45t103 -17.5q135 0 207.5 91.5t72.5 269.5v606h187v-1102h-187zM543 1247l-267 238h238l186 -238h-157z" />
    <glyph glyph-name="uacute" unicode="&#xfa;" horiz-adv-x="1163" 
d="M829 0v158q-112 -185 -346 -185q-93 0 -161.5 30.5t-110 87.5t-61 133t-19.5 173v705h186v-649q0 -57 4.5 -99t18.5 -85.5t38.5 -71t67.5 -45t103 -17.5q135 0 207.5 91.5t72.5 269.5v606h187v-1102h-187zM926 1485l-269 -238h-155l184 238h240z" />
    <glyph glyph-name="ucircumflex" unicode="&#xfb;" horiz-adv-x="1163" 
d="M829 0v158q-112 -185 -346 -185q-93 0 -161.5 30.5t-110 87.5t-61 133t-19.5 173v705h186v-649q0 -57 4.5 -99t18.5 -85.5t38.5 -71t67.5 -45t103 -17.5q135 0 207.5 91.5t72.5 269.5v606h187v-1102h-187zM674 1485l264 -238h-197l-161 111l-162 -111h-197l271 238h182z
" />
    <glyph glyph-name="udieresis" unicode="&#xfc;" horiz-adv-x="1163" 
d="M829 0v158q-112 -185 -346 -185q-93 0 -161.5 30.5t-110 87.5t-61 133t-19.5 173v705h186v-649q0 -57 4.5 -99t18.5 -85.5t38.5 -71t67.5 -45t103 -17.5q135 0 207.5 91.5t72.5 269.5v606h187v-1102h-187zM252 1282v203h186v-203h-186zM721 1485h188v-203h-188v203z" />
    <glyph glyph-name="yacute" unicode="&#xfd;" horiz-adv-x="954" 
d="M760 1102h194l-393 -1149q-22 -65 -39.5 -106.5t-41 -79.5t-49 -59t-62.5 -37.5t-82.5 -22.5t-108.5 -6h-96v155h76q43 0 67 2t52.5 11.5t45.5 29t34 53t32 84.5l8 23l-397 1102h207l280 -850zM817 1485l-268 -238h-156l185 238h239z" />
    <glyph glyph-name="thorn" unicode="&#xfe;" horiz-adv-x="1230" 
d="M334 1485v-557q112 192 360 192q95 0 179.5 -39.5t148.5 -111.5t101.5 -181.5t37.5 -240.5q0 -134 -37.5 -244t-101.5 -181.5t-148.5 -110t-179.5 -38.5q-248 0 -360 193v-524h-187v1843h187zM326 547q0 -105 26.5 -186.5t72 -130t102 -73t120.5 -24.5q145 0 230.5 108
t85.5 306t-85.5 306t-230.5 108q-64 0 -120.5 -24.5t-102 -73t-72 -130t-26.5 -186.5z" />
    <glyph glyph-name="ydieresis" unicode="&#xff;" horiz-adv-x="954" 
d="M760 1102h194l-393 -1149q-22 -65 -39.5 -106.5t-41 -79.5t-49 -59t-62.5 -37.5t-82.5 -22.5t-108.5 -6h-96v155h76q43 0 67 2t52.5 11.5t45.5 29t34 53t32 84.5l8 23l-397 1102h207l280 -850zM150 1282v203h186v-203h-186zM618 1485h189v-203h-189v203z" />
    <glyph glyph-name="Amacron" unicode="&#x100;" horiz-adv-x="1351" 
d="M0 0l551 1485h242l559 -1485h-226l-116 322h-682l-115 -322h-213zM666 1274l-275 -774h553zM983 1620h-614v154h614v-154z" />
    <glyph glyph-name="amacron" unicode="&#x101;" horiz-adv-x="1144" 
d="M842 461v69q-109 -11 -188.5 -22.5t-151.5 -30.5t-116.5 -43t-70.5 -59t-26 -80q0 -79 57 -126.5t156 -47.5q55 0 102.5 10t92 35t76 63t50.5 97t19 135zM461 -27q-162 0 -270.5 85.5t-108.5 232.5q0 64 23 115.5t70.5 90t109 67t150 50t180 36.5t212.5 28v27
q0 268 -249 268q-116 0 -181 -57.5t-71 -161.5h-193q6 86 46 157.5t101.5 117t137.5 70.5t157 25q231 0 336 -109t103 -345l-2 -254q-3 -276 28 -416h-188q-12 81 -14 152q-53 -89 -143 -134t-234 -45zM889 1300h-615v154h615v-154z" />
    <glyph glyph-name="Abreve" unicode="&#x102;" horiz-adv-x="1351" 
d="M0 0l551 1485h242l559 -1485h-226l-116 322h-682l-115 -322h-213zM666 1274l-275 -774h553zM842 1815h157q-13 -112 -93.5 -178t-231.5 -66q-147 0 -226.5 66t-93.5 178h158q18 -119 164 -119q145 0 166 119z" />
    <glyph glyph-name="abreve" unicode="&#x103;" horiz-adv-x="1144" 
d="M842 461v69q-109 -11 -188.5 -22.5t-151.5 -30.5t-116.5 -43t-70.5 -59t-26 -80q0 -79 57 -126.5t156 -47.5q55 0 102.5 10t92 35t76 63t50.5 97t19 135zM461 -27q-162 0 -270.5 85.5t-108.5 232.5q0 64 23 115.5t70.5 90t109 67t150 50t180 36.5t212.5 28v27
q0 268 -249 268q-116 0 -181 -57.5t-71 -161.5h-193q6 86 46 157.5t101.5 117t137.5 70.5t157 25q231 0 336 -109t103 -345l-2 -254q-3 -276 28 -416h-188q-12 81 -14 152q-53 -89 -143 -134t-234 -45zM762 1485h145q-6 -50 -25.5 -91.5t-56 -78t-99 -57.5t-146.5 -21
q-80 0 -142 21t-99 57t-57 79t-24 91h145q7 -55 50.5 -90t128.5 -35t129 35t51 90z" />
    <glyph glyph-name="Aogonek" unicode="&#x104;" horiz-adv-x="1351" 
d="M0 0l551 1485h242l559 -1485q-88 -43 -134.5 -81.5t-46.5 -82.5q0 -47 27.5 -69.5t69.5 -22.5q44 0 84 18v-124q-58 -23 -123 -23q-43 0 -82 10.5t-72.5 32.5t-53.5 61t-20 91q0 58 31 101.5t94 88.5l-116 322h-682l-115 -322h-213zM666 1274l-275 -774h553z" />
    <glyph glyph-name="aogonek" unicode="&#x105;" horiz-adv-x="1144" 
d="M842 461v69q-109 -11 -188.5 -22.5t-151.5 -30.5t-116.5 -43t-70.5 -59t-26 -80q0 -79 57 -126.5t156 -47.5q55 0 102.5 10t92 35t76 63t50.5 97t19 135zM852 0q-12 81 -14 152q-53 -89 -143 -134t-234 -45q-162 0 -270.5 85.5t-108.5 232.5q0 64 23 115.5t70.5 90
t109 67t150 50t180 36.5t212.5 28v27q0 268 -249 268q-116 0 -181 -57.5t-71 -161.5h-193q6 86 46 157.5t101.5 117t137.5 70.5t157 25q231 0 336 -109t103 -345l-2 -254q-3 -276 28 -416q-198 -82 -198 -172q0 -82 112 -82q40 0 86 12v-125q-56 -18 -131 -18q-35 0 -66.5 5
t-63.5 18t-55 33.5t-37.5 54t-14.5 75.5q0 122 180 199z" />
    <glyph glyph-name="Cacute" unicode="&#x106;" horiz-adv-x="1486" 
d="M1219 473h202q-48 -240 -221.5 -370t-421.5 -130q-157 0 -284.5 57t-212.5 159.5t-131 244.5t-46 311q0 228 85 401.5t242 269t364 95.5q234 0 401.5 -132.5t216.5 -366.5h-203q-34 145 -144.5 234t-281.5 89q-204 0 -335.5 -155.5t-131.5 -434.5q0 -277 131.5 -436
t342.5 -159q174 0 282.5 87t145.5 236zM1159 1815l-305 -232h-184l225 232h264z" />
    <glyph glyph-name="cacute" unicode="&#x107;" horiz-adv-x="1140" 
d="M604 1120q97 0 181 -34t141 -89.5t93 -123.5t46 -140h-188q-20 99 -98.5 161t-186.5 62q-63 0 -119 -25t-101 -73.5t-71.5 -127.5t-26.5 -179q0 -198 93 -306t225 -108q113 0 192 64.5t101 156.5h192q-30 -161 -166.5 -273t-324.5 -112q-235 0 -374.5 160.5t-139.5 415.5
q0 250 145 410.5t387 160.5zM913 1485l-268 -238h-156l185 238h239z" />
    <glyph glyph-name="Ccircumflex" unicode="&#x108;" horiz-adv-x="1486" 
d="M1219 473h202q-48 -240 -221.5 -370t-421.5 -130q-157 0 -284.5 57t-212.5 159.5t-131 244.5t-46 311q0 228 85 401.5t242 269t364 95.5q234 0 401.5 -132.5t216.5 -366.5h-203q-34 145 -144.5 234t-281.5 89q-204 0 -335.5 -155.5t-131.5 -434.5q0 -277 131.5 -436
t342.5 -159q174 0 282.5 87t145.5 236zM881 1815l270 -232h-219l-139 115l-140 -115h-219l277 232h170z" />
    <glyph glyph-name="ccircumflex" unicode="&#x109;" horiz-adv-x="1140" 
d="M604 1120q97 0 181 -34t141 -89.5t93 -123.5t46 -140h-188q-20 99 -98.5 161t-186.5 62q-63 0 -119 -25t-101 -73.5t-71.5 -127.5t-26.5 -179q0 -198 93 -306t225 -108q113 0 192 64.5t101 156.5h192q-30 -161 -166.5 -273t-324.5 -112q-235 0 -374.5 160.5t-139.5 415.5
q0 250 145 410.5t387 160.5zM684 1485l264 -238h-196l-162 111l-162 -111h-197l271 238h182z" />
    <glyph glyph-name="Cdotaccent" unicode="&#x10a;" horiz-adv-x="1486" 
d="M1219 473h202q-48 -240 -221.5 -370t-421.5 -130q-157 0 -284.5 57t-212.5 159.5t-131 244.5t-46 311q0 228 85 401.5t242 269t364 95.5q234 0 401.5 -132.5t216.5 -366.5h-203q-34 145 -144.5 234t-281.5 89q-204 0 -335.5 -155.5t-131.5 -434.5q0 -277 131.5 -436
t342.5 -159q174 0 282.5 87t145.5 236zM702 1802h187v-203h-187v203z" />
    <glyph glyph-name="cdotaccent" unicode="&#x10b;" horiz-adv-x="1140" 
d="M604 1120q97 0 181 -34t141 -89.5t93 -123.5t46 -140h-188q-20 99 -98.5 161t-186.5 62q-63 0 -119 -25t-101 -73.5t-71.5 -127.5t-26.5 -179q0 -198 93 -306t225 -108q113 0 192 64.5t101 156.5h192q-30 -161 -166.5 -273t-324.5 -112q-235 0 -374.5 160.5t-139.5 415.5
q0 250 145 410.5t387 160.5zM496 1485h186v-203h-186v203z" />
    <glyph glyph-name="Ccaron" unicode="&#x10c;" horiz-adv-x="1486" 
d="M1219 473h202q-48 -240 -221.5 -370t-421.5 -130q-157 0 -284.5 57t-212.5 159.5t-131 244.5t-46 311q0 228 85 401.5t242 269t364 95.5q234 0 401.5 -132.5t216.5 -366.5h-203q-34 145 -144.5 234t-281.5 89q-204 0 -335.5 -155.5t-131.5 -434.5q0 -277 131.5 -436
t342.5 -159q174 0 282.5 87t145.5 236zM705 1583l-269 232h219l138 -115l141 115h219l-276 -232h-172z" />
    <glyph glyph-name="ccaron" unicode="&#x10d;" horiz-adv-x="1140" 
d="M604 1120q97 0 181 -34t141 -89.5t93 -123.5t46 -140h-188q-20 99 -98.5 161t-186.5 62q-63 0 -119 -25t-101 -73.5t-71.5 -127.5t-26.5 -179q0 -198 93 -306t225 -108q113 0 192 64.5t101 156.5h192q-30 -161 -166.5 -273t-324.5 -112q-235 0 -374.5 160.5t-139.5 415.5
q0 250 145 410.5t387 160.5zM496 1247l-265 238h197l160 -111l164 111h196l-272 -238h-180z" />
    <glyph glyph-name="Dcaron" unicode="&#x10e;" horiz-adv-x="1495" 
d="M1178 743q0 105 -18 189.5t-47.5 143t-76 101.5t-95.5 68t-113.5 40t-122.5 19.5t-130 4.5h-190v-1133h190q72 0 130 4.5t122.5 19.5t113.5 40t95.5 68t76 101.5t47.5 143t18 190.5zM176 1485h406q146 0 265 -23t222 -76.5t173 -137.5t109.5 -212t39.5 -293
q0 -166 -39.5 -294t-109.5 -212t-173 -138t-222 -76.5t-265 -22.5h-406v1485zM651 1583l-268 232h219l137 -115l142 115h219l-277 -232h-172z" />
    <glyph glyph-name="dcaron" unicode="&#x10f;" 
d="M1430 1485l-144 -348h-119l62 348h201zM903 928v557h187v-1485h-187v166q-112 -193 -360 -193q-96 0 -181 38.5t-149.5 110t-102.5 181.5t-38 244q0 131 38 240.5t102.5 181.5t149.5 111.5t181 39.5q248 0 360 -192zM911 547q0 105 -26.5 186.5t-72 130t-102 73
t-120.5 24.5q-145 0 -230.5 -108t-85.5 -306t85.5 -306t230.5 -108q64 0 120.5 24.5t102 73t72 130t26.5 186.5z" />
    <glyph glyph-name="Dcroat" unicode="&#x110;" horiz-adv-x="1492" 
d="M176 1485h406q146 0 265 -23t222 -76.5t173 -137.5t109.5 -212t39.5 -293q0 -166 -39.5 -294t-109.5 -212t-173 -138t-222 -76.5t-265 -22.5h-406v662h-131v184h131v639zM1178 743q0 105 -18 189.5t-47.5 143t-76 101.5t-95.5 68t-113.5 40t-122.5 19.5t-130 4.5h-190
v-463h326v-184h-326v-486h190q72 0 130 4.5t122.5 19.5t113.5 40t95.5 68t76 101.5t47.5 143t18 190.5z" />
    <glyph glyph-name="dslash" unicode="&#x111;" horiz-adv-x="1236" 
d="M903 928v256h-258v153h258v148h187v-148h145v-153h-145v-1184h-187v166q-112 -193 -360 -193q-96 0 -181 38.5t-149.5 110t-102.5 181.5t-38 244q0 131 38 240.5t102.5 181.5t149.5 111.5t181 39.5q248 0 360 -192zM911 547q0 105 -26.5 186.5t-72 130t-102 73
t-120.5 24.5q-145 0 -230.5 -108t-85.5 -306t85.5 -306t230.5 -108q64 0 120.5 24.5t102 73t72 130t26.5 186.5z" />
    <glyph glyph-name="Emacron" unicode="&#x112;" horiz-adv-x="1255" 
d="M176 0v1485h1008v-180h-799v-451h752v-180h-752v-494h799v-180h-1008zM993 1620h-614v154h614v-154z" />
    <glyph glyph-name="emacron" unicode="&#x113;" horiz-adv-x="1189" 
d="M1120 489h-848q2 -86 32.5 -155t79.5 -111t107.5 -64t120.5 -22q223 0 301 182h193q-39 -149 -170 -247.5t-324 -98.5q-169 0 -293 76.5t-185.5 205.5t-61.5 294q0 171 71 302t191.5 200t271.5 69q165 0 287 -85t180.5 -228t46.5 -318zM606 961q-63 0 -119 -18
t-102 -54.5t-75.5 -98t-35.5 -141.5h650q-2 59 -24.5 114.5t-61.5 100t-99.5 71t-132.5 26.5zM897 1300h-614v154h614v-154z" />
    <glyph glyph-name="Ebreve" unicode="&#x114;" horiz-adv-x="1255" 
d="M176 0v1485h1008v-180h-799v-451h752v-180h-752v-494h799v-180h-1008zM846 1815h158q-13 -112 -94 -178t-232 -66q-147 0 -226.5 66t-93.5 178h158q18 -119 164 -119q145 0 166 119z" />
    <glyph glyph-name="ebreve" unicode="&#x115;" horiz-adv-x="1189" 
d="M1120 489h-848q2 -86 32.5 -155t79.5 -111t107.5 -64t120.5 -22q223 0 301 182h193q-39 -149 -170 -247.5t-324 -98.5q-169 0 -293 76.5t-185.5 205.5t-61.5 294q0 171 71 302t191.5 200t271.5 69q165 0 287 -85t180.5 -228t46.5 -318zM606 961q-63 0 -119 -18
t-102 -54.5t-75.5 -98t-35.5 -141.5h650q-2 59 -24.5 114.5t-61.5 100t-99.5 71t-132.5 26.5zM770 1485h145q-6 -50 -25.5 -91.5t-56 -78t-99 -57.5t-146.5 -21q-80 0 -142 21t-99 57t-57 79t-24 91h146q7 -55 50 -90t128 -35t129 35t51 90z" />
    <glyph glyph-name="Edotaccent" unicode="&#x116;" horiz-adv-x="1255" 
d="M176 0v1485h1008v-180h-799v-451h752v-180h-752v-494h799v-180h-1008zM588 1802h186v-203h-186v203z" />
    <glyph glyph-name="edotaccent" unicode="&#x117;" horiz-adv-x="1189" 
d="M1120 489h-848q2 -86 32.5 -155t79.5 -111t107.5 -64t120.5 -22q223 0 301 182h193q-39 -149 -170 -247.5t-324 -98.5q-169 0 -293 76.5t-185.5 205.5t-61.5 294q0 171 71 302t191.5 200t271.5 69q165 0 287 -85t180.5 -228t46.5 -318zM606 961q-63 0 -119 -18
t-102 -54.5t-75.5 -98t-35.5 -141.5h650q-2 59 -24.5 114.5t-61.5 100t-99.5 71t-132.5 26.5zM498 1485h186v-203h-186v203z" />
    <glyph glyph-name="Eogonek" unicode="&#x118;" horiz-adv-x="1255" 
d="M176 0v1485h1008v-180h-799v-451h752v-180h-752v-494h799v-180h-1008zM975 0h209q-180 -88 -180 -164q0 -47 27 -69.5t69 -22.5q44 0 84 18v-124q-58 -23 -123 -23q-59 0 -108 17.5t-84 63t-35 114.5q0 112 141 190z" />
    <glyph glyph-name="eogonek" unicode="&#x119;" horiz-adv-x="1189" 
d="M614 -27h-2q-169 0 -293 76.5t-185.5 205.5t-61.5 294q0 171 71 302t191.5 200t271.5 69q165 0 287 -85t180.5 -228t46.5 -318h-848q2 -86 32.5 -155t79.5 -111t107.5 -64t120.5 -22q223 0 301 182h193q-52 -194 -236 -288l4 2q-66 -41 -114.5 -99t-48.5 -96
q0 -92 112 -92q40 0 86 12v-125q-56 -18 -131 -18q-45 0 -84 9t-75 30t-57 61.5t-21 96.5q0 76 73 161zM606 961q-63 0 -119 -18t-102 -54.5t-75.5 -98t-35.5 -141.5h650q-2 59 -24.5 114.5t-61.5 100t-99.5 71t-132.5 26.5z" />
    <glyph glyph-name="Ecaron" unicode="&#x11a;" horiz-adv-x="1255" 
d="M176 0v1485h1008v-180h-799v-451h752v-180h-752v-494h799v-180h-1008zM610 1583l-268 232h219l137 -115l142 115h219l-277 -232h-172z" />
    <glyph glyph-name="ecaron" unicode="&#x11b;" horiz-adv-x="1189" 
d="M1120 489h-848q2 -86 32.5 -155t79.5 -111t107.5 -64t120.5 -22q223 0 301 182h193q-39 -149 -170 -247.5t-324 -98.5q-169 0 -293 76.5t-185.5 205.5t-61.5 294q0 171 71 302t191.5 200t271.5 69q165 0 287 -85t180.5 -228t46.5 -318zM606 961q-63 0 -119 -18
t-102 -54.5t-75.5 -98t-35.5 -141.5h650q-2 59 -24.5 114.5t-61.5 100t-99.5 71t-132.5 26.5zM496 1247l-265 238h197l160 -111l164 111h196l-272 -238h-180z" />
    <glyph glyph-name="Gcircumflex" unicode="&#x11c;" horiz-adv-x="1576" 
d="M795 1511q233 0 401 -122.5t213 -335.5h-203q-39 131 -144 206.5t-278 75.5q-204 0 -335.5 -155.5t-131.5 -434.5q0 -277 129.5 -436t337.5 -159q63 0 121.5 10.5t117.5 38.5t102.5 70.5t70.5 111.5t27 158v39h-394v180h590v-758h-164l-10 186q-133 -213 -469 -213
q-209 0 -362.5 99.5t-231.5 273t-78 399.5q0 228 85 401.5t242 269t364 95.5zM881 1815l270 -232h-219l-139 115l-140 -115h-219l277 232h170z" />
    <glyph glyph-name="gcircumflex" unicode="&#x11d;" horiz-adv-x="1222" 
d="M889 928v174h186v-955q0 -157 -26 -243t-78 -144q-60 -69 -159 -107t-222 -38q-193 0 -310 85t-143 253h199q19 -82 77.5 -128t178.5 -46q149 0 225 82q24 26 37 48.5t24 72t11 122.5v105q-111 -191 -350 -191q-92 0 -176 37t-149 105t-103.5 174t-38.5 235
q0 128 38.5 234t103.5 174t149 105.5t176 37.5q238 0 350 -192zM897 569q0 101 -25 178.5t-69 123t-98.5 68t-118.5 22.5q-140 0 -226 -103t-86 -289q0 -187 86 -290t226 -103q134 0 222.5 98t88.5 295zM684 1485l264 -238h-196l-162 111l-162 -111h-197l271 238h182z" />
    <glyph glyph-name="Gbreve" unicode="&#x11e;" horiz-adv-x="1576" 
d="M795 1511q233 0 401 -122.5t213 -335.5h-203q-39 131 -144 206.5t-278 75.5q-204 0 -335.5 -155.5t-131.5 -434.5q0 -277 129.5 -436t337.5 -159q63 0 121.5 10.5t117.5 38.5t102.5 70.5t70.5 111.5t27 158v39h-394v180h590v-758h-164l-10 186q-133 -213 -469 -213
q-209 0 -362.5 99.5t-231.5 273t-78 399.5q0 228 85 401.5t242 269t364 95.5zM954 1815h158q-13 -112 -94 -178t-232 -66q-147 0 -226 66t-93 178h158q18 -119 163 -119t166 119z" />
    <glyph glyph-name="gbreve" unicode="&#x11f;" horiz-adv-x="1222" 
d="M889 928v174h186v-955q0 -157 -26 -243t-78 -144q-60 -69 -159 -107t-222 -38q-193 0 -310 85t-143 253h199q19 -82 77.5 -128t178.5 -46q149 0 225 82q24 26 37 48.5t24 72t11 122.5v105q-111 -191 -350 -191q-92 0 -176 37t-149 105t-103.5 174t-38.5 235
q0 128 38.5 234t103.5 174t149 105.5t176 37.5q238 0 350 -192zM897 569q0 101 -25 178.5t-69 123t-98.5 68t-118.5 22.5q-140 0 -226 -103t-86 -289q0 -187 86 -290t226 -103q134 0 222.5 98t88.5 295zM758 1485h145q-6 -50 -25.5 -91.5t-56.5 -78t-99.5 -57.5t-146.5 -21
q-80 0 -142 21t-99 57t-56.5 78.5t-23.5 91.5h145q7 -55 50.5 -90t128.5 -35t129 35t51 90z" />
    <glyph glyph-name="Gdotaccent" unicode="&#x120;" horiz-adv-x="1576" 
d="M795 1511q233 0 401 -122.5t213 -335.5h-203q-39 131 -144 206.5t-278 75.5q-204 0 -335.5 -155.5t-131.5 -434.5q0 -277 129.5 -436t337.5 -159q63 0 121.5 10.5t117.5 38.5t102.5 70.5t70.5 111.5t27 158v39h-394v180h590v-758h-164l-10 186q-133 -213 -469 -213
q-209 0 -362.5 99.5t-231.5 273t-78 399.5q0 228 85 401.5t242 269t364 95.5zM700 1802h187v-203h-187v203z" />
    <glyph glyph-name="gdotaccent" unicode="&#x121;" horiz-adv-x="1222" 
d="M889 928v174h186v-955q0 -157 -26 -243t-78 -144q-60 -69 -159 -107t-222 -38q-193 0 -310 85t-143 253h199q19 -82 77.5 -128t178.5 -46q149 0 225 82q24 26 37 48.5t24 72t11 122.5v105q-111 -191 -350 -191q-92 0 -176 37t-149 105t-103.5 174t-38.5 235
q0 128 38.5 234t103.5 174t149 105.5t176 37.5q238 0 350 -192zM897 569q0 101 -25 178.5t-69 123t-98.5 68t-118.5 22.5q-140 0 -226 -103t-86 -289q0 -187 86 -290t226 -103q134 0 222.5 98t88.5 295zM506 1485h186v-203h-186v203z" />
    <glyph glyph-name="uni0122" unicode="&#x122;" horiz-adv-x="1576" 
d="M795 1511q233 0 401 -122.5t213 -335.5h-203q-39 131 -144 206.5t-278 75.5q-204 0 -335.5 -155.5t-131.5 -434.5q0 -277 129.5 -436t337.5 -159q63 0 121.5 10.5t117.5 38.5t102.5 70.5t70.5 111.5t27 158v39h-394v180h590v-758h-164l-10 186q-133 -213 -469 -213
q-209 0 -362.5 99.5t-231.5 273t-78 399.5q0 228 85 401.5t242 269t364 95.5zM668 -256v182h194v-194l-90 -185h-110l79 197h-73z" />
    <glyph glyph-name="uni0123" unicode="&#x123;" horiz-adv-x="1222" 
d="M680 1413v-184h-195v196l90 183h111l-80 -195h74zM889 928v174h186v-955q0 -157 -26 -243t-78 -144q-60 -69 -159 -107t-222 -38q-193 0 -310 85t-143 253h199q19 -82 77.5 -128t178.5 -46q149 0 225 82q24 26 37 48.5t24 72t11 122.5v105q-111 -191 -350 -191
q-92 0 -176 37t-149 105t-103.5 174t-38.5 235q0 128 38.5 234t103.5 174t149 105.5t176 37.5q238 0 350 -192zM897 569q0 101 -25 178.5t-69 123t-98.5 68t-118.5 22.5q-140 0 -226 -103t-86 -289q0 -187 86 -290t226 -103q134 0 222.5 98t88.5 295z" />
    <glyph glyph-name="Hcircumflex" unicode="&#x124;" horiz-adv-x="1550" 
d="M1165 1485h209v-1485h-209v674h-780v-674h-209v1485h209v-631h780v631zM862 1815l271 -232h-220l-139 115l-139 -115h-219l276 232h170z" />
    <glyph glyph-name="hcircumflex" unicode="&#x125;" horiz-adv-x="1183" 
d="M334 1485v-549q111 184 356 184q363 0 363 -424v-696h-187v641q0 57 -4.5 99t-19 85.5t-40.5 70.5t-70.5 44.5t-106.5 17.5q-138 0 -214.5 -91.5t-76.5 -268.5v-598h-187v1485h187zM330 1815l270 -232h-219l-139 115l-140 -115h-219l277 232h170z" />
    <glyph glyph-name="Hbar" unicode="&#x126;" horiz-adv-x="1552" 
d="M1165 1485h209v-262h137v-164h-137v-1059h-209v674h-780v-674h-209v1059h-135v164h135v262h209v-262h780v262zM385 854h780v205h-780v-205z" />
    <glyph glyph-name="hbar" unicode="&#x127;" horiz-adv-x="1183" 
d="M334 1485v-148h256v-153h-256v-248q111 184 356 184q363 0 363 -424v-696h-187v641q0 57 -4.5 99t-19 85.5t-40.5 70.5t-70.5 44.5t-106.5 17.5q-138 0 -214.5 -91.5t-76.5 -268.5v-598h-187v1184h-172v153h172v148h187z" />
    <glyph glyph-name="Itilde" unicode="&#x128;" horiz-adv-x="561" 
d="M385 1485v-1485h-209v1485h209zM418 1720q84 0 96 92h145q-22 -120 -85 -175.5t-152 -55.5q-53 0 -104.5 24t-95.5 48t-79 24q-83 0 -92 -90h-145q20 115 82 172.5t153 57.5q42 0 82.5 -15t67.5 -33.5t61.5 -33.5t65.5 -15z" />
    <glyph glyph-name="itilde" unicode="&#x129;" horiz-adv-x="481" 
d="M147 1102h187v-1102h-187v1102zM377 1393q84 0 96 92h145q-22 -121 -85.5 -176.5t-151.5 -55.5q-42 0 -84 15.5t-70 34t-62.5 34t-62.5 15.5q-83 0 -92 -90h-145q20 115 82 172t153 57q42 0 82.5 -15.5t67.5 -33.5t61.5 -33.5t65.5 -15.5z" />
    <glyph glyph-name="Imacron" unicode="&#x12a;" horiz-adv-x="561" 
d="M385 1485v-1485h-209v1485h209zM590 1620h-615v154h615v-154z" />
    <glyph glyph-name="imacron" unicode="&#x12b;" horiz-adv-x="481" 
d="M147 1102h187v-1102h-187v1102zM549 1300h-615v154h615v-154z" />
    <glyph glyph-name="Ibreve" unicode="&#x12c;" horiz-adv-x="561" 
d="M385 1485v-1485h-209v1485h209zM449 1815h157q-13 -112 -93.5 -178t-231.5 -66q-147 0 -226.5 66t-93.5 178h158q18 -119 164 -119q145 0 166 119z" />
    <glyph glyph-name="ibreve" unicode="&#x12d;" horiz-adv-x="481" 
d="M147 1102h187v-1102h-187v1102zM422 1485h145q-6 -50 -25.5 -91.5t-56 -78t-99 -57.5t-146.5 -21q-80 0 -142 21t-99 57t-57 79t-24 91h145q7 -55 50.5 -90t128.5 -35t129 35t51 90z" />
    <glyph glyph-name="Iogonek" unicode="&#x12e;" horiz-adv-x="561" 
d="M385 1485v-1485h-209v1485h209zM178 0h209q-180 -88 -180 -164q0 -47 27 -69.5t69 -22.5q43 0 84 18v-124q-58 -23 -123 -23q-59 0 -108 17.5t-84 63t-35 114.5q0 112 141 190z" />
    <glyph glyph-name="iogonek" unicode="&#x12f;" horiz-adv-x="481" 
d="M147 0v1102h187v-1102q-94 -39 -147.5 -84.5t-53.5 -89.5q0 -80 113 -80q40 0 86 12v-125q-56 -18 -131 -18q-44 0 -83.5 9t-75.5 28.5t-57.5 57t-21.5 89.5q0 63 43.5 111.5t140.5 89.5zM147 1485h187v-225h-187v225z" />
    <glyph glyph-name="Idot" unicode="&#x130;" horiz-adv-x="561" 
d="M385 1485v-1485h-209v1485h209zM188 1802h187v-203h-187v203z" />
    <glyph glyph-name="dotlessi" unicode="&#x131;" horiz-adv-x="481" 
d="M147 1102h187v-1102h-187v1102z" />
    <glyph glyph-name="Jcircumflex" unicode="&#x134;" horiz-adv-x="1130" 
d="M745 473v1012h209v-1014q0 -244 -121.5 -371t-345.5 -127q-223 0 -343.5 122.5t-120.5 363.5h194q0 -148 77.5 -232t192.5 -84q39 0 73.5 8t69.5 30.5t59.5 58.5t40 95.5t15.5 137.5zM938 1815l270 -232h-219l-139 115l-139 -115h-219l276 232h170z" />
    <glyph glyph-name="jcircumflex" unicode="&#x135;" horiz-adv-x="481" 
d="M147 -59v1161h187v-1157q0 -90 -10.5 -144.5t-40 -92t-79 -52t-130.5 -14.5h-94v155h53q71 0 92.5 28t21.5 116zM336 1485l264 -238h-197l-161 111l-162 -111h-197l271 238h182z" />
    <glyph glyph-name="uni0136" unicode="&#x136;" horiz-adv-x="1363" 
d="M385 1485v-748l670 748h260l-555 -606l618 -879h-250l-510 725l-233 -258v-467h-209v1485h209zM641 -256v182h195v-194l-91 -185h-110l80 197h-74z" />
    <glyph glyph-name="uni0137" unicode="&#x137;" horiz-adv-x="1034" 
d="M147 1485h187v-879l444 496h230l-420 -457l477 -645h-227l-375 508l-129 -139v-369h-187v1485zM479 -256v182h195v-194l-90 -185h-111l80 197h-74z" />
    <glyph glyph-name="Lacute" unicode="&#x139;" horiz-adv-x="1169" 
d="M385 1485v-1305h784v-180h-993v1485h209zM670 1815l-305 -232h-185l226 232h264z" />
    <glyph glyph-name="lacute" unicode="&#x13a;" horiz-adv-x="481" 
d="M334 1485v-1485h-187v1485h187zM637 1815l-305 -232h-185l226 232h264z" />
    <glyph glyph-name="uni013B" unicode="&#x13b;" horiz-adv-x="1169" 
d="M385 1485v-1305h784v-180h-993v1485h209zM578 -256v182h194v-194l-90 -185h-111l80 197h-73z" />
    <glyph glyph-name="uni013C" unicode="&#x13c;" horiz-adv-x="481" 
d="M334 1485v-1485h-187v1485h187zM145 -256v182h195v-194l-90 -185h-111l80 197h-74z" />
    <glyph glyph-name="Lcaron" unicode="&#x13d;" horiz-adv-x="1169" 
d="M385 1485v-1305h784v-180h-993v1485h209zM836 1485l-144 -348h-119l62 348h201z" />
    <glyph glyph-name="lcaron" unicode="&#x13e;" horiz-adv-x="638" 
d="M680 1485l-143 -348h-119l61 348h201zM334 1485v-1485h-187v1485h187z" />
    <glyph glyph-name="Ldot" unicode="&#x13f;" horiz-adv-x="1169" 
d="M385 1485v-1305h784v-180h-993v1485h209zM772 956h186v-202h-186v202z" />
    <glyph glyph-name="ldot" unicode="&#x140;" horiz-adv-x="667" 
d="M334 1485v-1485h-187v1485h187zM481 940h187v-203h-187v203z" />
    <glyph glyph-name="Lslash" unicode="&#x141;" horiz-adv-x="1169" 
d="M385 1485v-639l387 264v-186l-387 -265v-479h784v-180h-993v516l-176 -121v187l176 120v783h209z" />
    <glyph glyph-name="lslash" unicode="&#x142;" horiz-adv-x="565" 
d="M375 1485v-553l149 102v-157l-149 -103v-774h-187v647l-147 -100v155l147 101v682h187z" />
    <glyph glyph-name="Nacute" unicode="&#x143;" horiz-adv-x="1546" 
d="M1370 0h-305l-680 1268v-1268h-209v1485h307l678 -1264v1264h209v-1485zM1169 1815l-305 -232h-184l225 232h264z" />
    <glyph glyph-name="nacute" unicode="&#x144;" horiz-adv-x="1183" 
d="M334 1102v-166q111 184 356 184q363 0 363 -424v-696h-187v641q0 57 -4.5 99t-19 85.5t-40.5 70.5t-70.5 44.5t-106.5 17.5q-138 0 -214.5 -91.5t-76.5 -268.5v-598h-187v1102h187zM946 1485l-268 -238h-156l185 238h239z" />
    <glyph glyph-name="uni0145" unicode="&#x145;" horiz-adv-x="1546" 
d="M1370 0h-305l-680 1268v-1268h-209v1485h307l678 -1264v1264h209v-1485zM678 -256v182h194v-194l-90 -185h-110l80 197h-74z" />
    <glyph glyph-name="uni0146" unicode="&#x146;" horiz-adv-x="1183" 
d="M334 1102v-166q111 184 356 184q363 0 363 -424v-696h-187v641q0 57 -4.5 99t-19 85.5t-40.5 70.5t-70.5 44.5t-106.5 17.5q-138 0 -214.5 -91.5t-76.5 -268.5v-598h-187v1102h187zM498 -256v182h194v-194l-90 -185h-110l79 197h-73z" />
    <glyph glyph-name="Ncaron" unicode="&#x147;" horiz-adv-x="1546" 
d="M1370 0h-305l-680 1268v-1268h-209v1485h307l678 -1264v1264h209v-1485zM729 1583l-268 232h219l137 -115l141 115h220l-277 -232h-172z" />
    <glyph glyph-name="ncaron" unicode="&#x148;" horiz-adv-x="1183" 
d="M334 1102v-166q111 184 356 184q363 0 363 -424v-696h-187v641q0 57 -4.5 99t-19 85.5t-40.5 70.5t-70.5 44.5t-106.5 17.5q-138 0 -214.5 -91.5t-76.5 -268.5v-598h-187v1102h187zM526 1247l-264 238h197l159 -111l164 111h197l-272 -238h-181z" />
    <glyph glyph-name="Eng" unicode="&#x14a;" horiz-adv-x="1546" 
d="M1161 6l-776 1258v-1264h-209v1485h313l672 -1108v1108h209v-1516q0 -108 -18.5 -176.5t-62 -107t-104 -52.5t-157.5 -14h-86v186h45q49 0 78.5 4.5t50 14.5t29.5 33t12.5 51.5t3.5 79.5v18z" />
    <glyph glyph-name="eng" unicode="&#x14b;" horiz-adv-x="1183" 
d="M866 -57v698q0 57 -4.5 98.5t-19 85t-40.5 70.5t-70.5 44t-106.5 17q-138 0 -214.5 -90.5t-76.5 -267.5v-598h-187v1102h187v-166q111 184 356 184q363 0 363 -424v-772q0 -89 -10 -141t-40.5 -85t-78.5 -44.5t-131 -11.5h-95v157h54q71 0 92.5 28t21.5 116z" />
    <glyph glyph-name="Omacron" unicode="&#x14c;" horiz-adv-x="1601" 
d="M317 743q0 -140 37.5 -253.5t103 -187t153 -113t190.5 -39.5q210 0 346.5 157.5t136.5 435.5t-136.5 435t-346.5 157q-103 0 -190.5 -39t-153 -112.5t-103 -187t-37.5 -253.5zM1497 743q0 -224 -84.5 -398t-243.5 -273t-368 -99t-368.5 99t-244 273t-84.5 398
q0 167 49.5 309t139 243.5t220.5 158.5t288 57q209 0 368 -98.5t243.5 -272t84.5 -397.5zM1108 1620h-614v154h614v-154z" />
    <glyph glyph-name="omacron" unicode="&#x14d;" horiz-adv-x="1208" 
d="M274 547q0 -107 27 -188t74.5 -128.5t105 -70.5t123.5 -23q65 0 123.5 25t105 73.5t74 129t27.5 182.5q0 107 -27 188t-74.5 128t-105 70t-123.5 23q-67 0 -124 -22.5t-104.5 -68.5t-74.5 -127.5t-27 -190.5zM604 1120q79 0 153.5 -21t143 -66.5t120 -111t82 -162
t30.5 -212.5t-30.5 -212.5t-82 -162.5t-120 -111.5t-143 -66.5t-153.5 -21q-99 0 -191 34.5t-168.5 102t-122.5 180.5t-46 257q0 116 30.5 212.5t81.5 162t119.5 111t143 66.5t153.5 21zM905 1300h-614v154h614v-154z" />
    <glyph glyph-name="Obreve" unicode="&#x14e;" horiz-adv-x="1601" 
d="M317 743q0 -140 37.5 -253.5t103 -187t153 -113t190.5 -39.5q210 0 346.5 157.5t136.5 435.5t-136.5 435t-346.5 157q-103 0 -190.5 -39t-153 -112.5t-103 -187t-37.5 -253.5zM1497 743q0 -224 -84.5 -398t-243.5 -273t-368 -99t-368.5 99t-244 273t-84.5 398
q0 167 49.5 309t139 243.5t220.5 158.5t288 57q209 0 368 -98.5t243.5 -272t84.5 -397.5zM967 1815h157q-13 -112 -93.5 -178t-231.5 -66q-147 0 -226.5 66t-93.5 178h158q18 -119 164 -119q145 0 166 119z" />
    <glyph glyph-name="obreve" unicode="&#x14f;" horiz-adv-x="1208" 
d="M274 547q0 -107 27 -188t74.5 -128.5t105 -70.5t123.5 -23q65 0 123.5 25t105 73.5t74 129t27.5 182.5q0 107 -27 188t-74.5 128t-105 70t-123.5 23q-67 0 -124 -22.5t-104.5 -68.5t-74.5 -127.5t-27 -190.5zM604 1120q79 0 153.5 -21t143 -66.5t120 -111t82 -162
t30.5 -212.5t-30.5 -212.5t-82 -162.5t-120 -111.5t-143 -66.5t-153.5 -21q-99 0 -191 34.5t-168.5 102t-122.5 180.5t-46 257q0 116 30.5 212.5t81.5 162t119.5 111t143 66.5t153.5 21zM778 1485h146q-6 -50 -25.5 -91.5t-56.5 -78t-99.5 -57.5t-146.5 -21q-80 0 -142 21
t-99 57t-57 79t-24 91h146q7 -55 50 -90t128 -35t129 35t51 90z" />
    <glyph glyph-name="Ohungarumlaut" unicode="&#x150;" horiz-adv-x="1601" 
d="M317 743q0 -140 37.5 -253.5t103 -187t153 -113t190.5 -39.5q210 0 346.5 157.5t136.5 435.5t-136.5 435t-346.5 157q-103 0 -190.5 -39t-153 -112.5t-103 -187t-37.5 -253.5zM1497 743q0 -224 -84.5 -398t-243.5 -273t-368 -99t-368.5 99t-244 273t-84.5 398
q0 167 49.5 309t139 243.5t220.5 158.5t288 57q209 0 368 -98.5t243.5 -272t84.5 -397.5zM1028 1815l-305 -232h-184l225 232h264zM1370 1815l-305 -232h-184l225 232h264z" />
    <glyph glyph-name="ohungarumlaut" unicode="&#x151;" horiz-adv-x="1208" 
d="M274 547q0 -107 27 -188t74.5 -128.5t105 -70.5t123.5 -23q65 0 123.5 25t105 73.5t74 129t27.5 182.5q0 107 -27 188t-74.5 128t-105 70t-123.5 23q-67 0 -124 -22.5t-104.5 -68.5t-74.5 -127.5t-27 -190.5zM604 1120q79 0 153.5 -21t143 -66.5t120 -111t82 -162
t30.5 -212.5t-30.5 -212.5t-82 -162.5t-120 -111.5t-143 -66.5t-153.5 -21q-99 0 -191 34.5t-168.5 102t-122.5 180.5t-46 257q0 116 30.5 212.5t81.5 162t119.5 111t143 66.5t153.5 21zM782 1485l-268 -238h-156l185 238h239zM1106 1485l-266 -238h-158l186 238h238z" />
    <glyph glyph-name="OE" unicode="&#x152;" horiz-adv-x="2322" 
d="M1284 743q0 139 -37.5 252.5t-103 187t-153 113t-189.5 39.5q-211 0 -347.5 -157.5t-136.5 -434.5q0 -140 37.5 -253.5t103 -187t153 -113t190.5 -39.5q210 0 346.5 157.5t136.5 435.5zM1288 0v203q-171 -230 -489 -230q-209 0 -368 99t-243 273t-84 398
q0 165 51.5 307.5t143 244t222 159t282.5 57.5q317 0 485 -227v201h963v-180h-797v-451h750v-180h-750v-494h797v-180h-963z" />
    <glyph glyph-name="oe" unicode="&#x153;" horiz-adv-x="2033" 
d="M1450 961q-63 0 -119 -18t-102 -54.5t-75.5 -98t-35.5 -141.5h649q-3 80 -39.5 150t-109.5 116t-168 46zM604 137q65 0 123.5 25t105 73.5t74 129t27.5 182.5q0 107 -27 188t-74.5 128t-105 70t-123.5 23q-67 0 -124 -22.5t-104.5 -68.5t-74.5 -127.5t-27 -190.5
q0 -107 27 -188t74.5 -128.5t105 -70.5t123.5 -23zM1757 319h193q-39 -149 -170 -247.5t-324 -98.5q-151 0 -261 60.5t-173 169.5q-66 -114 -177.5 -172t-240.5 -58q-99 0 -191 34.5t-168.5 102t-122.5 180.5t-46 257q0 116 30.5 212.5t81.5 162t119.5 111t143 66.5
t153.5 21q131 0 242.5 -58t177.5 -175q67 111 176.5 172t249.5 61q165 0 287 -85t180.5 -228t46.5 -318h-848q4 -86 34 -155t78.5 -111t106.5 -64t121 -22q223 0 301 182z" />
    <glyph glyph-name="Racute" unicode="&#x154;" horiz-adv-x="1390" 
d="M1081 0l-321 627q-39 -2 -113 -2h-262v-625h-209v1485h471q81 0 148 -5t132 -17.5t115 -33.5t93.5 -54t71.5 -77.5t43.5 -105t15.5 -135.5q0 -170 -75.5 -264.5t-219.5 -133.5l344 -659h-234zM664 1309h-279v-508h279q52 0 90.5 2t81.5 8t73 17t58.5 30t45.5 45t27.5 64
t10.5 86q0 67 -20 114.5t-52 74.5t-85 42.5t-104.5 20t-125.5 4.5zM1061 1815l-305 -232h-185l226 232h264z" />
    <glyph glyph-name="racute" unicode="&#x155;" horiz-adv-x="727" 
d="M696 1106v-199q-52 8 -104 8q-132 0 -195 -78.5t-63 -258.5v-578h-187v1102h183v-193q41 93 121 143.5t190 55.5q32 0 55 -2zM768 1485l-268 -238h-156l184 238h240z" />
    <glyph glyph-name="uni0156" unicode="&#x156;" horiz-adv-x="1390" 
d="M1081 0l-321 627q-39 -2 -113 -2h-262v-625h-209v1485h471q81 0 148 -5t132 -17.5t115 -33.5t93.5 -54t71.5 -77.5t43.5 -105t15.5 -135.5q0 -170 -75.5 -264.5t-219.5 -133.5l344 -659h-234zM664 1309h-279v-508h279q52 0 90.5 2t81.5 8t73 17t58.5 30t45.5 45t27.5 64
t10.5 86q0 67 -20 114.5t-52 74.5t-85 42.5t-104.5 20t-125.5 4.5zM610 -256v182h195v-194l-90 -185h-111l80 197h-74z" />
    <glyph glyph-name="uni0157" unicode="&#x157;" horiz-adv-x="727" 
d="M696 1106v-199q-52 8 -104 8q-132 0 -195 -78.5t-63 -258.5v-578h-187v1102h183v-193q41 93 121 143.5t190 55.5q32 0 55 -2zM145 -256v182h195v-194l-90 -185h-111l80 197h-74z" />
    <glyph glyph-name="Rcaron" unicode="&#x158;" horiz-adv-x="1390" 
d="M1081 0l-321 627q-39 -2 -113 -2h-262v-625h-209v1485h471q81 0 148 -5t132 -17.5t115 -33.5t93.5 -54t71.5 -77.5t43.5 -105t15.5 -135.5q0 -170 -75.5 -264.5t-219.5 -133.5l344 -659h-234zM664 1309h-279v-508h279q52 0 90.5 2t81.5 8t73 17t58.5 30t45.5 45t27.5 64
t10.5 86q0 67 -20 114.5t-52 74.5t-85 42.5t-104.5 20t-125.5 4.5zM614 1583l-268 232h219l137 -115l142 115h219l-277 -232h-172z" />
    <glyph glyph-name="rcaron" unicode="&#x159;" horiz-adv-x="727" 
d="M696 1106v-199q-52 8 -104 8q-132 0 -195 -78.5t-63 -258.5v-578h-187v1102h183v-193q41 93 121 143.5t190 55.5q32 0 55 -2zM328 1247l-265 238h197l160 -111l164 111h196l-272 -238h-180z" />
    <glyph glyph-name="Sacute" unicode="&#x15a;" horiz-adv-x="1312" 
d="M115 1106q0 102 49.5 182.5t129.5 127.5t171.5 71t185.5 24q103 0 193.5 -23.5t166 -71.5t128.5 -127t75 -183h-202q-23 80 -85 134t-133.5 74.5t-150.5 20.5q-48 0 -98.5 -11t-101 -34.5t-83 -68t-32.5 -103.5q0 -173 241 -227l172 -39q56 -12 100 -24t98 -31.5
t94.5 -42t81.5 -56t67 -72.5t42.5 -92.5t16.5 -115.5q0 -105 -46.5 -191t-125.5 -140.5t-180 -84t-213 -29.5q-259 0 -419.5 131.5t-190.5 356.5h204q29 -154 133 -232.5t277 -78.5q163 0 254.5 68.5t91.5 180.5q0 57 -22.5 101t-68 74t-99 50t-129.5 38l-185 38
q-65 14 -121.5 35.5t-110 56t-91.5 78t-61 104.5t-23 132zM1051 1815l-306 -232h-184l225 232h265z" />
    <glyph glyph-name="sacute" unicode="&#x15b;" horiz-adv-x="1075" 
d="M973 780h-195q-43 183 -260 183q-92 0 -161.5 -36t-69.5 -104q0 -63 41.5 -97t126.5 -52l155 -31q65 -12 117 -28t102 -42.5t83.5 -61t54 -85t20.5 -111.5q0 -160 -126.5 -251t-321.5 -91q-104 0 -191 32.5t-145 87t-93 122t-44 141.5h196q49 -225 281 -225q110 0 183 44
t73 120q0 41 -17.5 72.5t-51 52t-69 33.5t-86.5 24l-163 33q-51 11 -91 24.5t-83.5 37.5t-72.5 55.5t-48 79.5t-19 108q0 95 59.5 165.5t159 106t222.5 35.5q181 0 294 -91t140 -251zM872 1485l-268 -238h-155l184 238h239z" />
    <glyph glyph-name="Scircumflex" unicode="&#x15c;" horiz-adv-x="1312" 
d="M115 1106q0 102 49.5 182.5t129.5 127.5t171.5 71t185.5 24q103 0 193.5 -23.5t166 -71.5t128.5 -127t75 -183h-202q-23 80 -85 134t-133.5 74.5t-150.5 20.5q-48 0 -98.5 -11t-101 -34.5t-83 -68t-32.5 -103.5q0 -173 241 -227l172 -39q56 -12 100 -24t98 -31.5
t94.5 -42t81.5 -56t67 -72.5t42.5 -92.5t16.5 -115.5q0 -105 -46.5 -191t-125.5 -140.5t-180 -84t-213 -29.5q-259 0 -419.5 131.5t-190.5 356.5h204q29 -154 133 -232.5t277 -78.5q163 0 254.5 68.5t91.5 180.5q0 57 -22.5 101t-68 74t-99 50t-129.5 38l-185 38
q-65 14 -121.5 35.5t-110 56t-91.5 78t-61 104.5t-23 132zM758 1815l270 -232h-219l-139 115l-140 -115h-219l277 232h170z" />
    <glyph glyph-name="scircumflex" unicode="&#x15d;" horiz-adv-x="1075" 
d="M973 780h-195q-43 183 -260 183q-92 0 -161.5 -36t-69.5 -104q0 -63 41.5 -97t126.5 -52l155 -31q65 -12 117 -28t102 -42.5t83.5 -61t54 -85t20.5 -111.5q0 -160 -126.5 -251t-321.5 -91q-104 0 -191 32.5t-145 87t-93 122t-44 141.5h196q49 -225 281 -225q110 0 183 44
t73 120q0 41 -17.5 72.5t-51 52t-69 33.5t-86.5 24l-163 33q-51 11 -91 24.5t-83.5 37.5t-72.5 55.5t-48 79.5t-19 108q0 95 59.5 165.5t159 106t222.5 35.5q181 0 294 -91t140 -251zM641 1485l264 -238h-196l-162 111l-162 -111h-197l271 238h182z" />
    <glyph glyph-name="Scedilla" unicode="&#x15e;" horiz-adv-x="1312" 
d="M115 1106q0 102 49.5 182.5t129.5 127.5t171.5 71t185.5 24q103 0 193.5 -23.5t166 -71.5t128.5 -127t75 -183h-202q-23 80 -85 134t-133.5 74.5t-150.5 20.5q-48 0 -98.5 -11t-101 -34.5t-83 -68t-32.5 -103.5q0 -173 241 -227l172 -39q56 -12 100 -24t98 -31.5
t94.5 -42t81.5 -56t67 -72.5t42.5 -92.5t16.5 -115.5q0 -105 -46.5 -191t-125.5 -140.5t-180 -84t-213 -29.5q-259 0 -419.5 131.5t-190.5 356.5h204q29 -154 133 -232.5t277 -78.5q163 0 254.5 68.5t91.5 180.5q0 57 -22.5 101t-68 74t-99 50t-129.5 38l-185 38
q-65 14 -121.5 35.5t-110 56t-91.5 78t-61 104.5t-23 132zM449 -360l32 81q61 -28 119 -28q51 0 88 15.5t37 49.5q0 30 -25.5 46t-64.5 16q-47 0 -78 -19l-61 35l104 170h109l-66 -104q30 6 62 6q73 0 114 -37.5t41 -101.5q0 -75 -67.5 -121.5t-153.5 -46.5q-110 0 -190 39z
" />
    <glyph glyph-name="scedilla" unicode="&#x15f;" horiz-adv-x="1075" 
d="M973 780h-195q-43 183 -260 183q-92 0 -161.5 -36t-69.5 -104q0 -63 41.5 -97t126.5 -52l155 -31q65 -12 117 -28t102 -42.5t83.5 -61t54 -85t20.5 -111.5q0 -160 -126.5 -251t-321.5 -91q-104 0 -191 32.5t-145 87t-93 122t-44 141.5h196q49 -225 281 -225q110 0 183 44
t73 120q0 41 -17.5 72.5t-51 52t-69 33.5t-86.5 24l-163 33q-51 11 -91 24.5t-83.5 37.5t-72.5 55.5t-48 79.5t-19 108q0 95 59.5 165.5t159 106t222.5 35.5q181 0 294 -91t140 -251zM322 -360l32 81q61 -28 119 -28q51 0 88 15.5t37 49.5q0 30 -25.5 46t-64.5 16
q-47 0 -78 -19l-61 35l104 170h109l-66 -104q30 6 62 6q73 0 114 -37.5t41 -101.5q0 -75 -67.5 -121.5t-153.5 -46.5q-110 0 -190 39z" />
    <glyph glyph-name="Scaron" unicode="&#x160;" horiz-adv-x="1312" 
d="M115 1106q0 102 49.5 182.5t129.5 127.5t171.5 71t185.5 24q103 0 193.5 -23.5t166 -71.5t128.5 -127t75 -183h-202q-23 80 -85 134t-133.5 74.5t-150.5 20.5q-48 0 -98.5 -11t-101 -34.5t-83 -68t-32.5 -103.5q0 -173 241 -227l172 -39q56 -12 100 -24t98 -31.5
t94.5 -42t81.5 -56t67 -72.5t42.5 -92.5t16.5 -115.5q0 -105 -46.5 -191t-125.5 -140.5t-180 -84t-213 -29.5q-259 0 -419.5 131.5t-190.5 356.5h204q29 -154 133 -232.5t277 -78.5q163 0 254.5 68.5t91.5 180.5q0 57 -22.5 101t-68 74t-99 50t-129.5 38l-185 38
q-65 14 -121.5 35.5t-110 56t-91.5 78t-61 104.5t-23 132zM580 1583l-269 232h219l138 -115l141 115h219l-276 -232h-172z" />
    <glyph glyph-name="scaron" unicode="&#x161;" horiz-adv-x="1075" 
d="M973 780h-195q-43 183 -260 183q-92 0 -161.5 -36t-69.5 -104q0 -63 41.5 -97t126.5 -52l155 -31q65 -12 117 -28t102 -42.5t83.5 -61t54 -85t20.5 -111.5q0 -160 -126.5 -251t-321.5 -91q-104 0 -191 32.5t-145 87t-93 122t-44 141.5h196q49 -225 281 -225q110 0 183 44
t73 120q0 41 -17.5 72.5t-51 52t-69 33.5t-86.5 24l-163 33q-51 11 -91 24.5t-83.5 37.5t-72.5 55.5t-48 79.5t-19 108q0 95 59.5 165.5t159 106t222.5 35.5q181 0 294 -91t140 -251zM453 1247l-265 238h197l160 -111l164 111h196l-272 -238h-180z" />
    <glyph glyph-name="uni0162" unicode="&#x162;" horiz-adv-x="1175" 
d="M483 0v1305h-483v180h1176v-180h-484v-1305h-209zM494 -256v182h194v-194l-90 -185h-111l80 197h-73z" />
    <glyph glyph-name="uni0163" unicode="&#x163;" horiz-adv-x="665" 
d="M201 1102v276h186v-276h209v-150h-209v-653q0 -90 19 -116.5t96 -26.5h94v-156h-135q-83 0 -130.5 10.5t-78 42t-41 83t-10.5 140.5v676h-174v150h174zM217 -256v182h195v-194l-90 -185h-111l80 197h-74z" />
    <glyph glyph-name="Tcaron" unicode="&#x164;" horiz-adv-x="1175" 
d="M483 0v1305h-483v180h1176v-180h-484v-1305h-209zM498 1583l-269 232h220l137 -115l141 115h219l-276 -232h-172z" />
    <glyph glyph-name="tcaron" unicode="&#x165;" horiz-adv-x="733" 
d="M774 1485l-143 -307h-119l61 307h201zM201 1102v276h186v-276h209v-150h-209v-653q0 -90 19 -116.5t96 -26.5h94v-156h-135q-83 0 -130.5 10.5t-78 42t-41 83t-10.5 140.5v676h-174v150h174z" />
    <glyph glyph-name="Tbar" unicode="&#x166;" horiz-adv-x="1173" 
d="M483 0v662h-309v184h309v459h-483v180h1176v-180h-484v-459h309v-184h-309v-662h-209z" />
    <glyph glyph-name="tbar" unicode="&#x167;" horiz-adv-x="708" 
d="M223 1102v276h187v-276h208v-150h-208v-170h208v-153h-208v-330q0 -90 18.5 -116.5t95.5 -26.5h94v-156h-135q-83 0 -130.5 10.5t-78 42t-41 83t-10.5 140.5v353h-174v153h174v170h-174v150h174z" />
    <glyph glyph-name="Utilde" unicode="&#x168;" horiz-adv-x="1497" 
d="M154 1485h208v-903q0 -223 88.5 -325.5t294.5 -102.5q208 0 299 111.5t91 338.5v881h208v-864q0 -332 -140 -490t-458 -158q-157 0 -266.5 33.5t-183 108.5t-107.5 195t-34 294v881zM909 1720q85 0 97 92h145q-22 -120 -85.5 -175.5t-152.5 -55.5q-53 0 -104.5 24t-95 48
t-78.5 24q-83 0 -92 -90h-146q20 115 82.5 172.5t153.5 57.5q42 0 82.5 -15t67 -33.5t61 -33.5t65.5 -15z" />
    <glyph glyph-name="utilde" unicode="&#x169;" horiz-adv-x="1163" 
d="M829 0v158q-112 -185 -346 -185q-93 0 -161.5 30.5t-110 87.5t-61 133t-19.5 173v705h186v-649q0 -57 4.5 -99t18.5 -85.5t38.5 -71t67.5 -45t103 -17.5q135 0 207.5 91.5t72.5 269.5v606h187v-1102h-187zM723 1393q84 0 96 92h146q-22 -120 -85.5 -176t-152.5 -56
q-42 0 -84 15.5t-70 34t-62 34t-62 15.5q-84 0 -93 -90h-145q20 115 82 172t153 57q42 0 82.5 -15.5t67.5 -33.5t61.5 -33.5t65.5 -15.5z" />
    <glyph glyph-name="Umacron" unicode="&#x16a;" horiz-adv-x="1497" 
d="M154 1485h208v-903q0 -223 88.5 -325.5t294.5 -102.5q208 0 299 111.5t91 338.5v881h208v-864q0 -332 -140 -490t-458 -158q-157 0 -266.5 33.5t-183 108.5t-107.5 195t-34 294v881zM1055 1620h-615v154h615v-154z" />
    <glyph glyph-name="umacron" unicode="&#x16b;" horiz-adv-x="1163" 
d="M829 0v158q-112 -185 -346 -185q-93 0 -161.5 30.5t-110 87.5t-61 133t-19.5 173v705h186v-649q0 -57 4.5 -99t18.5 -85.5t38.5 -71t67.5 -45t103 -17.5q135 0 207.5 91.5t72.5 269.5v606h187v-1102h-187zM887 1300h-615v154h615v-154z" />
    <glyph glyph-name="Ubreve" unicode="&#x16c;" horiz-adv-x="1497" 
d="M154 1485h208v-903q0 -223 88.5 -325.5t294.5 -102.5q208 0 299 111.5t91 338.5v881h208v-864q0 -332 -140 -490t-458 -158q-157 0 -266.5 33.5t-183 108.5t-107.5 195t-34 294v881zM913 1815h158q-13 -112 -94 -178t-232 -66q-147 0 -226 66t-93 178h158
q18 -119 164 -119q144 0 165 119z" />
    <glyph glyph-name="ubreve" unicode="&#x16d;" horiz-adv-x="1163" 
d="M829 0v158q-112 -185 -346 -185q-93 0 -161.5 30.5t-110 87.5t-61 133t-19.5 173v705h186v-649q0 -57 4.5 -99t18.5 -85.5t38.5 -71t67.5 -45t103 -17.5q135 0 207.5 91.5t72.5 269.5v606h187v-1102h-187zM760 1485h145q-6 -50 -25.5 -91.5t-56 -78t-99 -57.5t-146.5 -21
q-80 0 -142 21t-99 57t-57 79t-24 91h145q7 -55 50.5 -90t128.5 -35t129 35t51 90z" />
    <glyph glyph-name="Uring" unicode="&#x16e;" horiz-adv-x="1497" 
d="M154 1485h208v-903q0 -223 88.5 -325.5t294.5 -102.5q208 0 299 111.5t91 338.5v881h208v-864q0 -332 -140 -490t-458 -158q-157 0 -266.5 33.5t-183 108.5t-107.5 195t-34 294v881zM748 1915q79 0 132.5 -48.5t53.5 -125.5q0 -75 -53.5 -124.5t-132.5 -49.5
q-78 0 -131.5 49.5t-53.5 124.5q0 76 54 125t131 49zM748 1829q-36 0 -62.5 -25.5t-26.5 -62.5t26.5 -61.5t62.5 -24.5t62 24.5t26 61.5q0 38 -26 63t-62 25z" />
    <glyph glyph-name="uring" unicode="&#x16f;" horiz-adv-x="1163" 
d="M829 0v158q-112 -185 -346 -185q-93 0 -161.5 30.5t-110 87.5t-61 133t-19.5 173v705h186v-649q0 -57 4.5 -99t18.5 -85.5t38.5 -71t67.5 -45t103 -17.5q135 0 207.5 91.5t72.5 269.5v606h187v-1102h-187zM580 1577q79 0 132.5 -48.5t53.5 -125.5q0 -75 -53.5 -124.5
t-132.5 -49.5q-78 0 -131.5 49.5t-53.5 124.5q0 76 54 125t131 49zM580 1491q-36 0 -62 -25t-26 -63q0 -36 26 -61t62 -25t62 25t26 61q0 38 -26 63t-62 25z" />
    <glyph glyph-name="Uhungarumlaut" unicode="&#x170;" horiz-adv-x="1497" 
d="M154 1485h208v-903q0 -223 88.5 -325.5t294.5 -102.5q208 0 299 111.5t91 338.5v881h208v-864q0 -332 -140 -490t-458 -158q-157 0 -266.5 33.5t-183 108.5t-107.5 195t-34 294v881zM975 1815l-305 -232h-185l226 232h264zM1317 1815l-305 -232h-185l226 232h264z" />
    <glyph glyph-name="uhungarumlaut" unicode="&#x171;" horiz-adv-x="1163" 
d="M764 1485l-268 -238h-156l184 238h240zM1087 1485l-266 -238h-157l186 238h237zM829 0v158q-112 -185 -346 -185q-93 0 -161.5 30.5t-110 87.5t-61 133t-19.5 173v705h186v-649q0 -57 4.5 -99t18.5 -85.5t38.5 -71t67.5 -45t103 -17.5q135 0 207.5 91.5t72.5 269.5v606
h187v-1102h-187z" />
    <glyph glyph-name="Uogonek" unicode="&#x172;" horiz-adv-x="1497" 
d="M776 -385q-59 0 -108 17.5t-84 63t-35 114.5q0 53 23.5 90.5t78.5 76.5q-260 17 -378.5 163.5t-118.5 463.5v881h208v-903q0 -223 88.5 -325.5t294.5 -102.5q208 0 299 111.5t91 338.5v881h208v-864q0 -301 -107 -450.5t-376 -201.5q-56 -12 -98.5 -51.5t-42.5 -81.5
q0 -47 27 -69.5t69 -22.5q43 0 84 18v-124q-57 -23 -123 -23z" />
    <glyph glyph-name="uogonek" unicode="&#x173;" horiz-adv-x="1169" 
d="M829 0v158q-112 -185 -346 -185q-93 0 -161.5 30.5t-110 87.5t-61 133t-19.5 173v705h186v-649q0 -57 4.5 -99t18.5 -85.5t38.5 -71t67.5 -45t103 -17.5q135 0 207.5 91.5t72.5 269.5v606h187v-1102h-187zM836 0h186q-94 -39 -147.5 -84.5t-53.5 -89.5q0 -80 113 -80
q40 0 86 12v-125q-56 -18 -131 -18q-44 0 -83.5 9t-75.5 28.5t-57.5 57t-21.5 89.5q0 63 44 111.5t141 89.5z" />
    <glyph glyph-name="Wcircumflex" unicode="&#x174;" horiz-adv-x="1888" 
d="M1069 1485l293 -1247l274 1247h219l-370 -1485h-254l-287 1221l-280 -1221h-254l-377 1485h229l287 -1247l274 1247h246zM1032 1815l271 -232h-220l-139 115l-139 -115h-219l276 232h170z" />
    <glyph glyph-name="wcircumflex" unicode="&#x175;" horiz-adv-x="1474" 
d="M422 287l219 815h193l219 -815l211 815h200l-317 -1102h-170l-244 887l-235 -887h-170l-318 1102h201zM821 1485l264 -238h-196l-162 111l-162 -111h-196l270 238h182z" />
    <glyph glyph-name="Ycircumflex" unicode="&#x176;" horiz-adv-x="1277" 
d="M0 1485h229l406 -725l414 725h229l-545 -910v-575h-209v580zM727 1815l270 -232h-219l-139 115l-139 -115h-219l276 232h170z" />
    <glyph glyph-name="ycircumflex" unicode="&#x177;" horiz-adv-x="954" 
d="M760 1102h194l-393 -1149q-22 -65 -39.5 -106.5t-41 -79.5t-49 -59t-62.5 -37.5t-82.5 -22.5t-108.5 -6h-96v155h76q43 0 67 2t52.5 11.5t45.5 29t34 53t32 84.5l8 23l-397 1102h207l280 -850zM571 1485l265 -238h-197l-162 111l-162 -111h-196l270 238h182z" />
    <glyph glyph-name="Ydieresis" unicode="&#x178;" horiz-adv-x="1277" 
d="M0 1485h229l406 -725l414 725h229l-545 -910v-575h-209v580zM311 1800h187v-203h-187v203zM780 1800h189v-203h-189v203z" />
    <glyph glyph-name="Zacute" unicode="&#x179;" horiz-adv-x="1296" 
d="M1204 1485v-180l-872 -1125h905v-180h-1153v180l874 1125h-806v180h1052zM1057 1815l-305 -232h-185l226 232h264z" />
    <glyph glyph-name="zacute" unicode="&#x17a;" horiz-adv-x="999" 
d="M68 0v162l637 778h-596v162h813v-162l-635 -778h647v-162h-866zM846 1485l-268 -238h-156l184 238h240z" />
    <glyph glyph-name="Zdotaccent" unicode="&#x17b;" horiz-adv-x="1296" 
d="M1204 1485v-180l-872 -1125h905v-180h-1153v180l874 1125h-806v180h1052zM592 1802h186v-203h-186v203z" />
    <glyph glyph-name="zdotaccent" unicode="&#x17c;" horiz-adv-x="999" 
d="M68 0v162l637 778h-596v162h813v-162l-635 -778h647v-162h-866zM438 1485h187v-203h-187v203z" />
    <glyph glyph-name="Zcaron" unicode="&#x17d;" horiz-adv-x="1296" 
d="M1204 1485v-180l-872 -1125h905v-180h-1153v180l874 1125h-806v180h1052zM590 1583l-268 232h219l137 -115l141 115h219l-276 -232h-172z" />
    <glyph glyph-name="zcaron" unicode="&#x17e;" horiz-adv-x="999" 
d="M68 0v162l637 778h-596v162h813v-162l-635 -778h647v-162h-866zM446 1247l-264 238h197l160 -111l163 111h197l-272 -238h-181z" />
    <glyph glyph-name="uni018F" unicode="&#x18f;" horiz-adv-x="1599" 
d="M367 1077h-220q42 143 144.5 243t232.5 145.5t279 45.5q310 0 499 -207.5t189 -560.5q0 -354 -190 -562t-502 -208q-177 0 -315.5 67t-223 184.5t-122.5 276t-23 343.5h1157q-17 230 -148.5 360.5t-322.5 130.5q-165 0 -278 -71t-156 -187zM801 150q194 0 324 134
t147 380h-940q2 -123 40 -221.5t102 -162t147.5 -97t179.5 -33.5z" />
    <glyph glyph-name="uni0218" unicode="&#x218;" horiz-adv-x="1312" 
d="M115 1106q0 102 49.5 182.5t129.5 127.5t171.5 71t185.5 24q103 0 193.5 -23.5t166 -71.5t128.5 -127t75 -183h-202q-23 80 -85 134t-133.5 74.5t-150.5 20.5q-48 0 -98.5 -11t-101 -34.5t-83 -68t-32.5 -103.5q0 -173 241 -227l172 -39q56 -12 100 -24t98 -31.5
t94.5 -42t81.5 -56t67 -72.5t42.5 -92.5t16.5 -115.5q0 -105 -46.5 -191t-125.5 -140.5t-180 -84t-213 -29.5q-259 0 -419.5 131.5t-190.5 356.5h204q29 -154 133 -232.5t277 -78.5q163 0 254.5 68.5t91.5 180.5q0 57 -22.5 101t-68 74t-99 50t-129.5 38l-185 38
q-65 14 -121.5 35.5t-110 56t-91.5 78t-61 104.5t-23 132zM559 -256v182h195v-194l-90 -185h-111l80 197h-74z" />
    <glyph glyph-name="uni0219" unicode="&#x219;" horiz-adv-x="1075" 
d="M973 780h-195q-43 183 -260 183q-92 0 -161.5 -36t-69.5 -104q0 -63 41.5 -97t126.5 -52l155 -31q65 -12 117 -28t102 -42.5t83.5 -61t54 -85t20.5 -111.5q0 -160 -126.5 -251t-321.5 -91q-104 0 -191 32.5t-145 87t-93 122t-44 141.5h196q49 -225 281 -225q110 0 183 44
t73 120q0 41 -17.5 72.5t-51 52t-69 33.5t-86.5 24l-163 33q-51 11 -91 24.5t-83.5 37.5t-72.5 55.5t-48 79.5t-19 108q0 95 59.5 165.5t159 106t222.5 35.5q181 0 294 -91t140 -251zM432 -256v182h195v-194l-90 -185h-111l80 197h-74z" />
    <glyph glyph-name="uni021A" unicode="&#x21a;" horiz-adv-x="1175" 
d="M483 0v1305h-483v180h1176v-180h-484v-1305h-209zM494 -256v182h194v-194l-90 -185h-111l80 197h-73z" />
    <glyph glyph-name="uni021B" unicode="&#x21b;" horiz-adv-x="665" 
d="M201 1102v276h186v-276h209v-150h-209v-653q0 -90 19 -116.5t96 -26.5h94v-156h-135q-83 0 -130.5 10.5t-78 42t-41 83t-10.5 140.5v676h-174v150h174zM217 -256v182h195v-194l-90 -185h-111l80 197h-74z" />
    <glyph glyph-name="uni0232" unicode="&#x232;" horiz-adv-x="1277" 
d="M0 1485h229l406 -725l414 725h229l-545 -910v-575h-209v580zM946 1620h-614v154h614v-154z" />
    <glyph glyph-name="uni0233" unicode="&#x233;" horiz-adv-x="954" 
d="M760 1102h194l-393 -1149q-22 -65 -39.5 -106.5t-41 -79.5t-49 -59t-62.5 -37.5t-82.5 -22.5t-108.5 -6h-96v155h76q43 0 67 2t52.5 11.5t45.5 29t34 53t32 84.5l8 23l-397 1102h207l280 -850zM784 1300h-614v154h614v-154z" />
    <glyph glyph-name="uni0237" unicode="&#x237;" horiz-adv-x="481" 
d="M147 -59v1161h187v-1157q0 -90 -10.5 -144.5t-40 -92t-79 -52t-130.5 -14.5h-94v155h53q71 0 92.5 28t21.5 116z" />
    <glyph glyph-name="uni0259" unicode="&#x259;" horiz-adv-x="1189" 
d="M72 604h848q-2 86 -32.5 155t-79.5 111t-107.5 64t-120.5 22q-223 0 -301 -182h-193q39 149 170 247.5t324 98.5q128 0 231 -44t170 -121.5t103 -182t36 -227.5q0 -129 -41 -237t-113 -181t-170 -113.5t-210 -40.5q-165 0 -287 85t-180.5 228t-46.5 318zM586 133
q63 0 119 18t102 54t75.5 97.5t35.5 141.5h-650q3 -80 39.5 -149.5t110 -115.5t168.5 -46z" />
    <glyph glyph-name="circumflex" unicode="&#x2c6;" horiz-adv-x="806" 
d="M498 1485l264 -238h-197l-162 111l-161 -111h-197l270 238h183z" />
    <glyph glyph-name="caron" unicode="&#x2c7;" horiz-adv-x="806" 
d="M309 1247l-264 238h197l159 -111l164 111h197l-273 -238h-180z" />
    <glyph glyph-name="breve" unicode="&#x2d8;" horiz-adv-x="739" 
d="M549 1485h145q-6 -50 -25.5 -91.5t-56 -78t-99 -57.5t-146.5 -21q-80 0 -142 21t-99 57t-57 79t-24 91h145q7 -55 50.5 -90t128.5 -35t129 35t51 90z" />
    <glyph glyph-name="dotaccent" unicode="&#x2d9;" horiz-adv-x="276" 
d="M45 1485h186v-203h-186v203z" />
    <glyph glyph-name="ring" unicode="&#x2da;" horiz-adv-x="460" 
d="M229 1577q79 0 133 -48.5t54 -125.5q0 -74 -54 -124t-133 -50q-78 0 -131 49.5t-53 124.5q0 76 53.5 125t130.5 49zM229 1491q-36 0 -62 -25t-26 -63q0 -36 26 -61t62 -25t62 25t26 61q0 38 -26 63t-62 25z" />
    <glyph glyph-name="ogonek" unicode="&#x2db;" horiz-adv-x="495" 
d="M229 0h187q-94 -39 -147.5 -84.5t-53.5 -89.5q0 -80 113 -80q40 0 86 12v-125q-56 -18 -131 -18q-44 0 -83.5 9t-75.5 28.5t-57.5 57t-21.5 89.5q0 63 43.5 111.5t140.5 89.5z" />
    <glyph glyph-name="tilde" unicode="&#x2dc;" horiz-adv-x="843" 
d="M557 1393q84 0 96 92h146q-22 -120 -85.5 -176t-152.5 -56q-42 0 -84 15.5t-70 34t-62 34t-62 15.5q-84 0 -93 -90h-145q20 115 82.5 172t153.5 57q53 0 102 -24.5t92.5 -49t81.5 -24.5z" />
    <glyph glyph-name="hungarumlaut" unicode="&#x2dd;" horiz-adv-x="837" 
d="M469 1485l-268 -238h-156l184 238h240zM793 1485l-267 -238h-157l186 238h238z" />
    <glyph glyph-name="uni032C" unicode="&#x32c;" horiz-adv-x="806" 
d="M332 -283l-287 283h207l149 -145l154 145h207l-293 -283h-137z" />
    <glyph glyph-name="uni0394" unicode="&#x394;" horiz-adv-x="1427" 
d="M-10 0l725 1489l725 -1489h-1450zM1151 176l-436 909l-436 -909h872z" />
    <glyph glyph-name="uni0394" unicode="&#x2206;" horiz-adv-x="1427" 
d="M-10 0l725 1489l725 -1489h-1450zM1151 176l-436 909l-436 -909h872z" />
    <glyph glyph-name="uni03A9" unicode="&#x3a9;" horiz-adv-x="1626" 
d="M813 1511q113 0 219 -27t198 -81.5t160.5 -131t108 -182.5t39.5 -229q0 -190 -114.5 -351t-293.5 -218v-115h406v-176h-596v403q181 29 290 161t109 308q0 210 -149 344t-377 134t-377 -134t-149 -344q0 -176 109 -308t290 -161v-403h-596v176h406v115
q-180 58 -294 218.5t-114 350.5q0 123 39.5 229t108 182.5t160.5 131t198 81.5t219 27z" />
    <glyph glyph-name="uni03A9" unicode="&#x2126;" horiz-adv-x="1626" 
d="M813 1511q113 0 219 -27t198 -81.5t160.5 -131t108 -182.5t39.5 -229q0 -190 -114.5 -351t-293.5 -218v-115h406v-176h-596v403q181 29 290 161t109 308q0 210 -149 344t-377 134t-377 -134t-149 -344q0 -176 109 -308t290 -161v-403h-596v176h406v115
q-180 58 -294 218.5t-114 350.5q0 123 39.5 229t108 182.5t160.5 131t198 81.5t219 27z" />
    <glyph glyph-name="pi" unicode="&#x3c0;" horiz-adv-x="1325" 
d="M406 0h-189v926h-151v176h1179v-176h-155v-627q0 -90 19.5 -115.5t98.5 -25.5h49v-158h-90q-111 0 -165 22t-76.5 79.5t-22.5 174.5v650h-497v-926z" />
    <glyph glyph-name="Wgrave" unicode="&#x1e80;" horiz-adv-x="1888" 
d="M1069 1485l293 -1247l274 1247h219l-370 -1485h-254l-287 1221l-280 -1221h-254l-377 1485h229l287 -1247l274 1247h246zM852 1583l-303 232h264l225 -232h-186z" />
    <glyph glyph-name="wgrave" unicode="&#x1e81;" horiz-adv-x="1474" 
d="M422 287l219 815h193l219 -815l211 815h200l-317 -1102h-170l-244 887l-235 -887h-170l-318 1102h201zM649 1247l-266 238h238l186 -238h-158z" />
    <glyph glyph-name="Wacute" unicode="&#x1e82;" horiz-adv-x="1888" 
d="M1069 1485l293 -1247l274 1247h219l-370 -1485h-254l-287 1221l-280 -1221h-254l-377 1485h229l287 -1247l274 1247h246zM1341 1815l-305 -232h-184l225 232h264z" />
    <glyph glyph-name="wacute" unicode="&#x1e83;" horiz-adv-x="1474" 
d="M422 287l219 815h193l219 -815l211 815h200l-317 -1102h-170l-244 887l-235 -887h-170l-318 1102h201zM1073 1485l-268 -238h-156l185 238h239z" />
    <glyph glyph-name="Wdieresis" unicode="&#x1e84;" horiz-adv-x="1888" 
d="M1069 1485l293 -1247l274 1247h219l-370 -1485h-254l-287 1221l-280 -1221h-254l-377 1485h229l287 -1247l274 1247h246zM616 1800h187v-203h-187v203zM1085 1800h189v-203h-189v203z" />
    <glyph glyph-name="wdieresis" unicode="&#x1e85;" horiz-adv-x="1474" 
d="M422 287l219 815h193l219 -815l211 815h200l-317 -1102h-170l-244 887l-235 -887h-170l-318 1102h201zM399 1282v203h187v-203h-187zM868 1485h189v-203h-189v203z" />
    <glyph glyph-name="uni1ECA" unicode="&#x1eca;" horiz-adv-x="561" 
d="M385 1485v-1485h-209v1485h209zM188 -156h187v-202h-187v202z" />
    <glyph glyph-name="uni1ECB" unicode="&#x1ecb;" horiz-adv-x="481" 
d="M147 1102h187v-1102h-187v1102zM147 1485h187v-225h-187v225zM147 -156h187v-202h-187v202z" />
    <glyph glyph-name="uni1ECC" unicode="&#x1ecc;" horiz-adv-x="1601" 
d="M317 743q0 -140 37.5 -253.5t103 -187t153 -113t190.5 -39.5q210 0 346.5 157.5t136.5 435.5t-136.5 435t-346.5 157q-103 0 -190.5 -39t-153 -112.5t-103 -187t-37.5 -253.5zM1497 743q0 -224 -84.5 -398t-243.5 -273t-368 -99t-368.5 99t-244 273t-84.5 398
q0 167 49.5 309t139 243.5t220.5 158.5t288 57q209 0 368 -98.5t243.5 -272t84.5 -397.5zM709 -156h186v-202h-186v202z" />
    <glyph glyph-name="uni1ECD" unicode="&#x1ecd;" horiz-adv-x="1208" 
d="M274 547q0 -107 27 -188t74.5 -128.5t105 -70.5t123.5 -23q65 0 123.5 25t105 73.5t74 129t27.5 182.5q0 107 -27 188t-74.5 128t-105 70t-123.5 23q-67 0 -124 -22.5t-104.5 -68.5t-74.5 -127.5t-27 -190.5zM604 1120q79 0 153.5 -21t143 -66.5t120 -111t82 -162
t30.5 -212.5t-30.5 -212.5t-82 -162.5t-120 -111.5t-143 -66.5t-153.5 -21q-99 0 -191 34.5t-168.5 102t-122.5 180.5t-46 257q0 116 30.5 212.5t81.5 162t119.5 111t143 66.5t153.5 21zM506 -156h186v-202h-186v202z" />
    <glyph glyph-name="uni1EE4" unicode="&#x1ee4;" horiz-adv-x="1497" 
d="M154 1485h208v-903q0 -223 88.5 -325.5t294.5 -102.5q208 0 299 111.5t91 338.5v881h208v-864q0 -332 -140 -490t-458 -158q-157 0 -266.5 33.5t-183 108.5t-107.5 195t-34 294v881zM655 -156h187v-202h-187v202z" />
    <glyph glyph-name="uni1EE5" unicode="&#x1ee5;" horiz-adv-x="1163" 
d="M829 0v158q-112 -185 -346 -185q-93 0 -161.5 30.5t-110 87.5t-61 133t-19.5 173v705h186v-649q0 -57 4.5 -99t18.5 -85.5t38.5 -71t67.5 -45t103 -17.5q135 0 207.5 91.5t72.5 269.5v606h187v-1102h-187zM487 -156h187v-202h-187v202z" />
    <glyph glyph-name="Ygrave" unicode="&#x1ef2;" horiz-adv-x="1277" 
d="M0 1485h229l406 -725l414 725h229l-545 -910v-575h-209v580zM588 1583l-303 232h264l225 -232h-186z" />
    <glyph glyph-name="ygrave" unicode="&#x1ef3;" horiz-adv-x="954" 
d="M760 1102h194l-393 -1149q-22 -65 -39.5 -106.5t-41 -79.5t-49 -59t-62.5 -37.5t-82.5 -22.5t-108.5 -6h-96v155h76q43 0 67 2t52.5 11.5t45.5 29t34 53t32 84.5l8 23l-397 1102h207l280 -850zM440 1247l-266 238h238l186 -238h-158z" />
    <glyph glyph-name="endash" unicode="&#x2013;" horiz-adv-x="1048" 
d="M973 473h-895v176h895v-176z" />
    <glyph glyph-name="emdash" unicode="&#x2014;" horiz-adv-x="1480" 
d="M1415 473h-1349v176h1349v-176z" />
    <glyph glyph-name="quoteleft" unicode="&#x2018;" horiz-adv-x="499" 
d="M369 1200v-235h-236v252l125 268h119l-107 -285h99z" />
    <glyph glyph-name="quoteright" unicode="&#x2019;" horiz-adv-x="501" 
d="M133 1249v236h236v-252l-125 -268h-119l108 284h-100z" />
    <glyph glyph-name="quotesinglbase" unicode="&#x201a;" horiz-adv-x="499" 
d="M133 0v236h236v-252l-125 -269h-119l108 285h-100z" />
    <glyph glyph-name="quotedblleft" unicode="&#x201c;" horiz-adv-x="843" 
d="M369 1200v-235h-236v252l125 268h119l-107 -285h99zM711 1200v-235h-236v252l125 268h119l-107 -285h99z" />
    <glyph glyph-name="quotedblright" unicode="&#x201d;" horiz-adv-x="843" 
d="M475 1249v236h236v-252l-125 -268h-119l108 284h-100zM133 1249v236h236v-252l-125 -268h-119l108 284h-100z" />
    <glyph glyph-name="quotedblbase" unicode="&#x201e;" horiz-adv-x="864" 
d="M133 0v236h236v-252l-125 -269h-119l108 285h-100zM496 0v236h235v-252l-125 -269h-119l109 285h-100z" />
    <glyph glyph-name="dagger" unicode="&#x2020;" horiz-adv-x="1157" 
d="M672 0h-189v860h-417v176h417v449h189v-449h418v-176h-418v-860z" />
    <glyph glyph-name="daggerdbl" unicode="&#x2021;" horiz-adv-x="1157" 
d="M672 573h418v-176h-418v-397h-189v397h-417v176h417v330h-417v176h417v406h189v-406h418v-176h-418v-330z" />
    <glyph glyph-name="bullet" unicode="&#x2022;" horiz-adv-x="915" 
d="M88 571q0 150 106.5 256.5t254.5 106.5q160 0 268 -105.5t108 -257.5q0 -160 -107.5 -267t-268.5 -107q-149 0 -255 108t-106 266z" />
    <glyph glyph-name="ellipsis" unicode="&#x2026;" horiz-adv-x="1505" 
d="M870 0h-235v236h235v-236zM1372 0h-235v236h235v-236zM369 0h-236v236h236v-236z" />
    <glyph glyph-name="perthousand" unicode="&#x2030;" horiz-adv-x="2861" 
d="M2454 -14q-163 0 -248.5 117.5t-85.5 314.5t85.5 314.5t248.5 117.5t250 -118t87 -314t-87 -314t-250 -118zM2454 98q90 0 136 82.5t46 237.5t-46 238t-136 83q-86 0 -132.5 -83.5t-46.5 -237.5t46.5 -237t132.5 -83zM410 635q-163 0 -248.5 117.5t-85.5 314.5
t85.5 314.5t248.5 117.5t250.5 -118t87.5 -314t-87.5 -314t-250.5 -118zM410 748q90 0 136 82t46 237t-46 238.5t-136 83.5q-86 0 -132.5 -84t-46.5 -238t46.5 -236.5t132.5 -82.5zM614 0h-206l1024 1485h206zM1638 -14q-162 0 -247.5 117.5t-85.5 314.5t85.5 314.5
t247.5 117.5q163 0 250.5 -118t87.5 -314t-87.5 -314t-250.5 -118zM1638 98q90 0 136.5 82.5t46.5 237.5t-46.5 238t-136.5 83q-86 0 -132 -83.5t-46 -237.5t46 -237t132 -83z" />
    <glyph glyph-name="guilsinglleft" unicode="&#x2039;" horiz-adv-x="591" 
d="M346 90l-326 469l326 467h201l-307 -467l307 -469h-201z" />
    <glyph glyph-name="guilsinglright" unicode="&#x203a;" horiz-adv-x="591" 
d="M571 559l-325 -469h-201l309 469l-309 467h201z" />
    <glyph glyph-name="fraction" unicode="&#x2044;" horiz-adv-x="411" 
d="M-203 0h-207l1024 1485h207z" />
    <glyph glyph-name="uni2070" unicode="&#x2070;" horiz-adv-x="817" 
d="M410 883q-163 0 -248.5 117.5t-85.5 314.5t85.5 314.5t248.5 117.5t250.5 -118t87.5 -314t-87.5 -314t-250.5 -118zM410 995q90 0 136 82.5t46 237.5t-46 238t-136 83q-86 0 -132.5 -83.5t-46.5 -237.5t46.5 -237t132.5 -83z" />
    <glyph glyph-name="uni2074" unicode="&#x2074;" horiz-adv-x="772" 
d="M444 1540l-249 -326h249v326zM739 1214v-124h-143v-193h-152v193h-411v118l413 525h150v-519h143z" />
    <glyph glyph-name="uni2075" unicode="&#x2075;" horiz-adv-x="743" 
d="M371 995q69 0 113 45.5t44 122.5q0 83 -48 130.5t-113 47.5q-55 0 -94.5 -23.5t-51.5 -62.5l-139 7l55 471h508v-129h-383l-26 -201q62 49 170 49q113 0 194.5 -76.5t81.5 -210.5q0 -133 -89 -207.5t-224 -74.5q-137 0 -220 80t-88 196h142q8 -76 50 -120t118 -44z" />
    <glyph glyph-name="uni2076" unicode="&#x2076;" horiz-adv-x="743" 
d="M223 1165q0 -80 43 -125t111 -45q71 0 114.5 45t43.5 125t-43.5 126t-112.5 46t-112.5 -46t-43.5 -126zM387 1636q-81 0 -127.5 -74t-46.5 -198q70 88 193 88q119 0 199.5 -78t80.5 -207q0 -128 -85.5 -206t-221.5 -78q-159 0 -238.5 111t-79.5 298q0 95 18 174t56 143.5
t104.5 101t155.5 36.5q127 0 197 -67t78 -162h-150q-4 59 -40 88.5t-93 29.5z" />
    <glyph glyph-name="uni2077" unicode="&#x2077;" horiz-adv-x="634" 
d="M23 1604v129h608v-129q-168 -168 -249 -328t-93 -379h-166q13 388 354 707h-454z" />
    <glyph glyph-name="uni2078" unicode="&#x2078;" horiz-adv-x="763" 
d="M383 1747q132 0 210.5 -59t78.5 -154q0 -124 -105 -191q129 -74 129 -208q0 -119 -88.5 -185.5t-224.5 -66.5t-224.5 66.5t-88.5 185.5q0 139 129 208q-52 29 -78.5 80.5t-26.5 110.5q0 95 78.5 154t210.5 59zM383 1286q-73 0 -115.5 -38t-42.5 -105q0 -71 42.5 -109.5
t115.5 -38.5t116.5 38.5t43.5 109.5q0 67 -43.5 105t-116.5 38zM524 1513q0 59 -37 91t-104 32q-64 0 -102.5 -32t-38.5 -91t38.5 -93t102.5 -34q66 0 103.5 33.5t37.5 93.5z" />
    <glyph glyph-name="uni2079" unicode="&#x2079;" horiz-adv-x="735" 
d="M518 1464q0 82 -43.5 127t-112.5 45q-70 0 -112.5 -45t-42.5 -127q0 -80 43 -126t112 -46q68 0 112 46t44 126zM354 995q79 0 125.5 73.5t48.5 197.5q-70 -88 -194 -88q-120 0 -200.5 77.5t-80.5 208.5q0 127 86.5 205t222.5 78q158 0 237 -111.5t79 -298.5
q0 -94 -18.5 -173.5t-57.5 -143.5t-105.5 -100.5t-154.5 -36.5q-126 0 -195 66.5t-77 162.5h149q6 -59 42 -88t93 -29z" />
    <glyph glyph-name="uni207A" unicode="&#x207a;" horiz-adv-x="761" 
d="M449 897h-136v242h-252v133h252v246h136v-246h251v-133h-251v-242z" />
    <glyph glyph-name="uni207B" unicode="&#x207b;" horiz-adv-x="743" 
d="M63 1272h619v-133h-619v133z" />
    <glyph glyph-name="uni207C" unicode="&#x207c;" horiz-adv-x="757" 
d="M672 1257h-586v134h586v-134zM672 1016h-586v133h586v-133z" />
    <glyph glyph-name="uni207D" unicode="&#x207d;" horiz-adv-x="352" 
d="M49 1206q0 155 48.5 295t111.5 232h135q-62 -102 -101.5 -239t-39.5 -288q0 -289 141 -528h-135q-65 101 -112.5 237t-47.5 291z" />
    <glyph glyph-name="uni207E" unicode="&#x207e;" horiz-adv-x="350" 
d="M299 1206q0 -157 -47 -296.5t-111 -231.5h-135q141 239 141 528q0 151 -39.5 288t-101.5 239h135q62 -87 110 -228.5t48 -298.5z" />
    <glyph glyph-name="uni207F" unicode="&#x207f;" horiz-adv-x="733" 
d="M248 1518v-84q50 98 182 98q215 0 215 -246v-389h-151v354q0 36 -3.5 60.5t-14 49.5t-33.5 37.5t-58 12.5q-137 0 -137 -186v-328h-150v621h150z" />
    <glyph glyph-name="uni2080" unicode="&#x2080;" horiz-adv-x="817" 
d="M410 -276q-163 0 -248.5 117.5t-85.5 314.5t85.5 314.5t248.5 117.5t250.5 -118t87.5 -314t-87.5 -314t-250.5 -118zM410 -164q90 0 136 82.5t46 237.5t-46 238t-136 83q-86 0 -132.5 -83.5t-46.5 -237.5t46.5 -237t132.5 -83z" />
    <glyph glyph-name="uni2081" unicode="&#x2081;" horiz-adv-x="475" 
d="M360 -262h-151v631h-182v102q100 2 146 20.5t75 81.5h112v-835z" />
    <glyph glyph-name="uni2082" unicode="&#x2082;" horiz-adv-x="712" 
d="M362 588q121 0 199 -59t78 -162q0 -120 -103.5 -240t-310.5 -260h432v-129h-612v121q233 184 335.5 293t102.5 204q0 59 -34.5 90t-92.5 31q-63 0 -104.5 -43t-40.5 -131h-150q-2 129 80 207t221 78z" />
    <glyph glyph-name="uni2083" unicode="&#x2083;" horiz-adv-x="739" 
d="M365 -164q71 0 116 36.5t45 100.5q0 75 -49.5 107.5t-144.5 32.5h-49v120h41q184 0 184 125q0 58 -40 88.5t-99 30.5q-143 0 -166 -158h-144q11 124 95 196.5t225 72.5q53 0 101.5 -13t89.5 -39t65 -70t24 -101q0 -60 -32 -109t-84 -76q66 -28 101.5 -83t35.5 -120
q0 -123 -91 -188t-227 -65q-138 0 -221.5 79.5t-91.5 198.5h144q12 -72 54.5 -119t117.5 -47z" />
    <glyph glyph-name="uni2084" unicode="&#x2084;" horiz-adv-x="772" 
d="M444 381l-249 -326h249v326zM739 55v-125h-143v-192h-152v192h-411v119l413 524h150v-518h143z" />
    <glyph glyph-name="uni2085" unicode="&#x2085;" horiz-adv-x="743" 
d="M371 -164q69 0 113 45.5t44 122.5q0 83 -48 130.5t-113 47.5q-55 0 -94.5 -23.5t-51.5 -62.5l-139 6l55 471h508v-129h-383l-26 -200q62 49 170 49q113 0 194.5 -76.5t81.5 -210.5q0 -133 -89 -207.5t-224 -74.5q-137 0 -220 80t-88 196h142q8 -76 50 -120t118 -44z" />
    <glyph glyph-name="uni2086" unicode="&#x2086;" horiz-adv-x="743" 
d="M223 6q0 -80 43 -125t111 -45q71 0 114.5 45t43.5 125t-43.5 126t-112.5 46t-112.5 -46t-43.5 -126zM387 477q-81 0 -127.5 -74t-46.5 -198q70 88 193 88q119 0 199.5 -78t80.5 -207q0 -128 -85.5 -206t-221.5 -78q-159 0 -238.5 111t-79.5 298q0 95 18 174t56 143.5
t104.5 101t155.5 36.5q127 0 197 -67.5t78 -162.5h-150q-4 59 -40 89t-93 30z" />
    <glyph glyph-name="uni2087" unicode="&#x2087;" horiz-adv-x="634" 
d="M23 444v129h608v-129q-169 -169 -249.5 -328t-92.5 -378h-166q13 387 354 706h-454z" />
    <glyph glyph-name="uni2088" unicode="&#x2088;" horiz-adv-x="763" 
d="M383 588q132 0 210.5 -59t78.5 -154q0 -124 -105 -191q129 -74 129 -209q0 -119 -88.5 -185t-224.5 -66t-224.5 66t-88.5 185q0 140 129 209q-52 29 -78.5 80.5t-26.5 110.5q0 95 78.5 154t210.5 59zM383 127q-73 0 -115.5 -38t-42.5 -105q0 -71 42.5 -109.5t115.5 -38.5
t116.5 38.5t43.5 109.5q0 67 -43.5 105t-116.5 38zM524 354q0 59 -37 91t-104 32q-64 0 -102.5 -32t-38.5 -91t38.5 -93t102.5 -34q66 0 103.5 33.5t37.5 93.5z" />
    <glyph glyph-name="uni2089" unicode="&#x2089;" horiz-adv-x="735" 
d="M518 305q0 82 -43.5 127t-112.5 45q-70 0 -112.5 -45t-42.5 -127q0 -80 43 -126t112 -46q68 0 112 46t44 126zM354 -164q79 0 125.5 73t48.5 197q-70 -88 -194 -88q-120 0 -200.5 78t-80.5 209q0 127 86.5 205t222.5 78q158 0 237 -111.5t79 -298.5q0 -94 -18.5 -173.5
t-57.5 -143.5t-105.5 -100.5t-154.5 -36.5q-126 0 -195 66.5t-77 162.5h149q6 -59 42 -88t93 -29z" />
    <glyph glyph-name="uni208D" unicode="&#x208d;" horiz-adv-x="352" 
d="M49 47q0 155 48.5 294t111.5 232h135q-62 -102 -101.5 -239t-39.5 -287q0 -289 141 -528h-135q-65 101 -112.5 237t-47.5 291z" />
    <glyph glyph-name="uni208E" unicode="&#x208e;" horiz-adv-x="350" 
d="M299 47q0 -157 -47 -296.5t-111 -231.5h-135q141 239 141 528q0 150 -39.5 287t-101.5 239h135q62 -87 110 -228t48 -298z" />
    <glyph glyph-name="Euro" unicode="&#x20ac;" horiz-adv-x="1437" 
d="M719 528h-322q41 -194 148 -296.5t266 -102.5q156 0 260.5 86.5t128.5 249.5h195q-24 -224 -186.5 -358t-391.5 -134q-256 0 -415 144.5t-207 410.5h-226l88 131h121q-2 31 -2 91q0 53 2 84h-209l88 129h138q50 260 213.5 404t414.5 144q146 0 269 -59.5t203 -172
t96 -259.5h-195q-23 162 -126 249t-259 87t-264.5 -100.5t-149.5 -292.5h576l-88 -129h-506q-2 -31 -2 -84q0 -60 2 -91h428z" />
    <glyph glyph-name="uni2113" unicode="&#x2113;" horiz-adv-x="919" 
d="M236 348v70l-148 -111l-88 131l236 180v508q0 193 74.5 289t246.5 96q138 0 213.5 -86t75.5 -229q0 -96 -26 -179.5t-79.5 -158t-122 -139.5t-167.5 -139l-27 -21v-223q0 -113 39 -156t110 -43q100 0 197 86l82 -129q-56 -52 -135.5 -86.5t-165.5 -34.5q-171 0 -243 86.5
t-72 288.5zM424 1151v-387l16 12q224 167 224 414q0 166 -119 166q-67 0 -94 -44t-27 -161z" />
    <glyph glyph-name="uni2116" unicode="&#x2116;" horiz-adv-x="2191" 
d="M2116 1139q0 -180 -89 -279.5t-239 -99.5q-152 0 -241 99.5t-89 279.5q0 177 93.5 274.5t236.5 97.5q144 0 236 -95t92 -277zM1937 1139q0 104 -39 162.5t-110 58.5q-76 0 -115 -58t-39 -163q0 -103 38.5 -163.5t115.5 -60.5q72 0 110.5 61.5t38.5 162.5zM2105 496h-635
v176h635v-176zM1370 0h-305l-680 1268v-1268h-209v1485h307l678 -1264v1264h209v-1485z" />
    <glyph glyph-name="uni2117" unicode="&#x2117;" horiz-adv-x="1689" 
d="M78 739q0 169 60.5 314t163.5 245t244.5 156.5t299.5 56.5t298.5 -56.5t243.5 -156.5t163.5 -245t60.5 -314q0 -222 -103 -398.5t-277.5 -272t-385.5 -95.5q-158 0 -299.5 56.5t-244.5 155.5t-163.5 243t-60.5 311zM229 739q0 -184 82.5 -328.5t222.5 -222t312 -77.5
q130 0 243.5 45.5t195 126.5t128.5 199t47 257q0 187 -80.5 332.5t-220 224t-313.5 78.5q-128 0 -241.5 -46t-196.5 -128t-131 -201.5t-48 -259.5zM860 672h-119v-312h-168v818h250q77 0 133 -6t105.5 -22.5t80.5 -45t48.5 -73.5t17.5 -107q0 -109 -86.5 -180.5
t-261.5 -71.5zM1040 922q0 69 -48 95.5t-142 26.5h-109v-243h119q95 0 137.5 30t42.5 91z" />
    <glyph glyph-name="trademark" unicode="&#x2122;" horiz-adv-x="1738" 
d="M266 668v684h-256v133h674v-133h-256v-684h-162zM1294 668h-161l-218 602v-602h-161v817h252l213 -613l204 613h248v-817h-162v602z" />
    <glyph glyph-name="estimated" unicode="&#x212e;" horiz-adv-x="1187" 
d="M1020 307h82q-53 -151 -177.5 -242.5t-316.5 -91.5q-132 0 -238 45t-174 123.5t-104.5 182.5t-36.5 225q0 254 149.5 412.5t393.5 158.5q125 0 226.5 -46t166.5 -125t101 -181t38 -217h-839v-395q48 -50 140.5 -82.5t193.5 -32.5q143 0 243.5 70t151.5 196zM291 944v-328
h602v324q-46 50 -124 80.5t-173 30.5q-201 0 -305 -107z" />
    <glyph glyph-name="onethird" unicode="&#x2153;" horiz-adv-x="1626" 
d="M360 649h-151v631h-182v102q99 2 145.5 20.5t75.5 82.5h112v-836zM272 0h-206l1024 1485h206zM1251 98q71 0 116.5 37t45.5 101q0 75 -49 107t-145 32h-50v121h41q185 0 185 125q0 58 -40.5 88t-99.5 30q-143 0 -165 -157h-144q11 124 95 196t225 72q53 0 101.5 -13
t89.5 -39t65 -70t24 -101q0 -60 -32 -109t-84 -76q66 -29 101.5 -83t35.5 -119q0 -123 -91 -188.5t-227 -65.5q-138 0 -221.5 79.5t-91.5 198.5h143q12 -72 54.5 -119t117.5 -47z" />
    <glyph glyph-name="twothirds" unicode="&#x2154;" horiz-adv-x="1863" 
d="M362 1499q121 0 199 -59t78 -162q0 -120 -103.5 -240t-310.5 -260h432v-129h-612v121q232 183 335 293t103 205q0 59 -34.5 90t-92.5 31q-63 0 -104.5 -43.5t-40.5 -131.5h-150q-2 129 80 207t221 78zM510 0h-207l1024 1485h207zM1489 98q71 0 116.5 37t45.5 101
q0 75 -49.5 107t-145.5 32h-49v121h41q184 0 184 125q0 58 -40 88t-99 30q-72 0 -113.5 -41t-52.5 -116h-143q11 124 94.5 196t224.5 72q53 0 102 -13t89.5 -39t65 -70t24.5 -101q0 -60 -32 -109t-85 -76q66 -29 101.5 -83t35.5 -119q0 -123 -90.5 -188.5t-226.5 -65.5
q-138 0 -221.5 79.5t-91.5 198.5h143q12 -72 54.5 -119t117.5 -47z" />
    <glyph glyph-name="uni2155" unicode="&#x2155;" horiz-adv-x="1630" 
d="M360 649h-151v631h-182v102q99 2 145.5 20.5t75.5 82.5h112v-836zM272 0h-206l1024 1485h206zM1257 98q69 0 113.5 45.5t44.5 122.5q0 83 -48.5 130.5t-113.5 47.5q-55 0 -94 -23.5t-51 -62.5l-139 7l55 471h508v-129h-383l-27 -201q62 49 170 49q113 0 195 -76.5
t82 -210.5q0 -133 -89.5 -207.5t-224.5 -74.5q-137 0 -219.5 80t-87.5 196h142q8 -76 49.5 -120t117.5 -44z" />
    <glyph glyph-name="uni2156" unicode="&#x2156;" horiz-adv-x="1865" 
d="M362 1499q121 0 199 -59t78 -162q0 -120 -103.5 -240t-310.5 -260h432v-129h-612v121q232 183 335 293t103 205q0 59 -34.5 90t-92.5 31q-63 0 -104.5 -43.5t-40.5 -131.5h-150q-2 129 80 207t221 78zM510 0h-207l1024 1485h207zM1495 98q69 0 113.5 45.5t44.5 122.5
q0 83 -48.5 130.5t-113.5 47.5q-55 0 -94 -23.5t-51 -62.5l-140 7l56 471h507v-129h-383l-26 -201q62 49 170 49q113 0 194.5 -76.5t81.5 -210.5q0 -133 -89 -207.5t-224 -74.5q-137 0 -219.5 80t-87.5 196h141q8 -76 50 -120t118 -44z" />
    <glyph glyph-name="uni2157" unicode="&#x2157;" horiz-adv-x="1894" 
d="M365 748q71 0 116 36.5t45 100.5q0 75 -49 107t-145 32h-49v121h41q184 0 184 125q0 58 -40 88.5t-99 30.5q-143 0 -166 -158h-144q11 124 95 196t225 72q53 0 101.5 -13t89.5 -39t65 -70t24 -101q0 -60 -31.5 -108.5t-84.5 -75.5q66 -28 101.5 -83t35.5 -120
q0 -123 -91 -188.5t-227 -65.5q-138 0 -221.5 79.5t-91.5 198.5h144q11 -72 54 -118.5t118 -46.5zM537 0h-207l1024 1485h207zM1522 98q69 0 113 45.5t44 122.5q0 83 -48 130.5t-113 47.5q-55 0 -94.5 -23.5t-51.5 -62.5l-139 7l55 471h508v-129h-383l-27 -201q62 49 170 49
q113 0 195 -76.5t82 -210.5q0 -133 -89 -207.5t-224 -74.5q-137 0 -220 80t-88 196h142q8 -76 50 -120t118 -44z" />
    <glyph glyph-name="uni2158" unicode="&#x2158;" horiz-adv-x="1927" 
d="M444 1292l-249 -325h249v325zM739 967v-125h-143v-193h-152v193h-411v119l413 524h150v-518h143zM569 0h-207l1024 1485h207zM1554 98q69 0 113.5 45.5t44.5 122.5q0 83 -48.5 130.5t-113.5 47.5q-55 0 -94 -23.5t-51 -62.5l-139 7l55 471h508v-129h-383l-27 -201
q62 49 170 49q113 0 195 -76.5t82 -210.5q0 -133 -89.5 -207.5t-224.5 -74.5q-137 0 -219.5 80t-87.5 196h141q8 -76 50 -120t118 -44z" />
    <glyph glyph-name="uni2159" unicode="&#x2159;" horiz-adv-x="1630" 
d="M360 649h-151v631h-182v102q99 2 145.5 20.5t75.5 82.5h112v-836zM272 0h-206l1024 1485h206zM1110 268q0 -80 43 -125t111 -45q71 0 114 45t43 125t-43 126t-112 46t-112.5 -46t-43.5 -126zM1274 739q-81 0 -127.5 -74t-46.5 -198q70 88 192 88q119 0 200 -78t81 -207
q0 -128 -85.5 -206t-221.5 -78q-159 0 -238.5 111t-79.5 298q0 95 18 174t56 143.5t104.5 101t155.5 36.5q127 0 196.5 -67t77.5 -162h-149q-4 59 -40 88.5t-93 29.5z" />
    <glyph glyph-name="uni215A" unicode="&#x215a;" horiz-adv-x="1898" 
d="M371 748q69 0 113 45t44 122q0 83 -48 131t-113 48q-55 0 -94.5 -23.5t-51.5 -62.5l-139 6l55 471h508v-129h-383l-26 -201q62 49 170 49q113 0 194.5 -76t81.5 -210q0 -133 -89 -208t-224 -75q-137 0 -220 80t-88 196h142q8 -76 50 -119.5t118 -43.5zM541 0h-207
l1024 1485h207zM1378 268q0 -80 43 -125t111 -45q71 0 114.5 45t43.5 125t-43.5 126t-112.5 46t-112.5 -46t-43.5 -126zM1542 739q-81 0 -127.5 -74t-46.5 -198q70 88 193 88q119 0 199.5 -78t80.5 -207q0 -128 -85.5 -206t-221.5 -78q-159 0 -238 110.5t-79 298.5
q0 95 18 174t56 143.5t104 101t155 36.5q127 0 197 -67t78 -162h-150q-4 59 -40 88.5t-93 29.5z" />
    <glyph glyph-name="oneeighth" unicode="&#x215b;" horiz-adv-x="1650" 
d="M360 649h-151v631h-182v102q99 2 145.5 20.5t75.5 82.5h112v-836zM272 0h-206l1024 1485h206zM1270 850q132 0 210.5 -59t78.5 -154q0 -124 -105 -191q129 -74 129 -208q0 -119 -88.5 -185.5t-224.5 -66.5t-225 66.5t-89 185.5q0 139 129 208q-52 29 -78 80.5t-26 110.5
q0 95 78.5 154t210.5 59zM1270 389q-73 0 -115.5 -38t-42.5 -105q0 -71 42.5 -109.5t115.5 -38.5t116.5 38.5t43.5 109.5q0 67 -43.5 105t-116.5 38zM1411 616q0 59 -37 91t-104 32q-65 0 -103.5 -32t-38.5 -91t39 -93t103 -34q66 0 103.5 33.5t37.5 93.5z" />
    <glyph glyph-name="threeeighths" unicode="&#x215c;" horiz-adv-x="1916" 
d="M365 748q71 0 116 36.5t45 100.5q0 75 -49 107t-145 32h-49v121h41q184 0 184 125q0 58 -40 88.5t-99 30.5q-143 0 -166 -158h-144q11 124 95 196t225 72q53 0 101.5 -13t89.5 -39t65 -70t24 -101q0 -60 -31.5 -108.5t-84.5 -75.5q66 -28 101.5 -83t35.5 -120
q0 -123 -91 -188.5t-227 -65.5q-138 0 -221.5 79.5t-91.5 198.5h144q11 -72 54 -118.5t118 -46.5zM537 0h-207l1024 1485h207zM1534 850q132 0 210.5 -59t78.5 -154q0 -124 -105 -191q129 -74 129 -208q0 -119 -88.5 -185.5t-224.5 -66.5t-224.5 66.5t-88.5 185.5
q0 139 129 208q-52 29 -78.5 80.5t-26.5 110.5q0 95 78.5 154t210.5 59zM1534 389q-73 0 -115.5 -38t-42.5 -105q0 -71 42.5 -109.5t115.5 -38.5t116.5 38.5t43.5 109.5q0 67 -43.5 105t-116.5 38zM1675 616q0 59 -37 91t-104 32q-64 0 -102.5 -32t-38.5 -91t38.5 -93
t102.5 -34q66 0 103.5 33.5t37.5 93.5z" />
    <glyph glyph-name="fiveeighths" unicode="&#x215d;" horiz-adv-x="1918" 
d="M371 748q69 0 113 45t44 122q0 83 -48 131t-113 48q-55 0 -94.5 -23.5t-51.5 -62.5l-139 6l55 471h508v-129h-383l-26 -201q62 49 170 49q113 0 194.5 -76t81.5 -210q0 -133 -89 -208t-224 -75q-137 0 -220 80t-88 196h142q8 -76 50 -119.5t118 -43.5zM541 0h-207
l1024 1485h207zM1538 850q132 0 210.5 -59t78.5 -154q0 -124 -105 -191q129 -74 129 -208q0 -119 -88.5 -185.5t-224.5 -66.5t-224.5 66.5t-88.5 185.5q0 139 129 208q-52 29 -78.5 80.5t-26.5 110.5q0 95 78.5 154t210.5 59zM1538 389q-73 0 -115.5 -38t-42.5 -105
q0 -71 42.5 -109.5t115.5 -38.5t116.5 38.5t43.5 109.5q0 67 -43.5 105t-116.5 38zM1679 616q0 59 -37 91t-104 32q-64 0 -102.5 -32t-38.5 -91t38.5 -93t102.5 -34q66 0 103.5 33.5t37.5 93.5z" />
    <glyph glyph-name="seveneighths" unicode="&#x215e;" horiz-adv-x="1812" 
d="M23 1356v129h608v-129q-168 -168 -249 -328t-93 -379h-166q13 388 354 707h-454zM432 0h-207l1024 1485h207zM1430 850q132 0 210 -59t78 -154q0 -125 -104 -191q129 -74 129 -208q0 -119 -88.5 -185.5t-224.5 -66.5t-225 66.5t-89 185.5q0 139 129 208q-52 29 -78 80.5
t-26 110.5q0 95 78.5 154t210.5 59zM1430 389q-73 0 -115.5 -38t-42.5 -105q0 -71 42.5 -109.5t115.5 -38.5t116 38.5t43 109.5q0 67 -43 105t-116 38zM1571 616q0 59 -37 91t-104 32q-65 0 -103.5 -32t-38.5 -91t39 -93t103 -34q66 0 103.5 33.5t37.5 93.5z" />
    <glyph glyph-name="uni215F" unicode="&#x215f;" horiz-adv-x="886" 
d="M360 649h-151v631h-182v102q99 2 145.5 20.5t75.5 82.5h112v-836zM272 0h-206l1024 1485h206z" />
    <glyph glyph-name="arrowleft" unicode="&#x2190;" horiz-adv-x="1638" 
d="M1559 461h-1201l435 -434l-115 -113l-637 637l637 637l115 -115l-435 -432h1201v-180z" />
    <glyph glyph-name="arrowup" unicode="&#x2191;" horiz-adv-x="1638" 
d="M729 0v1200l-434 -434l-113 115l637 637l637 -637l-115 -115l-432 434v-1200h-180z" />
    <glyph glyph-name="arrowright" unicode="&#x2192;" horiz-adv-x="1638" 
d="M80 641h1200l-434 434l115 113l636 -637l-636 -637l-115 115l434 432h-1200v180z" />
    <glyph glyph-name="arrowdown" unicode="&#x2193;" horiz-adv-x="1638" 
d="M909 1485v-1200l434 434l113 -115l-637 -637l-637 637l115 115l432 -434v1200h180z" />
    <glyph glyph-name="uni2196" unicode="&#x2196;" horiz-adv-x="1638" 
d="M1292 -35l-850 848v-614l-159 2v901h901v-162h-613l848 -848z" />
    <glyph glyph-name="uni2197" unicode="&#x2197;" horiz-adv-x="1638" 
d="M219 92l848 850h-614l2 160h901v-901h-162v612l-848 -848z" />
    <glyph glyph-name="uni2198" unicode="&#x2198;" horiz-adv-x="1638" 
d="M346 1137l850 -848v614l160 -2v-901h-901v162h612l-848 848z" />
    <glyph glyph-name="uni2199" unicode="&#x2199;" horiz-adv-x="1638" 
d="M1419 1010l-848 -850h615l-2 -160h-901v901h161v-612l848 848z" />
    <glyph glyph-name="uni219E" unicode="&#x219e;" horiz-adv-x="1638" 
d="M1559 461h-627l434 -432l-115 -115l-546 547h-347l435 -434l-115 -113l-637 637l637 637l115 -115l-435 -432h347l546 549l115 -115l-434 -434h627v-180z" />
    <glyph glyph-name="uni219F" unicode="&#x219f;" horiz-adv-x="1638" 
d="M729 0v627l-432 -434l-115 114l547 547v346l-434 -434l-113 115l637 637l637 -637l-115 -115l-432 434v-346l549 -547l-115 -114l-434 434v-627h-180z" />
    <glyph glyph-name="uni21A0" unicode="&#x21a0;" horiz-adv-x="1638" 
d="M100 641h627l-434 432l115 115l546 -547h346l-434 434l115 113l637 -637l-637 -637l-115 115l434 432h-346l-546 -549l-115 115l434 434h-627v180z" />
    <glyph glyph-name="uni21A1" unicode="&#x21a1;" horiz-adv-x="1638" 
d="M909 1485v-627l432 434l115 -114l-547 -547v-346l434 434l113 -115l-637 -637l-637 637l115 115l432 -434v346l-549 547l115 114l434 -434v627h180z" />
    <glyph glyph-name="uni21A2" unicode="&#x21a2;" horiz-adv-x="1638" 
d="M1067 551l524 -522l-114 -115l-547 547h-572l435 -432l-115 -115l-637 637l637 639l115 -115l-435 -434h572l547 549l114 -115z" />
    <glyph glyph-name="uni21A3" unicode="&#x21a3;" horiz-adv-x="1638" 
d="M66 29l524 522l-524 524l114 115l547 -549h571l-434 434l115 115l637 -639l-637 -637l-115 115l434 432h-571l-547 -547z" />
    <glyph glyph-name="uni21A4" unicode="&#x21a4;" horiz-adv-x="1638" 
d="M1559 0h-181v461h-1020l435 -434l-115 -113l-637 637l637 637l115 -115l-435 -432h1020v461h181v-1102z" />
    <glyph glyph-name="uni21A5" unicode="&#x21a5;" horiz-adv-x="1638" 
d="M268 0v180h461v1020l-434 -434l-113 115l637 637l637 -637l-115 -115l-432 434v-1020h461v-180h-1102z" />
    <glyph glyph-name="uni21A6" unicode="&#x21a6;" horiz-adv-x="1638" 
d="M80 1102h180v-461h1020l-434 434l115 113l636 -637l-636 -637l-115 115l434 432h-1020v-461h-180v1102z" />
    <glyph glyph-name="uni21A7" unicode="&#x21a7;" horiz-adv-x="1638" 
d="M1370 1483v-180h-461v-1020l434 434l113 -115l-637 -637l-637 637l115 115l432 -434v1020h-461v180h1102z" />
    <glyph glyph-name="uni21B0" unicode="&#x21b0;" horiz-adv-x="1638" 
d="M1518 -358h-181v819h-979l435 -434l-115 -113l-637 637l637 637l115 -115l-435 -432h1160v-999z" />
    <glyph glyph-name="uni21B1" unicode="&#x21b1;" horiz-adv-x="1638" 
d="M301 -358h-180v999h1159l-434 432l115 115l636 -637l-636 -637l-115 113l434 434h-979v-819z" />
    <glyph glyph-name="uni21B2" unicode="&#x21b2;" horiz-adv-x="1638" 
d="M1337 641v844h181v-1024h-1160l435 -432l-115 -115l-637 637l637 637l115 -113l-435 -434h979z" />
    <glyph glyph-name="uni21B3" unicode="&#x21b3;" horiz-adv-x="1638" 
d="M121 1485h180v-844h979l-434 434l115 113l636 -637l-636 -637l-115 115l434 432h-1159v1024z" />
    <glyph glyph-name="partialdiff" unicode="&#x2202;" horiz-adv-x="1173" 
d="M885 539q0 199 -87 297t-225 98q-147 0 -223 -102t-76 -293q0 -194 75.5 -298t223.5 -104q140 0 226 101t86 301zM571 -27q-235 0 -365 148t-130 418q0 257 131 408t340 151q197 0 315 -160l2 2q-63 176 -213.5 295.5t-335.5 126.5v166q221 -11 398.5 -132.5t275.5 -321
t98 -437.5q0 -328 -139.5 -496t-376.5 -168z" />
    <glyph glyph-name="product" unicode="&#x220f;" horiz-adv-x="1363" 
d="M334 -358h-187v1843h1070v-1843h-189v1667h-694v-1667z" />
    <glyph glyph-name="summation" unicode="&#x2211;" horiz-adv-x="1202" 
d="M66 -205l552 766l-552 770v154h1071v-176h-846l545 -748l-545 -743h846v-176h-1071v153z" />
    <glyph glyph-name="minus" unicode="&#x2212;" 
d="M139 639h1112v-176h-1112v176z" />
    <glyph glyph-name="radical" unicode="&#x221a;" horiz-adv-x="1044" 
d="M0 487l303 140l301 -711l258 1569h182l-321 -1843h-180l-332 739l-131 -59z" />
    <glyph glyph-name="infinity" unicode="&#x221e;" horiz-adv-x="1613" 
d="M1188 848q156 0 257 -94t101 -240q0 -150 -98 -244t-256 -94q-115 0 -206 55.5t-177 153.5q-183 -207 -387 -207q-159 0 -257.5 94t-98.5 242q0 147 102 240.5t266 93.5q201 0 375 -197q89 102 175.5 149.5t203.5 47.5zM430 346q73 0 132 37.5t138 132.5q-68 82 -128 123
t-136 41q-83 0 -136.5 -46t-53.5 -120q0 -70 52.5 -119t131.5 -49zM1171 680q-71 0 -128 -42.5t-125 -123.5q68 -82 130 -125t136 -43q78 0 130 48t52 120q0 70 -53.5 118t-141.5 48z" />
    <glyph glyph-name="integral" unicode="&#x222b;" horiz-adv-x="649" 
d="M229 307v658q0 153 21 261t62.5 169.5t95.5 88.5t127 27q75 0 128.5 -34.5t53.5 -98.5q0 -48 -28 -78t-77 -30q-46 0 -73 26t-27 68q0 34 8 53q-29 0 -49.5 -15.5t-31.5 -38t-17.5 -60t-8 -69t-1.5 -77.5q0 -22 3 -132t3 -198v-686q0 -144 -20 -245t-60 -160t-93.5 -85
t-127.5 -26q-77 0 -130 32t-53 99q0 48 28 77.5t77 29.5q46 0 73 -26t27 -68q0 -35 -8 -54q24 0 42 9.5t29 30t17.5 41t9.5 55.5t3.5 59t0.5 65q0 22 -2 132.5t-2 199.5z" />
    <glyph glyph-name="approxequal" unicode="&#x2248;" 
d="M926 776q57 0 96 38t45 104h174q-11 -138 -94.5 -222t-220.5 -84q-56 0 -123.5 22t-119.5 49t-113.5 49t-106.5 22q-58 0 -97.5 -38t-43.5 -104h-175q8 137 92.5 221.5t223.5 84.5q66 0 137 -22t121 -49t107 -49t98 -22zM926 393q57 0 96 36.5t45 102.5h174
q-11 -137 -94.5 -220t-220.5 -83q-56 0 -123.5 22t-119.5 49t-113.5 49t-106.5 22q-58 0 -97.5 -38t-43.5 -104h-175q8 137 92.5 220t223.5 83q66 0 137 -21.5t121 -48t107 -48t98 -21.5z" />
    <glyph glyph-name="notequal" unicode="&#x2260;" 
d="M436 266h-254v176h348l127 238h-475v178h572l166 307l153 -73l-127 -234h262v-178h-356l-129 -238h485v-176h-579l-185 -342l-151 76z" />
    <glyph glyph-name="lessequal" unicode="&#x2264;" 
d="M422 668l795 -250v-197l-1051 367v160l1051 376v-200zM160 0v176h1069v-176h-1069z" />
    <glyph glyph-name="greaterequal" unicode="&#x2265;" 
d="M967 668l-797 256v200l1053 -376v-160l-1053 -367v197zM1229 0h-1069v176h1069v-176z" />
    <glyph glyph-name="filledbox" unicode="&#x25a0;" horiz-adv-x="1277" 
d="M88 0v1102h1102v-1102h-1102z" />
    <glyph glyph-name="H22073" unicode="&#x25a1;" horiz-adv-x="1277" 
d="M88 0v1102h1102v-1102h-1102zM268 922v-742h742v742h-742z" />
    <glyph glyph-name="lozenge" unicode="&#x25ca;" horiz-adv-x="1042" 
d="M528 1221l-299 -523l299 -522l299 522zM23 698l505 863l492 -863l-492 -862z" />
    <glyph glyph-name="circle" unicode="&#x25cb;" horiz-adv-x="1232" 
d="M616 952q-176 0 -287.5 -116.5t-111.5 -286.5q0 -169 112 -285.5t287 -116.5q174 0 287 116.5t113 285.5q0 170 -113 286.5t-287 116.5zM616 1126q163 0 297 -78t208.5 -210t74.5 -289t-74.5 -289t-208 -209.5t-297.5 -77.5t-297 77.5t-207.5 209.5t-74.5 289t74.5 289
t208 210t296.5 78z" />
    <glyph glyph-name="H18533" unicode="&#x25cf;" horiz-adv-x="1232" 
d="M616 -27q-164 0 -297 77.5t-207.5 209.5t-74.5 289t74.5 289t208 210t296.5 78t297 -78t208.5 -210t74.5 -289t-74.5 -289t-208 -209.5t-297.5 -77.5z" />
    <glyph glyph-name="fi" unicode="&#xfb01;" horiz-adv-x="1122" 
d="M788 1102h187v-1102h-187v1102zM788 1485h187v-225h-187v225zM195 1102v80q0 73 7 120t25 85t52 58t85 30t128 10h96v-156h-92q-73 0 -94 -25t-21 -112v-90h207v-150h-207v-952h-186v952h-154v150h154z" />
    <glyph glyph-name="fl" unicode="&#xfb02;" horiz-adv-x="1122" 
d="M195 1102v80q0 73 7 120t25 85t52 58t85 30t128 10h96v-156h-92q-73 0 -94 -25t-21 -112v-90h207v-150h-207v-952h-186v952h-154v150h154zM975 1485v-1485h-187v1485h187z" />
    <glyph glyph-name="_001" horiz-adv-x="0" 
 />
    <glyph glyph-name="_002" horiz-adv-x="485" 
 />
    <glyph glyph-name="bullet.001" horiz-adv-x="915" 
d="M88 571q0 150 106.5 256.5t254.5 106.5q160 0 268 -105.5t108 -257.5q0 -160 -107.5 -267t-268.5 -107q-149 0 -255 108t-106 266z" />
    <glyph glyph-name="_379" horiz-adv-x="481" 
d="M147 1485h187v-225h-187v225z" />
    <glyph glyph-name="_384" horiz-adv-x="276" 
d="M45 -156h186v-202h-186v202z" />
    <glyph glyph-name="_386" horiz-adv-x="290" 
d="M51 -256v182h195v-194l-90 -185h-111l80 197h-74z" />
    <glyph glyph-name="_391" horiz-adv-x="352" 
d="M307 1485l-143 -348h-119l61 348h201z" />
    <glyph glyph-name="zero.zero" horiz-adv-x="1353" 
d="M1253 743q0 -363 -144.5 -566.5t-432.5 -203.5q-194 0 -325 96t-192 266t-61 408t61 407.5t192 265t325 95.5q146 0 256.5 -53.5t180.5 -154.5t105 -241.5t35 -318.5zM297 743v-69l739 293q-68 389 -360 389q-182 0 -280.5 -153.5t-98.5 -459.5zM1055 743q0 37 -2 60
l-738 -291q35 -193 127 -288t234 -95q182 0 280.5 153t98.5 461z" />
    <glyph glyph-name="one.onum" horiz-adv-x="686" 
d="M510 0h-188v1026h-322v135q165 5 245 38t134 138h131v-1337z" />
    <glyph glyph-name="two.onum" horiz-adv-x="1136" 
d="M586 1360q197 0 322.5 -95.5t125.5 -263.5q0 -85 -38.5 -171.5t-98.5 -161t-155.5 -160.5t-187 -157.5t-215.5 -164.5q-11 -8 -17 -12h749v-174h-1010v168q161 114 270.5 197t212 172t162 160t95 143.5t35.5 140.5q0 101 -66.5 158t-187.5 57q-58 0 -108 -15.5t-92 -48
t-67.5 -91t-27.5 -136.5l-191 2q-4 201 132.5 327t357.5 126z" />
    <glyph glyph-name="three.onum" horiz-adv-x="1136" 
d="M537 139q140 0 224.5 61.5t84.5 174.5q0 66 -30 113.5t-85.5 75t-125 40t-156.5 12.5h-33v168h26q185 0 276 52t91 161q0 96 -74 147.5t-190 51.5q-136 0 -212.5 -67.5t-90.5 -182.5l-189 17q18 179 149 288t347 109q73 0 138.5 -11.5t125 -38.5t102.5 -66t68 -98
t25 -132q0 -104 -58.5 -183t-167.5 -122q262 -76 262 -332q0 -98 -42.5 -176t-114 -126.5t-162 -74t-190.5 -25.5q-119 0 -213.5 34t-153.5 92.5t-92.5 130.5t-42.5 155l190 19q14 -122 93.5 -194.5t220.5 -72.5z" />
    <glyph glyph-name="four.onum" horiz-adv-x="1159" 
d="M705 1071l-488 -567h488v567zM1147 504v-178h-256v-326h-186v326h-695v174l695 835h186v-831h256z" />
    <glyph glyph-name="five.onum" horiz-adv-x="1155" 
d="M578 139q132 0 219.5 78.5t87.5 220.5q0 75 -27 133.5t-72.5 93t-99.5 52.5t-113 18q-98 0 -169 -40t-97 -95l-182 8l90 727h811v-178h-659l-50 -348q113 90 304 90q93 0 175 -30.5t146 -87t101.5 -145t37.5 -198.5t-41.5 -199.5t-112 -146t-161 -87t-191.5 -30.5
q-117 0 -210 34.5t-151.5 93.5t-92.5 130t-45 152l190 18q20 -124 96 -194t216 -70z" />
    <glyph glyph-name="six.onum" horiz-adv-x="1196" 
d="M311 430q0 -134 81 -212.5t218 -78.5q134 0 216.5 79t82.5 212q0 129 -82 210t-215 81q-135 0 -218 -81t-83 -210zM627 1196q-158 0 -244 -125.5t-92 -351.5q51 77 142.5 123.5t219.5 46.5q197 0 326 -126.5t129 -328.5q0 -196 -138 -327.5t-358 -131.5
q-258 0 -386 170.5t-128 479.5q0 118 17.5 222.5t59 199.5t103.5 163.5t156.5 109t212.5 40.5q101 0 182 -29.5t132 -79.5t81 -109t41 -126l-198 -2q-17 87 -84.5 134.5t-173.5 47.5z" />
    <glyph glyph-name="seven.onum" horiz-adv-x="997" 
d="M23 1157v178h976v-174q-270 -229 -418.5 -512t-172.5 -649h-222q47 685 598 1157h-761z" />
    <glyph glyph-name="eight.onum" horiz-adv-x="1204" 
d="M602 1360q213 0 341 -97.5t128 -246.5q0 -93 -46.5 -172.5t-145.5 -130.5q235 -101 235 -336q0 -125 -68 -217t-183 -138.5t-261 -46.5q-147 0 -262.5 46.5t-183.5 138.5t-68 217q0 65 20.5 124t74.5 117.5t139 94.5q-97 48 -143 129t-46 174q0 149 128 246.5t341 97.5z
M602 627q-146 0 -230.5 -67.5t-84.5 -178.5q0 -113 84 -177.5t231 -64.5q144 0 230 65t86 177q0 110 -87 178t-229 68zM883 993q0 96 -75.5 149.5t-205.5 53.5q-131 0 -208 -53.5t-77 -149.5q0 -95 78.5 -155t206.5 -60q127 0 204 60t77 155z" />
    <glyph glyph-name="nine.onum" horiz-adv-x="1193" 
d="M883 905q0 133 -81 212t-216 79q-136 0 -218.5 -79t-82.5 -212q0 -130 82.5 -210.5t216.5 -80.5q135 0 217 80t82 211zM565 139q158 0 246 125.5t94 349.5q-50 -77 -141.5 -122.5t-220.5 -45.5q-197 0 -326 126t-129 327q0 196 136.5 328.5t357.5 132.5
q259 0 386.5 -169.5t127.5 -477.5q0 -119 -17.5 -224t-58 -201t-102 -164t-155.5 -108.5t-212 -40.5q-100 0 -181.5 29.5t-133.5 79.5t-83 109t-42 126l200 3q17 -90 83 -136.5t171 -46.5z" />
    <glyph glyph-name="zero.onum" horiz-adv-x="1271" 
d="M635 -25q-182 0 -306.5 88t-182.5 242t-58 367q0 324 137 506t410 182q272 0 410.5 -182.5t138.5 -505.5q0 -212 -59 -366.5t-183.5 -242.5t-306.5 -88zM635 139q166 0 259 134.5t93 398.5q0 263 -93 393.5t-259 130.5t-257 -130.5t-91 -393.5q0 -264 91.5 -398.5
t256.5 -134.5z" />
    <glyph glyph-name="zero.onum_zero" horiz-adv-x="1271" 
d="M635 -25q-182 0 -306.5 88t-182.5 242t-58 367q0 324 137 506t410 182q272 0 410.5 -182.5t138.5 -505.5q0 -212 -59 -366.5t-183.5 -242.5t-306.5 -88zM635 139q166 0 259 134.5t93 398.5q0 33 -2 49l-678 -266q70 -316 328 -316zM287 672v-56l680 269q-69 311 -332 311
q-166 0 -257 -130.5t-91 -393.5z" />
    <glyph glyph-name="one.tnum" 
d="M809 172h354v-172h-938v172h398v969h-396v129q94 2 157 10t123.5 28.5t102.5 59t72 98.5h127v-1294z" />
    <glyph glyph-name="two.002" 
d="M715 1511q211 0 341 -102.5t130 -286.5q0 -84 -27.5 -168t-82 -165t-120.5 -156t-159.5 -157t-181.5 -150.5t-203 -151.5h815v-174h-1069v168q168 124 289 221t228.5 196.5t173 183t103 167.5t37.5 162q0 119 -73 188.5t-205 69.5q-63 0 -117 -18t-100 -56t-73.5 -104.5
t-29.5 -155.5h-192q-4 221 137 355t379 134z" />
    <glyph glyph-name="three.003" 
d="M692 129q152 0 244 75.5t92 211.5q0 62 -22 111t-60 80.5t-93 52.5t-117 29.5t-136 8.5h-31v170h25q200 0 297.5 59t97.5 187q0 114 -82.5 178t-206.5 64q-145 0 -228 -78.5t-95 -210.5h-193q18 201 155 322.5t366 121.5q100 0 184 -21t152 -64.5t106.5 -117.5t38.5 -173
q0 -116 -63 -206.5t-179 -137.5q283 -92 283 -373q0 -87 -28.5 -160.5t-78.5 -125.5t-118 -88t-146.5 -53.5t-165.5 -17.5q-128 0 -227 37t-161 103t-96.5 147t-43.5 178h192q18 -143 102 -226t236 -83z" />
    <glyph glyph-name="four.004" 
d="M831 1229l-530 -686h530v686zM1292 543v-176h-272v-367h-189v367h-737v176l735 942h191v-942h272z" />
    <glyph glyph-name="five.005" 
d="M692 129q140 0 236 96.5t96 261.5q0 89 -29 158.5t-77.5 111t-106.5 62.5t-121 21q-106 0 -182 -50t-105 -114l-186 10l96 799h852v-174h-700l-51 -422q118 112 319 112q98 0 186 -34.5t155.5 -98t107 -162t39.5 -217.5q0 -123 -43.5 -223t-117.5 -163t-168.5 -96.5
t-199.5 -33.5q-100 0 -183.5 24.5t-142.5 67t-102.5 101t-67.5 124.5t-32 140h192q24 -147 105 -224t231 -77z" />
    <glyph glyph-name="six.006" 
d="M377 475q0 -156 88 -251t235 -95q142 0 234 97t92 249q0 153 -91 252.5t-233 99.5q-145 0 -235 -99t-90 -253zM719 1356q-169 0 -263 -154.5t-102 -419.5q55 94 153 150.5t238 56.5q208 0 344 -141.5t136 -362.5q0 -138 -63.5 -254.5t-184.5 -187t-275 -70.5
q-540 0 -540 717q0 108 13 206.5t40.5 192t74 169t109 133t150 89t192.5 31.5t189 -31t138 -84.5t86.5 -117t45.5 -137.5h-203q-19 101 -91.5 158t-186.5 57z" />
    <glyph glyph-name="seven.007" 
d="M178 1311v174h1028v-174q-280 -227 -441 -560.5t-187 -750.5h-226q24 399 188 731t449 580h-811z" />
    <glyph glyph-name="eight.008" 
d="M694 1511q224 0 360 -106t136 -272q0 -100 -50.5 -192t-154.5 -150q131 -53 190.5 -155t59.5 -218q0 -139 -72.5 -241t-194 -153t-274.5 -51q-154 0 -275.5 51t-194 153t-72.5 241q0 54 12.5 104.5t39.5 102.5t78 95.5t121 70.5q-104 58 -154 150t-50 192
q0 166 135.5 272t359.5 106zM694 713q-158 0 -251 -81.5t-93 -213.5q0 -131 92.5 -210t251.5 -79q158 0 251 79t93 210q0 132 -93.5 213.5t-250.5 81.5zM1001 1110q0 111 -84 178.5t-223 67.5q-140 0 -224.5 -67.5t-84.5 -178.5q0 -114 85 -187t224 -73q138 0 222.5 73
t84.5 187z" />
    <glyph glyph-name="nine.009" 
d="M1008 1010q0 155 -87.5 250.5t-234.5 95.5q-144 0 -235 -96.5t-91 -249.5t91 -252t233 -99q145 0 234.5 98.5t89.5 252.5zM666 129q168 0 263 154.5t103 418.5q-55 -94 -154 -150t-239 -56q-207 0 -342 140.5t-135 364.5q0 138 63.5 253.5t184 186t274.5 70.5
q541 0 541 -716q0 -130 -19 -246.5t-63 -223t-109.5 -184t-165 -123t-223.5 -45.5q-105 0 -189 31t-138 84.5t-86.5 117.5t-45.5 138h203q19 -101 91 -158t186 -57z" />
    <glyph glyph-name="zero.010" 
d="M1071 743q0 306 -99 459.5t-280 153.5q-182 0 -280.5 -153.5t-98.5 -459.5q0 -308 98.5 -461t280.5 -153t280.5 153t98.5 461zM1270 743q0 -238 -61 -408t-192 -266t-325 -96q-288 0 -432.5 203.5t-144.5 566.5q0 178 35 318.5t105 241.5t180.5 154.5t256.5 53.5
q194 0 325 -95.5t192 -265t61 -407.5z" />
    <glyph glyph-name="zero.010_zero" 
d="M1270 743q0 -238 -61 -408t-192 -266t-325 -96q-288 0 -432.5 203.5t-144.5 566.5q0 178 35 318.5t105 241.5t180.5 154.5t256.5 53.5q194 0 325 -95.5t192 -265t61 -407.5zM313 743v-69l740 293q-68 389 -361 389q-182 0 -280.5 -153.5t-98.5 -459.5zM1071 743
q0 37 -2 60l-737 -291q69 -383 360 -383q182 0 280.5 153t98.5 461z" />
    <glyph glyph-name="one.case" horiz-adv-x="770" 
d="M571 0h-209v1145h-337v147q89 2 143 9.5t105 27.5t85.5 57.5t65.5 98.5h147v-1485z" />
    <glyph glyph-name="two.case" horiz-adv-x="1212" 
d="M618 1511q213 0 345.5 -104.5t132.5 -296.5q0 -69 -22 -139.5t-55 -132t-92.5 -133t-114.5 -128t-142 -131.5t-153 -128.5t-169 -133.5h787v-184h-1074v184q121 91 208 159.5t177.5 144t152 135t118 123.5t89.5 119t52 111.5t19 110.5q0 111 -71 177.5t-194 66.5
q-59 0 -111 -18.5t-95 -56t-69 -102t-28 -148.5h-213q-5 223 136.5 364t385.5 141z" />
    <glyph glyph-name="three.case" horiz-adv-x="1218" 
d="M586 154q142 0 232.5 71.5t90.5 192.5q0 96 -57.5 158t-147.5 87t-212 25h-37v186h30q383 0 383 238q0 106 -77.5 162.5t-198.5 56.5q-139 0 -224.5 -74.5t-97.5 -193.5h-213q21 203 165.5 325.5t377.5 122.5q77 0 147.5 -13.5t133 -43.5t108 -73.5t72 -108.5t26.5 -144
q0 -110 -61.5 -199t-171.5 -136q272 -93 272 -371q0 -142 -77.5 -246t-199 -153.5t-267.5 -49.5q-125 0 -225 38.5t-163.5 105t-100.5 149.5t-46 178h209q19 -126 102.5 -208t227.5 -82z" />
    <glyph glyph-name="four.case" horiz-adv-x="1296" 
d="M772 1200l-506 -635h506v635zM1251 565v-184h-268v-381h-211v381h-737v180l737 924h211v-920h268z" />
    <glyph glyph-name="five.case" horiz-adv-x="1253" 
d="M625 154q136 0 225.5 88.5t89.5 244.5q0 83 -27.5 148t-73 104.5t-101.5 59.5t-117 20q-103 0 -177 -44.5t-102 -104.5l-203 8l97 807h866v-185h-696l-52 -401q118 100 318 100q98 0 185.5 -34t155.5 -97t108 -161.5t40 -217.5q0 -122 -44 -221t-118.5 -162.5t-171 -98
t-204.5 -34.5q-125 0 -224.5 38.5t-162.5 105.5t-99 148t-47 175h207q22 -131 102.5 -208.5t225.5 -77.5z" />
    <glyph glyph-name="six.case" horiz-adv-x="1273" 
d="M334 475q0 -143 84.5 -232t224.5 -89q137 0 225 89.5t88 231.5q0 141 -88 233.5t-223 92.5q-138 0 -224.5 -92t-86.5 -234zM662 1331q-162 0 -253.5 -142.5t-99.5 -387.5q127 184 381 184q208 0 346 -140.5t138 -363.5q0 -140 -65 -255.5t-186.5 -184t-277.5 -68.5
q-184 0 -308 90t-181.5 249.5t-57.5 383.5q0 108 13.5 206t41.5 190.5t75 168t110 132t151 87.5t193 31q87 0 160.5 -22t125 -58.5t90.5 -86.5t60.5 -104t30.5 -112h-219q-17 97 -87.5 150t-180.5 53z" />
    <glyph glyph-name="seven.case" horiz-adv-x="1064" 
d="M23 1300v185h1042v-185q-292 -241 -443.5 -561t-181.5 -739h-243q23 395 187.5 724t455.5 576h-817z" />
    <glyph glyph-name="eight.case" horiz-adv-x="1288" 
d="M643 1511q226 0 363 -107t137 -271q0 -101 -48.5 -191.5t-150.5 -146.5q89 -40 146.5 -105t78.5 -130.5t21 -137.5q0 -137 -73 -240t-196.5 -156t-277.5 -53q-155 0 -278 53t-195 156t-72 240q0 72 21 138t78 131t145 104q-66 33 -112 91.5t-65.5 119.5t-19.5 124
q0 167 136.5 274t361.5 107zM643 700q-149 0 -237.5 -75t-88.5 -199q0 -123 88.5 -197.5t237.5 -74.5q151 0 239.5 74t88.5 198t-88.5 199t-239.5 75zM936 1108q0 102 -79.5 162.5t-213.5 60.5t-212.5 -60t-78.5 -163q0 -106 79.5 -174t211.5 -68t212.5 68t80.5 174z" />
    <glyph glyph-name="nine.case" horiz-adv-x="1263" 
d="M930 1010q0 143 -86 232t-226 89q-136 0 -223.5 -89.5t-87.5 -231.5t86.5 -234t222.5 -92q139 0 226.5 92t87.5 234zM602 154q161 0 251.5 142.5t98.5 387.5q-126 -182 -377 -182q-212 0 -349.5 139.5t-137.5 362.5q0 105 38 197.5t105 161t166.5 108.5t216.5 40
q141 0 247 -50t171.5 -144t98 -224t32.5 -296q0 -131 -18.5 -247.5t-61.5 -223.5t-108 -184t-165 -123t-226 -46q-107 0 -194 32.5t-142.5 87.5t-88.5 120.5t-44 138.5h217q17 -96 88 -147t182 -51z" />
    <glyph glyph-name="zero.case" horiz-adv-x="1363" 
d="M680 -27q-192 0 -324.5 99t-195 271t-62.5 405t62.5 402t195 265t324.5 96q146 0 258 -54.5t183 -155.5t107 -240t36 -313q0 -139 -22.5 -257t-69 -214t-115 -163.5t-164.5 -104t-213 -36.5zM680 154q174 0 270.5 151.5t96.5 442.5t-96 437t-271 146q-174 0 -267.5 -146
t-93.5 -437t94.5 -442.5t266.5 -151.5z" />
    <glyph glyph-name="zero.case_zero" horiz-adv-x="1363" 
d="M680 -27q-192 0 -324.5 99t-195 271t-62.5 405t62.5 402t195 265t324.5 96q146 0 258 -54.5t183 -155.5t107 -240t36 -313q0 -139 -22.5 -257t-69 -214t-115 -163.5t-164.5 -104t-213 -36.5zM319 748v-66l709 279q-32 186 -121 278t-227 92q-174 0 -267.5 -146
t-93.5 -437zM680 154q174 0 270.5 151.5t96.5 442.5q0 25 -3 49l-706 -279q35 -181 122.5 -272.5t219.5 -91.5z" />
    <glyph glyph-name="a.sups" horiz-adv-x="706" 
d="M494 983q-27 -51 -85.5 -75.5t-121.5 -24.5q-107 0 -167.5 49.5t-60.5 130.5q0 59 32.5 101t94 65.5t128.5 35.5t159 19v27q0 119 -131 119q-48 0 -81.5 -27t-37.5 -80h-145q6 95 80.5 155t195.5 60q269 0 269 -264q-5 -118 -5 -182q4 -131 13 -195h-135q-2 39 -2 86z
M307 995q87 0 126.5 43t39.5 115v25q-154 -18 -206 -38.5t-52 -70.5q0 -34 27 -54t65 -20z" />
    <glyph glyph-name="b.sups" horiz-adv-x="753" 
d="M248 1733v-293q59 92 178 92q117 0 192.5 -89t75.5 -235q0 -147 -75.5 -236t-192.5 -89q-119 0 -178 92v-78h-150v836h150zM242 1208q0 -100 41.5 -153.5t111.5 -53.5q66 0 106 56.5t40 150.5q0 93 -40 149t-106 56q-70 0 -111.5 -52.5t-41.5 -152.5z" />
    <glyph glyph-name="c.sups" horiz-adv-x="696" 
d="M360 1532q105 0 183.5 -59t97.5 -170h-143q-8 48 -44.5 77t-95.5 29q-67 0 -108 -50t-41 -153t41.5 -152.5t107.5 -49.5q122 0 144 110h143q-24 -113 -103.5 -172t-185.5 -59q-136 0 -217.5 91.5t-81.5 231.5q0 143 81.5 234.5t221.5 91.5z" />
    <glyph glyph-name="d.sups" horiz-adv-x="751" 
d="M504 1733h149v-836h-149v78q-59 -92 -178 -92q-117 0 -193 89t-76 236q0 146 76 235t193 89q119 0 178 -92v293zM356 1001q69 0 111.5 54t42.5 153t-42.5 152t-111.5 53q-67 0 -106 -55.5t-39 -149.5t39 -150.5t106 -56.5z" />
    <glyph glyph-name="e.sups" horiz-adv-x="714" 
d="M57 1214q0 138 83.5 228t219.5 90q144 0 224.5 -101.5t72.5 -265.5h-450q5 -69 48.5 -115t109.5 -46q105 0 141 81h143q-24 -84 -93 -143t-185 -59q-147 0 -230.5 96t-83.5 235zM360 1419q-58 0 -103.5 -37.5t-49.5 -111.5h299q-4 71 -46 110t-100 39z" />
    <glyph glyph-name="f.sups" horiz-adv-x="417" 
d="M115 1518v34q0 109 49.5 145t171.5 36h53v-111h-35q-55 0 -71.5 -14.5t-16.5 -63.5v-26h123v-105h-123v-516h-151v516h-86v105h86z" />
    <glyph glyph-name="g.sups" horiz-adv-x="749" 
d="M508 1518h149v-566q0 -143 -75 -215q-73 -67 -228 -67q-110 0 -182 45.5t-88 144.5h145q10 -42 39 -59t90 -17q46 0 78 14t46.5 37.5t20 44t5.5 42.5v77q-59 -92 -180 -92q-117 0 -194 87.5t-77 226.5q0 143 76.5 227t194.5 84q121 0 180 -92v78zM514 1221
q0 95 -43 144.5t-113 49.5q-67 0 -107 -52t-40 -142q0 -91 40 -144t107 -53q70 0 113 50.5t43 146.5z" />
    <glyph glyph-name="h.sups" horiz-adv-x="733" 
d="M248 1733v-299q50 98 182 98q215 0 215 -246v-389h-151v354q0 36 -3.5 60.5t-14 49.5t-33.5 37.5t-58 12.5q-137 0 -137 -186v-328h-150v836h150z" />
    <glyph glyph-name="i.sups" horiz-adv-x="346" 
d="M98 1518h150v-621h-150v621zM98 1733h150v-144h-150v144z" />
    <glyph glyph-name="j.sups" horiz-adv-x="348" 
d="M98 889v629h150v-621q0 -123 -39.5 -163t-153.5 -40h-43v115h25q41 0 51 14t10 66zM98 1733h150v-144h-150v144z" />
    <glyph glyph-name="k.sups" horiz-adv-x="681" 
d="M98 1733h150v-453l221 238h178l-223 -238l240 -383h-175l-165 274l-76 -79v-195h-150v836z" />
    <glyph glyph-name="l.sups" horiz-adv-x="346" 
d="M248 1733v-836h-150v836h150z" />
    <glyph glyph-name="m.sups" horiz-adv-x="1099" 
d="M98 897v621h150v-70q53 84 174 84q125 0 178 -96q68 96 205 96q106 0 160 -64q47 -56 47 -180v-391h-150v363q0 83 -22 116q-24 35 -84 35q-38 0 -63.5 -14.5t-38.5 -41.5t-18 -57.5t-5 -70.5v-330h-152v363q0 85 -22 116q-24 35 -82 35q-73 0 -100 -49.5t-27 -134.5
v-330h-150z" />
    <glyph glyph-name="o.sups" horiz-adv-x="727" 
d="M365 1001q71 0 112 52t41 153t-41 154t-112 53q-68 0 -110 -55t-42 -152q0 -100 41.5 -152.5t110.5 -52.5zM365 883q-61 0 -115 20t-97 58.5t-68.5 101.5t-25.5 143q0 158 89 242t217 84t216.5 -84t88.5 -242q0 -106 -44 -181t-111.5 -108.5t-149.5 -33.5z" />
    <glyph glyph-name="p.sups" horiz-adv-x="753" 
d="M248 1518v-78q59 92 178 92q117 0 192.5 -89t75.5 -235q0 -147 -75.5 -236t-192.5 -89q-119 0 -178 92v-281h-150v824h150zM242 1208q0 -100 41.5 -153.5t111.5 -53.5q66 0 106 56.5t40 150.5q0 93 -40 149t-106 56q-70 0 -111.5 -52.5t-41.5 -152.5z" />
    <glyph glyph-name="q.sups" horiz-adv-x="751" 
d="M504 1440v78h149v-824h-149v281q-59 -92 -178 -92q-117 0 -193 89t-76 236q0 146 76 235t193 89q119 0 178 -92zM510 1208q0 99 -42.5 152t-111.5 53q-67 0 -106 -55.5t-39 -149.5t39 -150.5t106 -56.5q69 0 111.5 54t42.5 153z" />
    <glyph glyph-name="r.sups" horiz-adv-x="473" 
d="M449 1516v-150q-46 4 -68 4q-68 0 -100.5 -30.5t-32.5 -116.5v-326h-150v621h148v-113q55 113 166 113q5 0 18.5 -1t18.5 -1z" />
    <glyph glyph-name="s.sups" horiz-adv-x="649" 
d="M334 883q-118 0 -192 55.5t-85 148.5h144q6 -45 41.5 -70.5t97.5 -25.5q55 0 87 20.5t32 55.5q0 57 -103 80l-94 20q-93 19 -141.5 61t-48.5 124q0 78 74.5 129t179.5 51q100 0 175.5 -46.5t94.5 -139.5h-135q-19 75 -144 75q-47 0 -77.5 -17.5t-30.5 -43.5q0 -56 86 -74
l84 -18q53 -11 88.5 -23.5t68.5 -33t49.5 -52.5t16.5 -76q0 -94 -77.5 -147t-190.5 -53z" />
    <glyph glyph-name="t.sups" horiz-adv-x="446" 
d="M117 1518v165h149v-165h127v-105h-127v-328q0 -46 16.5 -61.5t61.5 -15.5h47v-111h-110q-100 0 -132 34.5t-32 131.5v350h-90v105h90z" />
    <glyph glyph-name="u.sups" horiz-adv-x="729" 
d="M481 897v80q-59 -96 -180 -96q-109 0 -166 69q-45 57 -45 176v392h150v-367q0 -80 20 -111q27 -41 88 -41q133 0 133 193v326h150v-621h-150z" />
    <glyph glyph-name="v.sups" horiz-adv-x="632" 
d="M188 1518l134 -431l133 431h155l-219 -621h-143l-223 621h163z" />
    <glyph glyph-name="w.sups" horiz-adv-x="890" 
d="M268 1083l99 435h155l101 -435l79 435h164l-159 -621h-144l-117 444l-118 -444h-144l-159 621h161z" />
    <glyph glyph-name="x.sups" horiz-adv-x="667" 
d="M633 1518l-213 -299l225 -322h-176l-137 199l-142 -199h-163l225 313l-213 308h174l127 -183l131 183h162z" />
    <glyph glyph-name="y.sups" horiz-adv-x="622" 
d="M133 694h-65v113h55q48 0 67.5 13t38.5 67l9 14l-226 617h162l135 -433l135 433h154l-217 -609q-50 -131 -97 -173t-151 -42z" />
    <glyph glyph-name="z.sups" horiz-adv-x="608" 
d="M39 897v111l321 399h-299v111h490v-111l-326 -399h334v-111h-520z" />
    <glyph glyph-name="uni2070.zero" horiz-adv-x="817" 
d="M748 1315q0 -196 -87.5 -314t-250.5 -118t-248.5 117.5t-85.5 314.5t85.5 314.5t248.5 117.5t250.5 -118t87.5 -314zM231 1315v-21l351 152q-36 190 -172 190q-86 0 -132.5 -83.5t-46.5 -237.5zM592 1315v20l-350 -151q35 -189 168 -189q90 0 136 82.5t46 237.5z" />
    <glyph glyph-name="period.sups" horiz-adv-x="329" 
d="M248 897h-166v166h166v-166z" />
    <glyph glyph-name="hyphen.sups" horiz-adv-x="477" 
d="M428 1139h-379v133h379v-133z" />
    <glyph glyph-name="comma.sups" horiz-adv-x="354" 
d="M90 897v166h172v-178l-90 -178h-88l82 190h-76z" />
    <glyph glyph-name="a.subs" horiz-adv-x="706" 
d="M494 -176q-27 -51 -85.5 -75.5t-121.5 -24.5q-107 0 -167.5 49.5t-60.5 130.5q0 59 32.5 101t94 65.5t128.5 35.5t159 19v27q0 65 -34.5 91.5t-96.5 26.5q-48 0 -81.5 -26.5t-37.5 -79.5h-145q6 95 80.5 155t195.5 60q269 0 269 -264q-5 -118 -5 -183q4 -129 13 -194
h-135q-2 39 -2 86zM307 -164q87 0 126.5 43t39.5 115v24q-155 -18 -206.5 -38.5t-51.5 -69.5q0 -34 27 -54t65 -20z" />
    <glyph glyph-name="b.subs" horiz-adv-x="753" 
d="M248 573v-292q59 92 178 92q117 0 192.5 -89t75.5 -235q0 -147 -75.5 -236t-192.5 -89q-119 0 -178 92v-78h-150v835h150zM242 49q0 -100 41.5 -153.5t111.5 -53.5q66 0 106 56.5t40 150.5q0 93 -40 149t-106 56q-70 0 -111.5 -52.5t-41.5 -152.5z" />
    <glyph glyph-name="c.subs" horiz-adv-x="696" 
d="M360 373q105 0 183.5 -59.5t97.5 -170.5h-143q-8 48 -44.5 77.5t-95.5 29.5q-67 0 -108 -50t-41 -153t41.5 -153t107.5 -50q122 0 144 111h143q-24 -113 -103.5 -172t-185.5 -59q-136 0 -217.5 91.5t-81.5 231.5q0 143 81.5 234.5t221.5 91.5z" />
    <glyph glyph-name="d.subs" horiz-adv-x="751" 
d="M504 573h149v-835h-149v78q-59 -92 -178 -92q-117 0 -193 89t-76 236q0 146 76 235t193 89q119 0 178 -92v292zM356 -158q69 0 111.5 54t42.5 153t-42.5 152t-111.5 53q-67 0 -106 -55.5t-39 -149.5t39 -150.5t106 -56.5z" />
    <glyph glyph-name="e.subs" horiz-adv-x="714" 
d="M57 55q0 138 83.5 228t219.5 90q144 0 224.5 -101.5t72.5 -265.5h-450q5 -69 48.5 -115.5t109.5 -46.5q105 0 141 82h143q-24 -84 -93 -143t-185 -59q-147 0 -230.5 96t-83.5 235zM360 260q-58 0 -103.5 -37.5t-49.5 -111.5h299q-4 71 -46 110t-100 39z" />
    <glyph glyph-name="f.subs" horiz-adv-x="417" 
d="M115 358v35q0 109 49 144.5t172 35.5h53v-110h-35q-55 0 -71.5 -14.5t-16.5 -63.5v-27h123v-104h-123v-516h-151v516h-86v104h86z" />
    <glyph glyph-name="g.subs" horiz-adv-x="749" 
d="M508 358h149v-565q0 -143 -75 -215q-73 -67 -228 -67q-110 0 -182 45.5t-88 144.5h145q10 -42 39 -59t90 -17q46 0 78 14t46.5 37t20 43.5t5.5 42.5v78q-59 -92 -180 -92q-117 0 -194 87t-77 226q0 143 76.5 227.5t194.5 84.5q121 0 180 -92v77zM514 61q0 95 -43 145
t-113 50q-67 0 -107 -52.5t-40 -142.5q0 -91 40 -143.5t107 -52.5q71 0 113.5 50t42.5 146z" />
    <glyph glyph-name="h.subs" horiz-adv-x="733" 
d="M248 573v-299q51 99 182 99q215 0 215 -246v-389h-151v354q0 36 -3.5 60.5t-14 49.5t-33.5 37.5t-58 12.5q-137 0 -137 -186v-328h-150v835h150z" />
    <glyph glyph-name="i.subs" horiz-adv-x="346" 
d="M98 358h150v-620h-150v620zM98 573h150v-143h-150v143z" />
    <glyph glyph-name="j.subs" horiz-adv-x="348" 
d="M98 -270v628h150v-620q0 -123 -39.5 -163t-153.5 -40h-43v115h25q41 0 51 14t10 66zM98 573h150v-143h-150v143z" />
    <glyph glyph-name="k.subs" horiz-adv-x="681" 
d="M98 573h150v-452l221 237h178l-223 -237l240 -383h-175l-165 274l-76 -80v-194h-150v835z" />
    <glyph glyph-name="l.subs" horiz-adv-x="346" 
d="M248 573v-835h-150v835h150z" />
    <glyph glyph-name="m.subs" horiz-adv-x="1099" 
d="M98 -262v620h150v-69q53 84 174 84q125 0 178 -97q69 97 205 97q106 0 160 -64q47 -56 47 -180v-391h-150v362q0 84 -22 117q-24 35 -84 35q-38 0 -63.5 -14.5t-38.5 -41.5t-18 -57.5t-5 -70.5v-330h-152v362q0 86 -22 117q-24 35 -82 35q-73 0 -100 -49.5t-27 -134.5
v-330h-150z" />
    <glyph glyph-name="uni207F.011" horiz-adv-x="733" 
d="M248 358v-84q51 99 182 99q215 0 215 -246v-389h-151v354q0 36 -3.5 60.5t-14 49.5t-33.5 37.5t-58 12.5q-137 0 -137 -186v-328h-150v620h150z" />
    <glyph glyph-name="o.subs" horiz-adv-x="727" 
d="M365 -158q71 0 112 52t41 153t-41 154t-112 53q-68 0 -110 -55t-42 -152q0 -100 41.5 -152.5t110.5 -52.5zM365 -276q-61 0 -115 20t-97 58.5t-68.5 101.5t-25.5 143q0 158 89 242t217 84t216.5 -84t88.5 -242q0 -106 -44 -181t-111.5 -108.5t-149.5 -33.5z" />
    <glyph glyph-name="p.subs" horiz-adv-x="753" 
d="M248 358v-77q59 92 178 92q117 0 192.5 -89t75.5 -235q0 -147 -75.5 -236t-192.5 -89q-119 0 -178 92v-281h-150v823h150zM242 49q0 -100 41.5 -153.5t111.5 -53.5q66 0 106 56.5t40 150.5q0 93 -40 149t-106 56q-70 0 -111.5 -52.5t-41.5 -152.5z" />
    <glyph glyph-name="q.subs" horiz-adv-x="751" 
d="M504 281v77h149v-823h-149v281q-59 -92 -178 -92q-117 0 -193 89t-76 236q0 146 76 235t193 89q119 0 178 -92zM510 49q0 99 -42.5 152t-111.5 53q-67 0 -106 -55.5t-39 -149.5t39 -150.5t106 -56.5q69 0 111.5 54t42.5 153z" />
    <glyph glyph-name="r.subs" horiz-adv-x="473" 
d="M449 356v-149q-46 4 -68 4q-68 0 -100.5 -31t-32.5 -117v-325h-150v620h148v-112q54 112 166 112q5 0 18.5 -1t18.5 -1z" />
    <glyph glyph-name="s.subs" horiz-adv-x="649" 
d="M334 -276q-118 0 -192 55.5t-85 148.5h144q6 -45 41.5 -70.5t97.5 -25.5q55 0 87 20.5t32 55.5q0 57 -103 80l-94 20q-93 19 -141.5 61t-48.5 124q0 78 74.5 129t179.5 51q100 0 175.5 -47t94.5 -140h-135q-19 76 -144 76q-47 0 -77.5 -17.5t-30.5 -43.5q0 -56 86 -74
l84 -18q53 -11 88.5 -23.5t68.5 -33t49.5 -52.5t16.5 -76q0 -94 -77.5 -147t-190.5 -53z" />
    <glyph glyph-name="t.subs" horiz-adv-x="446" 
d="M117 358v166h149v-166h127v-104h-127v-328q0 -46 16.5 -62t61.5 -16h47v-110h-110q-100 0 -132 34.5t-32 131.5v350h-90v104h90z" />
    <glyph glyph-name="u.subs" horiz-adv-x="729" 
d="M481 -262v80q-60 -97 -180 -97q-108 0 -166 70q-45 57 -45 176v391h150v-366q0 -80 20 -111q27 -41 88 -41q133 0 133 193v325h150v-620h-150z" />
    <glyph glyph-name="v.subs" horiz-adv-x="632" 
d="M188 358l134 -430l133 430h155l-219 -620h-143l-223 620h163z" />
    <glyph glyph-name="w.subs" horiz-adv-x="890" 
d="M268 -76l99 434h155l101 -434l79 434h164l-159 -620h-144l-117 444l-118 -444h-144l-159 620h161z" />
    <glyph glyph-name="x.subs" horiz-adv-x="667" 
d="M633 358l-213 -299l225 -321h-176l-137 199l-142 -199h-163l225 313l-213 307h174l127 -182l131 182h162z" />
    <glyph glyph-name="y.subs" horiz-adv-x="622" 
d="M133 -465h-65v113h55q48 0 67.5 13t38.5 67l9 14l-226 616h162l135 -432l135 432h154l-217 -608q-50 -131 -97 -173t-151 -42z" />
    <glyph glyph-name="z.subs" horiz-adv-x="608" 
d="M39 -262v110l321 400h-299v110h490v-110l-326 -400h334v-110h-520z" />
    <glyph glyph-name="uni2080.zero" horiz-adv-x="817" 
d="M748 156q0 -196 -87.5 -314t-250.5 -118t-248.5 117.5t-85.5 314.5t85.5 314.5t248.5 117.5t250.5 -118t87.5 -314zM231 156v-21l351 152q-36 190 -172 190q-86 0 -132.5 -83.5t-46.5 -237.5zM592 156v20l-350 -151q35 -189 168 -189q90 0 136 82.5t46 237.5z" />
    <glyph glyph-name="period.subs" horiz-adv-x="329" 
d="M248 -262h-166v166h166v-166z" />
    <glyph glyph-name="hyphen.subs" horiz-adv-x="477" 
d="M428 -20h-379v133h379v-133z" />
    <glyph glyph-name="comma.subs" horiz-adv-x="354" 
d="M90 -262v166h172v-178l-90 -179h-88l82 191h-76z" />
    <glyph glyph-name="uni207C.012" horiz-adv-x="757" 
d="M672 98h-586v133h586v-133zM672 -143h-586v133h586v-133z" />
    <glyph glyph-name="uni207A.013" horiz-adv-x="761" 
d="M449 -262h-136v242h-252v133h252v245h136v-245h251v-133h-251v-242z" />
    <glyph glyph-name="uni207B.014" horiz-adv-x="743" 
d="M63 113h619v-133h-619v133z" />
    <glyph glyph-name="one.frac" horiz-adv-x="475" 
d="M360 649h-151v631h-182v102q99 2 145.5 20.5t75.5 82.5h112v-836z" />
    <glyph glyph-name="two.frac" horiz-adv-x="712" 
d="M362 1499q121 0 199 -59t78 -162q0 -120 -103.5 -240t-310.5 -260h432v-129h-612v121q232 183 335 293t103 205q0 59 -34.5 90t-92.5 31q-63 0 -104.5 -43.5t-40.5 -131.5h-150q-2 129 80 207t221 78z" />
    <glyph glyph-name="three.frac" horiz-adv-x="739" 
d="M365 748q71 0 116 36.5t45 100.5q0 75 -49 107t-145 32h-49v121h41q184 0 184 125q0 58 -40 88.5t-99 30.5q-143 0 -166 -158h-144q11 124 95 196t225 72q53 0 101.5 -13t89.5 -39t65 -70t24 -101q0 -60 -31.5 -108.5t-84.5 -75.5q66 -28 101.5 -83t35.5 -120
q0 -123 -91 -188.5t-227 -65.5q-138 0 -221.5 79.5t-91.5 198.5h144q11 -72 54 -118.5t118 -46.5z" />
    <glyph glyph-name="four.frac" horiz-adv-x="772" 
d="M444 1292l-249 -325h249v325zM739 967v-125h-143v-193h-152v193h-411v119l413 524h150v-518h143z" />
    <glyph glyph-name="five.frac" horiz-adv-x="743" 
d="M371 748q69 0 113 45t44 122q0 83 -48 131t-113 48q-55 0 -94.5 -23.5t-51.5 -62.5l-139 6l55 471h508v-129h-383l-26 -201q62 49 170 49q113 0 194.5 -76t81.5 -210q0 -133 -89 -208t-224 -75q-137 0 -220 80t-88 196h142q8 -76 50 -119.5t118 -43.5z" />
    <glyph glyph-name="six.frac" horiz-adv-x="743" 
d="M223 918q0 -80 43 -125t111 -45q71 0 114.5 45t43.5 125t-43.5 126t-112.5 46t-112.5 -46t-43.5 -126zM387 1389q-81 0 -127.5 -74.5t-46.5 -198.5q70 88 193 88q119 0 199.5 -77.5t80.5 -206.5q0 -128 -85.5 -206.5t-221.5 -78.5q-159 0 -238.5 111t-79.5 298
q0 95 18 174t56 143.5t104.5 101t155.5 36.5q127 0 197 -67t78 -162h-150q-4 59 -40 89t-93 30z" />
    <glyph glyph-name="seven.frac" horiz-adv-x="634" 
d="M23 1356v129h608v-129q-168 -168 -249 -328t-93 -379h-166q13 388 354 707h-454z" />
    <glyph glyph-name="eight.frac" horiz-adv-x="763" 
d="M383 1499q132 0 210.5 -59t78.5 -154q0 -123 -105 -190q129 -74 129 -209q0 -119 -88.5 -185.5t-224.5 -66.5t-224.5 66.5t-88.5 185.5q0 140 129 209q-52 30 -78.5 81t-26.5 109q0 95 78.5 154t210.5 59zM383 1038q-73 0 -115.5 -38t-42.5 -105q0 -71 42.5 -109
t115.5 -38q74 0 117 38t43 109q0 67 -43.5 105t-116.5 38zM524 1266q0 59 -37 91t-104 32q-64 0 -102.5 -32t-38.5 -91t38.5 -93t102.5 -34q66 0 103.5 33.5t37.5 93.5z" />
    <glyph glyph-name="nine.frac" horiz-adv-x="735" 
d="M518 1217q0 82 -43.5 127t-112.5 45q-70 0 -112.5 -45t-42.5 -127q0 -80 43 -126.5t112 -46.5q68 0 112 46.5t44 126.5zM354 748q79 0 125.5 73t48.5 197q-70 -88 -194 -88q-120 0 -200.5 78t-80.5 209q0 126 86.5 204t222.5 78q158 0 237 -111t79 -298
q0 -94 -18.5 -173.5t-57.5 -144t-105.5 -101t-154.5 -36.5q-126 0 -195 66.5t-77 162.5h149q6 -59 42 -87.5t93 -28.5z" />
    <glyph glyph-name="zero.frac" horiz-adv-x="817" 
d="M410 635q-163 0 -248.5 117.5t-85.5 314.5t85.5 314.5t248.5 117.5t250.5 -118t87.5 -314t-87.5 -314t-250.5 -118zM410 748q90 0 136 82t46 237t-46 238.5t-136 83.5q-86 0 -132.5 -84t-46.5 -238t46.5 -236.5t132.5 -82.5z" />
    <glyph glyph-name="zero.frac_zero" horiz-adv-x="817" 
d="M748 1067q0 -196 -87.5 -314t-250.5 -118t-248.5 117.5t-85.5 314.5t85.5 314.5t248.5 117.5t250.5 -118t87.5 -314zM231 1067v-20l351 151q-17 93 -61 142t-111 49q-86 0 -132.5 -84t-46.5 -238zM592 1067v20l-350 -151q35 -188 168 -188q90 0 136 82t46 237z" />
    <glyph glyph-name="one.dnom" horiz-adv-x="475" 
d="M360 0h-151v631h-182v102q99 2 145.5 20.5t75.5 82.5h112v-836z" />
    <glyph glyph-name="two.dnom" horiz-adv-x="712" 
d="M362 850q121 0 199 -59t78 -162q0 -120 -103.5 -240t-310.5 -260h432v-129h-612v121q233 184 335.5 293t102.5 204q0 59 -34.5 90t-92.5 31q-63 0 -104.5 -43t-40.5 -131h-150q-2 129 80 207t221 78z" />
    <glyph glyph-name="three.dnom" horiz-adv-x="739" 
d="M365 98q71 0 116 37t45 101q0 75 -49 107t-145 32h-49v121h41q184 0 184 125q0 58 -40 88t-99 30q-72 0 -113.5 -41t-52.5 -116h-144q11 124 95 196t225 72q53 0 101.5 -13t89.5 -39t65 -70t24 -101q0 -60 -32 -109t-84 -76q66 -29 101.5 -83t35.5 -119
q0 -123 -91 -188.5t-227 -65.5q-138 0 -221.5 79.5t-91.5 198.5h144q12 -72 54.5 -119t117.5 -47z" />
    <glyph glyph-name="four.dnom" horiz-adv-x="772" 
d="M444 643l-249 -326h249v326zM739 317v-124h-143v-193h-152v193h-411v118l413 525h150v-519h143z" />
    <glyph glyph-name="five.dnom" horiz-adv-x="743" 
d="M371 98q69 0 113 45.5t44 122.5q0 83 -48 130.5t-113 47.5q-55 0 -94.5 -23.5t-51.5 -62.5l-139 7l55 471h508v-129h-383l-26 -201q62 49 170 49q113 0 194.5 -76.5t81.5 -210.5q0 -133 -89 -207.5t-224 -74.5q-137 0 -220 80t-88 196h142q8 -76 50 -120t118 -44z" />
    <glyph glyph-name="six.dnom" horiz-adv-x="743" 
d="M223 268q0 -80 43 -125t111 -45q71 0 114.5 45t43.5 125t-43.5 126t-112.5 46t-112.5 -46t-43.5 -126zM387 739q-81 0 -127.5 -74t-46.5 -198q70 88 193 88q119 0 199.5 -78t80.5 -207q0 -128 -85.5 -206t-221.5 -78q-159 0 -238.5 111t-79.5 298q0 95 18 174t56 143.5
t104.5 101t155.5 36.5q127 0 197 -67t78 -162h-150q-4 59 -40 88.5t-93 29.5z" />
    <glyph glyph-name="seven.dnom" horiz-adv-x="634" 
d="M23 707v129h608v-129q-168 -168 -249 -328t-93 -379h-166q13 388 354 707h-454z" />
    <glyph glyph-name="eight.dnom" horiz-adv-x="763" 
d="M383 850q132 0 210.5 -59t78.5 -154q0 -124 -105 -191q129 -74 129 -208q0 -119 -88.5 -185.5t-224.5 -66.5t-224.5 66.5t-88.5 185.5q0 139 129 208q-52 29 -78.5 80.5t-26.5 110.5q0 95 78.5 154t210.5 59zM383 389q-73 0 -115.5 -38t-42.5 -105q0 -71 42.5 -109.5
t115.5 -38.5t116.5 38.5t43.5 109.5q0 67 -43.5 105t-116.5 38zM524 616q0 59 -37 91t-104 32q-64 0 -102.5 -32t-38.5 -91t38.5 -93t102.5 -34q66 0 103.5 33.5t37.5 93.5z" />
    <glyph glyph-name="nine.dnom" horiz-adv-x="735" 
d="M518 567q0 82 -43.5 127t-112.5 45q-70 0 -112.5 -45t-42.5 -127q0 -80 43 -126t112 -46q68 0 112 46t44 126zM354 98q79 0 125.5 73.5t48.5 197.5q-70 -88 -194 -88q-120 0 -200.5 77.5t-80.5 208.5q0 127 86.5 205t222.5 78q158 0 237 -111.5t79 -298.5
q0 -94 -18.5 -173.5t-57.5 -143.5t-105.5 -100.5t-154.5 -36.5q-126 0 -195 66.5t-77 162.5h149q6 -59 42 -88t93 -29z" />
    <glyph glyph-name="zero.dnom" horiz-adv-x="817" 
d="M410 -14q-163 0 -248.5 117.5t-85.5 314.5t85.5 314.5t248.5 117.5t250.5 -118t87.5 -314t-87.5 -314t-250.5 -118zM410 98q90 0 136 82.5t46 237.5t-46 238t-136 83q-86 0 -132.5 -83.5t-46.5 -237.5t46.5 -237t132.5 -83z" />
    <glyph glyph-name="zero.dnom_zero" horiz-adv-x="817" 
d="M748 418q0 -196 -87.5 -314t-250.5 -118t-248.5 117.5t-85.5 314.5t85.5 314.5t248.5 117.5t250.5 -118t87.5 -314zM231 418v-21l351 152q-36 190 -172 190q-86 0 -132.5 -83.5t-46.5 -237.5zM592 418v20l-350 -151q35 -189 168 -189q90 0 136 82.5t46 237.5z" />
    <glyph glyph-name="ampersand.case" horiz-adv-x="1464" 
d="M563 -27q-223 0 -360 124t-137 311q0 164 100 278t274 174q-81 95 -122.5 175.5t-41.5 162.5q0 141 114 228t290 87q56 0 108.5 -10t103 -34t87.5 -59.5t59.5 -91t22.5 -124.5q0 -257 -303 -385l295 -313q57 128 69 309h203q-23 -266 -135 -453l332 -352h-277l-178 188
q-212 -215 -504 -215zM563 139q234 0 383 178l-395 424q-136 -49 -207.5 -127.5t-71.5 -197.5q0 -126 84.5 -201.5t206.5 -75.5zM483 1212q0 -120 160 -280l4 -4q107 39 169.5 108.5t62.5 155.5t-53.5 126t-141.5 40q-86 0 -143.5 -37.5t-57.5 -108.5z" />
    <glyph glyph-name="hyphen.015" horiz-adv-x="829" 
d="M739 668h-651v176h651v-176z" />
    <glyph glyph-name="endash.016" horiz-adv-x="1048" 
d="M973 668h-895v176h895v-176z" />
    <glyph glyph-name="emdash.017" horiz-adv-x="1480" 
d="M1415 668h-1349v176h1349v-176z" />
    <glyph glyph-name="question.case" horiz-adv-x="1093" 
d="M565 1511q104 0 193.5 -22t159 -64.5t109.5 -113t40 -160.5q0 -70 -28.5 -135t-79.5 -118.5t-99 -91.5t-110 -77q-97 -63 -129.5 -106.5t-32.5 -124.5v-64h-211v70q0 64 16.5 114.5t53 94.5t80.5 79t114 80q39 25 63.5 42t56 44.5t49.5 51.5t31 56.5t13 66.5
q0 96 -78.5 147t-216.5 51q-89 0 -155.5 -25t-102.5 -67t-54 -87.5t-20 -96.5h-200q0 201 151 328.5t387 127.5zM604 0h-235v236h235v-236z" />
    <glyph glyph-name="questiondown.case" horiz-adv-x="1093" 
d="M528 -27q-104 0 -193 22t-159 65t-109.5 113.5t-39.5 162.5q0 39 11 76.5t24.5 66t42.5 61.5t48.5 52.5t59 49t58.5 42.5t61 41q4 3 6.5 4.5t5.5 3.5q98 64 129 107t31 125v63h213v-70q0 -64 -16.5 -114.5t-53 -94.5t-80.5 -79t-114 -80q-107 -64 -142 -95
q-71 -63 -71 -143q0 -97 77.5 -147.5t214.5 -50.5q90 0 157 26t103 69t54 89.5t20 97.5l201 -6q0 -201 -151.5 -329t-387.5 -128zM725 1249h-236v236h236v-236z" />
    <glyph glyph-name="exclam.case" horiz-adv-x="542" 
d="M330 434h-117l-53 602v449h223v-449zM389 0h-235v236h235v-236z" />
    <glyph glyph-name="exclamdown.case" horiz-adv-x="542" 
d="M213 1028h117l53 -600v-428h-223v428zM389 1249h-235v236h235v-236z" />
    <glyph glyph-name="guilsinglleft.018" horiz-adv-x="591" 
d="M346 285l-326 469l326 467h201l-307 -467l307 -469h-201z" />
    <glyph glyph-name="guilsinglright.019" horiz-adv-x="591" 
d="M571 754l-325 -469h-201l309 469l-309 467h201z" />
    <glyph glyph-name="guilsinglleft_guilsinglleft" horiz-adv-x="1052" 
d="M346 285l-326 469l326 467h201l-307 -467l307 -469h-201zM807 285l-326 469l326 467h201l-308 -467l308 -469h-201z" />
    <glyph glyph-name="guilsinglright_guilsinglright" horiz-adv-x="1052" 
d="M571 754l-325 -469h-201l309 469l-309 467h201zM1032 754l-325 -469h-201l309 469l-309 467h201z" />
    <glyph glyph-name="parenleft.case" horiz-adv-x="501" 
d="M66 745q0 372 223 740h198q-208 -336 -208 -740q0 -409 208 -745h-198q-223 368 -223 745z" />
    <glyph glyph-name="parenright.case" horiz-adv-x="501" 
d="M438 745q0 -377 -223 -745h-199q207 334 207 745q0 406 -207 740h199q223 -368 223 -740z" />
    <glyph glyph-name="bracketleft.case" horiz-adv-x="677" 
d="M176 1485h461v-158h-266v-1169h266v-158h-461v1485z" />
    <glyph glyph-name="bracketright.case" horiz-adv-x="677" 
d="M41 1485h461v-1485h-461v158h266v1169h-266v158z" />
    <glyph glyph-name="braceleft.case" horiz-adv-x="614" 
d="M573 0h-96q-95 0 -153 14.5t-91 52.5t-44 92t-11 144v154q0 53 -5 87t-20.5 64.5t-47.5 45t-82 14.5v149q50 0 82 14.5t47.5 45t20.5 64.5t5 87v154q0 91 11 145t44 91.5t90.5 52t153.5 14.5h96v-158h-79q-72 0 -93.5 -27.5t-21.5 -115.5v-160q0 -136 -38.5 -196
t-123.5 -83v-4q84 -21 123 -83.5t39 -196.5v-160q0 -88 21.5 -115.5t93.5 -27.5h79v-158z" />
    <glyph glyph-name="braceright.case" horiz-adv-x="614" 
d="M41 0v158h80q72 0 93.5 27.5t21.5 115.5v160q0 134 39 196.5t122 83.5v4q-84 21 -122.5 82.5t-38.5 196.5v160q0 88 -21.5 115.5t-93.5 27.5h-80v158h96q96 0 153.5 -14.5t90.5 -52t44 -91.5t11 -145v-154q0 -52 5.5 -86.5t21 -65t47.5 -45t82 -14.5v-149
q-50 0 -82 -14.5t-47.5 -45t-21 -65t-5.5 -86.5v-154q0 -90 -11 -144t-44 -92t-91 -52.5t-153 -14.5h-96z" />
    <glyph glyph-name="bar.case" horiz-adv-x="522" 
d="M176 1485h170v-1485h-170v1485z" />
    <glyph glyph-name="brokenbar.case" horiz-adv-x="464" 
d="M147 1485h170v-533h-170v533zM147 532h170v-532h-170v532z" />
    <glyph glyph-name="period.020" horiz-adv-x="501" 
d="M369 625h-236v235h236v-235z" />
    <glyph glyph-name="bullet.021" horiz-adv-x="915" 
d="M88 766q0 150 106.5 256t254.5 106q160 0 268 -105t108 -257q0 -160 -107.5 -267.5t-268.5 -107.5q-149 0 -255 108.5t-106 266.5z" />
    <glyph glyph-name="plus.022" 
d="M788 195h-186v462h-463v177h463v450h186v-450h463v-177h-463v-462z" />
    <glyph glyph-name="minus.023" 
d="M139 834h1112v-177h-1112v177z" />
    <glyph glyph-name="divide.024" 
d="M582 260v236h235v-236h-235zM582 973v235h235v-235h-235zM1229 635h-1069v176h1069v-176z" />
    <glyph glyph-name="multiply.025" 
d="M1176 389l-132 -133l-356 354l-342 -340l-133 131l344 342l-344 347l133 131l342 -342l344 340l133 -132l-344 -344z" />
    <glyph glyph-name="equal.026" 
d="M1208 874h-1026v179h1026v-179zM1208 461h-1026v176h1026v-176z" />
    <glyph glyph-name="plusminus.027" 
d="M600 967v317h188v-317h441v-176h-441v-320h-188v320h-440v176h440zM1229 195h-1069v176h1069v-176z" />
    <glyph glyph-name="less.028" 
d="M160 823l1050 465v-201l-817 -344l817 -337v-199l-1050 457v159z" />
    <glyph glyph-name="greater.029" 
d="M1231 823v-159l-1051 -457v199l817 337l-817 344v201z" />
    <glyph glyph-name="lessequal.030" 
d="M422 862l795 -250v-196l-1051 366v160l1051 377v-201zM160 195v176h1069v-176h-1069z" />
    <glyph glyph-name="greaterequal.031" 
d="M967 862l-797 256v201l1053 -377v-160l-1053 -366v196zM1229 195h-1069v176h1069v-176z" />
    <glyph glyph-name="notequal.032" 
d="M436 461h-254v176h348l127 237h-475v179h572l166 307l153 -74l-127 -233h262v-179h-356l-129 -237h485v-176h-579l-185 -342l-151 76z" />
    <glyph glyph-name="acute.case" horiz-adv-x="579" 
d="M535 1815l-306 -232h-184l225 232h265z" />
    <glyph glyph-name="breve.case" horiz-adv-x="735" 
d="M532 1815h158q-13 -112 -93.5 -178t-231.5 -66q-147 0 -226.5 66t-93.5 178h158q18 -119 164 -119q144 0 165 119z" />
    <glyph glyph-name="caron.case" horiz-adv-x="806" 
d="M313 1583l-268 232h219l137 -115l142 115h219l-277 -232h-172z" />
    <glyph glyph-name="cedilla.case" horiz-adv-x="501" 
d="M45 -360l33 81q61 -28 119 -28q51 0 88 15.5t37 49.5q0 29 -26 45.5t-65 16.5q-46 0 -77 -19l-62 35l105 170h108l-65 -104q30 6 61 6q73 0 114.5 -37.5t41.5 -101.5q0 -75 -67.5 -121.5t-153.5 -46.5q-111 0 -191 39z" />
    <glyph glyph-name="circumflex.case" horiz-adv-x="806" 
d="M492 1815l270 -232h-219l-140 115l-139 -115h-219l277 232h170z" />
    <glyph glyph-name="dieresis.case" horiz-adv-x="747" 
d="M45 1800h186v-203h-186v203zM514 1800h188v-203h-188v203z" />
    <glyph glyph-name="dotaccent.case" horiz-adv-x="276" 
d="M45 1802h186v-203h-186v203z" />
    <glyph glyph-name="grave.case" horiz-adv-x="579" 
d="M348 1583l-303 232h264l226 -232h-187z" />
    <glyph glyph-name="hungarumlaut.case" horiz-adv-x="921" 
d="M535 1815l-306 -232h-184l225 232h265zM877 1815l-306 -232h-184l225 232h265z" />
    <glyph glyph-name="overscore.case" horiz-adv-x="704" 
d="M659 1620h-614v154h614v-154z" />
    <glyph glyph-name="ogonek.case" horiz-adv-x="440" 
d="M186 0h209q-180 -88 -180 -164q0 -47 27 -69.5t69 -22.5q43 0 84 18v-124q-57 -23 -123 -23q-59 0 -108 17.5t-84 63t-35 114.5q0 112 141 190z" />
    <glyph glyph-name="ring.case" horiz-adv-x="460" 
d="M229 1915q79 0 133 -48.5t54 -125.5q0 -74 -54 -124t-133 -50q-78 0 -131 49.5t-53 124.5q0 76 53.5 125t130.5 49zM229 1829q-36 0 -62 -25t-26 -63q0 -37 26 -61.5t62 -24.5t62 24.5t26 61.5q0 38 -26 63t-62 25z" />
    <glyph glyph-name="tilde.case" horiz-adv-x="843" 
d="M557 1720q84 0 96 92h146q-22 -120 -85.5 -175.5t-152.5 -55.5q-53 0 -104.5 24t-95 48t-78.5 24q-84 0 -93 -90h-145q20 115 82.5 172.5t153.5 57.5q42 0 82.5 -15t67 -33.5t61 -33.5t65.5 -15z" />
    <glyph glyph-name="a.salt" horiz-adv-x="1232" 
d="M899 928v174h186v-1102h-186v166q-112 -193 -360 -193q-95 0 -179.5 38.5t-148.5 110t-101.5 181.5t-37.5 244q0 131 37.5 240.5t101.5 181.5t148.5 111.5t179.5 39.5q248 0 360 -192zM907 547q0 105 -26.5 186.5t-72 130t-102 73t-120.5 24.5q-145 0 -230.5 -108
t-85.5 -306t85.5 -306t230.5 -108q64 0 120.5 24.5t102 73t72 130t26.5 186.5z" />
    <glyph glyph-name="aacute.salt" horiz-adv-x="1232" 
d="M899 928v174h186v-1102h-186v166q-112 -193 -360 -193q-95 0 -179.5 38.5t-148.5 110t-101.5 181.5t-37.5 244q0 131 37.5 240.5t101.5 181.5t148.5 111.5t179.5 39.5q248 0 360 -192zM907 547q0 105 -26.5 186.5t-72 130t-102 73t-120.5 24.5q-145 0 -230.5 -108
t-85.5 -306t85.5 -306t230.5 -108q64 0 120.5 24.5t102 73t72 130t26.5 186.5zM926 1485l-269 -238h-155l184 238h240z" />
    <glyph glyph-name="abreve.salt" horiz-adv-x="1232" 
d="M899 928v174h186v-1102h-186v166q-112 -193 -360 -193q-95 0 -179.5 38.5t-148.5 110t-101.5 181.5t-37.5 244q0 131 37.5 240.5t101.5 181.5t148.5 111.5t179.5 39.5q248 0 360 -192zM907 547q0 105 -26.5 186.5t-72 130t-102 73t-120.5 24.5q-145 0 -230.5 -108
t-85.5 -306t85.5 -306t230.5 -108q64 0 120.5 24.5t102 73t72 130t26.5 186.5zM782 1485h146q-6 -50 -25.5 -91.5t-56.5 -78t-99.5 -57.5t-146.5 -21q-80 0 -142 21t-99 57t-56.5 78.5t-23.5 91.5h145q7 -55 50 -90t128 -35t129 35t51 90z" />
    <glyph glyph-name="acircumflex.salt" horiz-adv-x="1232" 
d="M899 928v174h186v-1102h-186v166q-112 -193 -360 -193q-95 0 -179.5 38.5t-148.5 110t-101.5 181.5t-37.5 244q0 131 37.5 240.5t101.5 181.5t148.5 111.5t179.5 39.5q248 0 360 -192zM907 547q0 105 -26.5 186.5t-72 130t-102 73t-120.5 24.5q-145 0 -230.5 -108
t-85.5 -306t85.5 -306t230.5 -108q64 0 120.5 24.5t102 73t72 130t26.5 186.5zM694 1485l264 -238h-196l-162 111l-162 -111h-196l270 238h182z" />
    <glyph glyph-name="adieresis.salt" horiz-adv-x="1232" 
d="M899 928v174h186v-1102h-186v166q-112 -193 -360 -193q-95 0 -179.5 38.5t-148.5 110t-101.5 181.5t-37.5 244q0 131 37.5 240.5t101.5 181.5t148.5 111.5t179.5 39.5q248 0 360 -192zM907 547q0 105 -26.5 186.5t-72 130t-102 73t-120.5 24.5q-145 0 -230.5 -108
t-85.5 -306t85.5 -306t230.5 -108q64 0 120.5 24.5t102 73t72 130t26.5 186.5zM272 1282v203h187v-203h-187zM741 1485h189v-203h-189v203z" />
    <glyph glyph-name="agrave.salt" horiz-adv-x="1232" 
d="M899 928v174h186v-1102h-186v166q-112 -193 -360 -193q-95 0 -179.5 38.5t-148.5 110t-101.5 181.5t-37.5 244q0 131 37.5 240.5t101.5 181.5t148.5 111.5t179.5 39.5q248 0 360 -192zM907 547q0 105 -26.5 186.5t-72 130t-102 73t-120.5 24.5q-145 0 -230.5 -108
t-85.5 -306t85.5 -306t230.5 -108q64 0 120.5 24.5t102 73t72 130t26.5 186.5zM502 1247l-266 238h237l186 -238h-157z" />
    <glyph glyph-name="amacron.salt" horiz-adv-x="1232" 
d="M899 928v174h186v-1102h-186v166q-112 -193 -360 -193q-95 0 -179.5 38.5t-148.5 110t-101.5 181.5t-37.5 244q0 131 37.5 240.5t101.5 181.5t148.5 111.5t179.5 39.5q248 0 360 -192zM907 547q0 105 -26.5 186.5t-72 130t-102 73t-120.5 24.5q-145 0 -230.5 -108
t-85.5 -306t85.5 -306t230.5 -108q64 0 120.5 24.5t102 73t72 130t26.5 186.5zM907 1300h-614v154h614v-154z" />
    <glyph glyph-name="aogonek.salt" horiz-adv-x="1232" 
d="M899 928v174h186v-1102q-93 -39 -146.5 -84.5t-53.5 -89.5q0 -80 112 -80q40 0 86 12v-125q-56 -18 -131 -18q-44 0 -83.5 9t-75.5 28.5t-57 57t-21 89.5q0 63 43.5 111.5t140.5 89.5v166q-112 -193 -360 -193q-95 0 -179.5 38.5t-148.5 110t-101.5 181.5t-37.5 244
q0 131 37.5 240.5t101.5 181.5t148.5 111.5t179.5 39.5q248 0 360 -192zM907 547q0 105 -26.5 186.5t-72 130t-102 73t-120.5 24.5q-145 0 -230.5 -108t-85.5 -306t85.5 -306t230.5 -108q64 0 120.5 24.5t102 73t72 130t26.5 186.5z" />
    <glyph glyph-name="aring.salt" horiz-adv-x="1232" 
d="M899 928v174h186v-1102h-186v166q-112 -193 -360 -193q-95 0 -179.5 38.5t-148.5 110t-101.5 181.5t-37.5 244q0 131 37.5 240.5t101.5 181.5t148.5 111.5t179.5 39.5q248 0 360 -192zM907 547q0 105 -26.5 186.5t-72 130t-102 73t-120.5 24.5q-145 0 -230.5 -108
t-85.5 -306t85.5 -306t230.5 -108q64 0 120.5 24.5t102 73t72 130t26.5 186.5zM580 1577q79 0 132.5 -48.5t53.5 -125.5q0 -75 -53.5 -124.5t-132.5 -49.5q-78 0 -131.5 49.5t-53.5 124.5q0 76 54 125t131 49zM580 1491q-36 0 -62 -25t-26 -63q0 -36 26 -61t62 -25t62 25
t26 61q0 38 -26 63t-62 25z" />
    <glyph glyph-name="atilde.salt" horiz-adv-x="1232" 
d="M899 928v174h186v-1102h-186v166q-112 -193 -360 -193q-95 0 -179.5 38.5t-148.5 110t-101.5 181.5t-37.5 244q0 131 37.5 240.5t101.5 181.5t148.5 111.5t179.5 39.5q248 0 360 -192zM907 547q0 105 -26.5 186.5t-72 130t-102 73t-120.5 24.5q-145 0 -230.5 -108
t-85.5 -306t85.5 -306t230.5 -108q64 0 120.5 24.5t102 73t72 130t26.5 186.5zM756 1393q84 0 96 92h145q-22 -121 -85.5 -176.5t-151.5 -55.5q-42 0 -84 15.5t-70 34t-62.5 34t-62.5 15.5q-83 0 -92 -90h-145q20 115 82 172t153 57q42 0 82.5 -15.5t67.5 -33.5t61.5 -33.5
t65.5 -15.5z" />
    <glyph glyph-name="l.ss02" horiz-adv-x="509" 
d="M143 276v1209h187v-1184q0 -90 18.5 -116.5t95.5 -26.5h41v-158h-82q-83 0 -130.5 10.5t-78 42t-41 83t-10.5 140.5z" />
    <glyph glyph-name="lacute.ss02" horiz-adv-x="509" 
d="M143 276v1209h187v-1184q0 -90 18.5 -116.5t95.5 -26.5h41v-158h-82q-83 0 -130.5 10.5t-78 42t-41 83t-10.5 140.5zM637 1815l-305 -232h-185l226 232h264z" />
    <glyph glyph-name="lcaron.ss02" horiz-adv-x="634" 
d="M676 1485l-144 -348h-118l61 348h201zM143 276v1209h187v-1184q0 -90 18.5 -116.5t95.5 -26.5h41v-158h-82q-83 0 -130.5 10.5t-78 42t-41 83t-10.5 140.5z" />
    <glyph glyph-name="uni013C.ss02" horiz-adv-x="509" 
d="M143 276v1209h187v-1184q0 -90 18.5 -116.5t95.5 -26.5h41v-158h-82q-83 0 -130.5 10.5t-78 42t-41 83t-10.5 140.5zM219 -256v182h195v-194l-90 -185h-111l80 197h-74z" />
    <glyph glyph-name="ldot.ss02" horiz-adv-x="659" 
d="M477 940h187v-203h-187v203zM143 276v1209h187v-1184q0 -90 18.5 -116.5t95.5 -26.5h41v-158h-82q-83 0 -130.5 10.5t-78 42t-41 83t-10.5 140.5z" />
    <glyph glyph-name="lslash.ss02" horiz-adv-x="591" 
d="M41 547v155l147 101v682h187v-553l149 102v-157l-149 -103v-473q0 -90 18.5 -116.5t95.5 -26.5h41v-158h-81q-83 0 -130.5 10.5t-78.5 42t-41.5 83t-10.5 140.5v371z" />
    <glyph glyph-name="fl.ss02" horiz-adv-x="1150" 
d="M195 1102v80q0 73 7 120t25 85t52 58t85 30t128 10h96v-156h-92q-73 0 -94 -25t-21 -112v-90h207v-150h-207v-952h-186v952h-154v150h154zM784 276v1209h187v-1184q0 -90 18.5 -116.5t95.5 -26.5h41v-158h-82q-83 0 -130.5 10.5t-78 42t-41 83t-10.5 140.5z" />
    <glyph glyph-name="germandbls.ss03" horiz-adv-x="1296" 
d="M334 -358h-187v1364q0 249 113 362q130 141 412 141q202 0 332.5 -96t130.5 -256q0 -231 -224 -321q142 -35 226 -132.5t84 -265.5q0 -101 -30.5 -181t-81.5 -132.5t-122 -87t-148.5 -49.5t-164.5 -15q-105 0 -223 23l41 176q95 -31 190 -31q68 0 126 15t107 47.5t77 92
t28 140.5q0 297 -416 297h-6v170h4q165 0 254.5 60.5t89.5 171.5q0 99 -76.5 160t-199.5 61q-199 0 -273 -101q-63 -76 -63 -249v-1364z" />
    </font>
</defs>
</svg>
